solid csg.js
facet normal 0.7053981618131148 0.7053981618131148 0.06947565488253779
outer loop
vertex 7.5 30 0
vertex 0 37.5 0
vertex 7.355889603024228 30 1.4631774151209618
endloop
endfacet
facet normal 0.6782901060464834 0.7053981618131148 0.20575705419287313
outer loop
vertex 7.355889603024228 30 1.4631774151209618
vertex 0 37.5 0
vertex 6.929096493834651 30 2.8701257427381734
endloop
endfacet
facet normal 0.6251157418939596 0.7053981618131149 0.33413132530046225
outer loop
vertex 6.929096493834651 30 2.8701257427381734
vertex 0 37.5 0
vertex 6.236022092269089 30 4.166776747647017
endloop
endfacet
facet normal 0.5479185303493975 0.7053981618131149 0.4496651169597605
outer loop
vertex 6.236022092269089 30 4.166776747647017
vertex 0 37.5 0
vertex 5.303300858899107 30 5.303300858899106
endloop
endfacet
facet normal 0.4496651169597605 0.7053981618131148 0.5479185303493975
outer loop
vertex 5.303300858899107 30 5.303300858899106
vertex 0 37.5 0
vertex 4.166776747647017 30 6.236022092269089
endloop
endfacet
facet normal 0.3341313253004623 0.7053981618131148 0.6251157418939595
outer loop
vertex 4.166776747647017 30 6.236022092269089
vertex 0 37.5 0
vertex 2.870125742738174 30 6.929096493834651
endloop
endfacet
facet normal 0.20575705419287316 0.7053981618131149 0.6782901060464835
outer loop
vertex 2.870125742738174 30 6.929096493834651
vertex 0 37.5 0
vertex 1.4631774151209624 30 7.355889603024228
endloop
endfacet
facet normal 0.06947565488253778 0.7053981618131149 0.7053981618131148
outer loop
vertex 1.4631774151209624 30 7.355889603024228
vertex 0 37.5 0
vertex 4.592425496802575e-16 30 7.5
endloop
endfacet
facet normal -0.06947565488253743 0.7053981618131148 0.7053981618131148
outer loop
vertex 4.592425496802575e-16 30 7.5
vertex 0 37.5 0
vertex -1.4631774151209598 30 7.355889603024229
endloop
endfacet
facet normal -0.20575705419287332 0.7053981618131148 0.6782901060464834
outer loop
vertex -1.4631774151209598 30 7.355889603024229
vertex 0 37.5 0
vertex -2.870125742738173 30 6.929096493834651
endloop
endfacet
facet normal -0.3341313253004622 0.7053981618131148 0.6251157418939596
outer loop
vertex -2.870125742738173 30 6.929096493834651
vertex 0 37.5 0
vertex -4.166776747647015 30 6.23602209226909
endloop
endfacet
facet normal -0.44966511695976036 0.7053981618131148 0.5479185303493977
outer loop
vertex -4.166776747647015 30 6.23602209226909
vertex 0 37.5 0
vertex -5.303300858899106 30 5.303300858899107
endloop
endfacet
facet normal -0.5479185303493974 0.7053981618131149 0.4496651169597608
outer loop
vertex -5.303300858899106 30 5.303300858899107
vertex 0 37.5 0
vertex -6.23602209226909 30 4.166776747647017
endloop
endfacet
facet normal -0.6251157418939596 0.7053981618131148 0.334131325300462
outer loop
vertex -6.23602209226909 30 4.166776747647017
vertex 0 37.5 0
vertex -6.929096493834651 30 2.8701257427381743
endloop
endfacet
facet normal -0.6782901060464834 0.7053981618131148 0.20575705419287338
outer loop
vertex -6.929096493834651 30 2.8701257427381743
vertex 0 37.5 0
vertex -7.355889603024228 30 1.4631774151209647
endloop
endfacet
facet normal -0.7053981618131148 0.7053981618131148 0.0694756548825377
outer loop
vertex -7.355889603024228 30 1.4631774151209647
vertex 0 37.5 0
vertex -7.5 30 9.18485099360515e-16
endloop
endfacet
facet normal -0.7053981618131148 0.7053981618131148 -0.06947565488253797
outer loop
vertex -7.5 30 9.18485099360515e-16
vertex 0 37.5 0
vertex -7.355889603024227 30 -1.463177415120966
endloop
endfacet
facet normal -0.6782901060464834 0.7053981618131149 -0.2057570541928731
outer loop
vertex -7.355889603024227 30 -1.463177415120966
vertex 0 37.5 0
vertex -6.929096493834653 30 -2.870125742738169
endloop
endfacet
facet normal -0.6251157418939598 0.7053981618131148 -0.3341313253004617
outer loop
vertex -6.929096493834653 30 -2.870125742738169
vertex 0 37.5 0
vertex -6.236022092269093 30 -4.1667767476470114
endloop
endfacet
facet normal -0.547918530349398 0.7053981618131148 -0.44966511695975997
outer loop
vertex -6.236022092269093 30 -4.1667767476470114
vertex 0 37.5 0
vertex -5.3033008588991075 30 -5.303300858899106
endloop
endfacet
facet normal -0.44966511695976025 0.7053981618131147 -0.5479185303493976
outer loop
vertex -5.3033008588991075 30 -5.303300858899106
vertex 0 37.5 0
vertex -4.166776747647017 30 -6.236022092269089
endloop
endfacet
facet normal -0.3341313253004623 0.7053981618131148 -0.6251157418939595
outer loop
vertex -4.166776747647017 30 -6.236022092269089
vertex 0 37.5 0
vertex -2.8701257427381774 30 -6.929096493834649
endloop
endfacet
facet normal -0.20575705419287338 0.7053981618131147 -0.6782901060464834
outer loop
vertex -2.8701257427381774 30 -6.929096493834649
vertex 0 37.5 0
vertex -1.4631774151209649 30 -7.355889603024227
endloop
endfacet
facet normal -0.06947565488253812 0.7053981618131148 -0.7053981618131148
outer loop
vertex -1.4631774151209649 30 -7.355889603024227
vertex 0 37.5 0
vertex -1.3777276490407722e-15 30 -7.5
endloop
endfacet
facet normal 0.0694756548825377 0.7053981618131148 -0.7053981618131148
outer loop
vertex -1.3777276490407722e-15 30 -7.5
vertex 0 37.5 0
vertex 1.4631774151209622 30 -7.355889603024228
endloop
endfacet
facet normal 0.20575705419287332 0.7053981618131147 -0.6782901060464834
outer loop
vertex 1.4631774151209622 30 -7.355889603024228
vertex 0 37.5 0
vertex 2.8701257427381752 30 -6.92909649383465
endloop
endfacet
facet normal 0.33413132530046213 0.7053981618131149 -0.6251157418939596
outer loop
vertex 2.8701257427381752 30 -6.92909649383465
vertex 0 37.5 0
vertex 4.166776747647014 30 -6.236022092269091
endloop
endfacet
facet normal 0.44966511695976025 0.7053981618131147 -0.5479185303493976
outer loop
vertex 4.166776747647014 30 -6.236022092269091
vertex 0 37.5 0
vertex 5.303300858899105 30 -5.3033008588991075
endloop
endfacet
facet normal 0.5479185303493975 0.7053981618131148 -0.4496651169597606
outer loop
vertex 5.303300858899105 30 -5.3033008588991075
vertex 0 37.5 0
vertex 6.236022092269089 30 -4.166776747647017
endloop
endfacet
facet normal 0.6251157418939594 0.7053981618131149 -0.3341313253004624
outer loop
vertex 6.236022092269089 30 -4.166776747647017
vertex 0 37.5 0
vertex 6.929096493834649 30 -2.870125742738178
endloop
endfacet
facet normal 0.6782901060464834 0.7053981618131147 -0.20575705419287338
outer loop
vertex 6.929096493834649 30 -2.870125742738178
vertex 0 37.5 0
vertex 7.355889603024227 30 -1.4631774151209653
endloop
endfacet
facet normal 0.7053981618131148 0.7053981618131148 -0.06947565488253812
outer loop
vertex 7.355889603024227 30 -1.4631774151209653
vertex 0 37.5 0
vertex 7.5 30 0
endloop
endfacet
facet normal 0.9951847266721969 0 0.09801714032956071
outer loop
vertex 7.5 15 0
vertex 7.5 30 0
vertex 7.355889603024228 30 1.4631774151209618
endloop
endfacet
facet normal 0.9951847266721969 0 0.09801714032956071
outer loop
vertex 7.5 15 0
vertex 7.355889603024228 30 1.4631774151209618
vertex 7.355889603024228 15 1.4631774151209618
endloop
endfacet
facet normal 0.9569403357322089 0 0.29028467725446205
outer loop
vertex 7.355889603024228 15 1.4631774151209618
vertex 7.355889603024228 30 1.4631774151209618
vertex 6.929096493834651 30 2.8701257427381734
endloop
endfacet
facet normal 0.9569403357322089 0 0.29028467725446205
outer loop
vertex 7.355889603024228 15 1.4631774151209618
vertex 6.929096493834651 30 2.8701257427381734
vertex 6.929096493834651 15 2.8701257427381734
endloop
endfacet
facet normal 0.8819212643483549 0 0.4713967368259977
outer loop
vertex 6.929096493834651 15 2.8701257427381734
vertex 6.929096493834651 30 2.8701257427381734
vertex 6.236022092269089 30 4.166776747647017
endloop
endfacet
facet normal 0.8819212643483549 0 0.4713967368259977
outer loop
vertex 6.929096493834651 15 2.8701257427381734
vertex 6.236022092269089 30 4.166776747647017
vertex 6.236022092269089 15 4.166776747647017
endloop
endfacet
facet normal 0.7730104533627367 0 0.6343932841636458
outer loop
vertex 6.236022092269089 15 4.166776747647017
vertex 6.236022092269089 30 4.166776747647017
vertex 5.303300858899107 30 5.303300858899106
endloop
endfacet
facet normal 0.7730104533627367 0 0.6343932841636458
outer loop
vertex 6.236022092269089 15 4.166776747647017
vertex 5.303300858899107 30 5.303300858899106
vertex 5.303300858899107 15 5.303300858899106
endloop
endfacet
facet normal 0.6343932841636458 0 0.7730104533627368
outer loop
vertex 5.303300858899107 15 5.303300858899106
vertex 5.303300858899107 30 5.303300858899106
vertex 4.166776747647017 30 6.236022092269089
endloop
endfacet
facet normal 0.6343932841636458 0 0.7730104533627368
outer loop
vertex 5.303300858899107 15 5.303300858899106
vertex 4.166776747647017 30 6.236022092269089
vertex 4.166776747647017 15 6.236022092269089
endloop
endfacet
facet normal 0.47139673682599786 0 0.8819212643483549
outer loop
vertex 4.166776747647017 15 6.236022092269089
vertex 4.166776747647017 30 6.236022092269089
vertex 2.870125742738174 30 6.929096493834651
endloop
endfacet
facet normal 0.47139673682599786 0 0.8819212643483549
outer loop
vertex 4.166776747647017 15 6.236022092269089
vertex 2.870125742738174 30 6.929096493834651
vertex 2.870125742738174 15 6.929096493834651
endloop
endfacet
facet normal 0.2902846772544621 0 0.9569403357322089
outer loop
vertex 2.870125742738174 15 6.929096493834651
vertex 2.870125742738174 30 6.929096493834651
vertex 1.4631774151209624 30 7.355889603024228
endloop
endfacet
facet normal 0.2902846772544621 0 0.9569403357322089
outer loop
vertex 2.870125742738174 15 6.929096493834651
vertex 1.4631774151209624 30 7.355889603024228
vertex 1.4631774151209624 15 7.355889603024228
endloop
endfacet
facet normal 0.0980171403295607 0 0.9951847266721969
outer loop
vertex 1.4631774151209624 15 7.355889603024228
vertex 1.4631774151209624 30 7.355889603024228
vertex 4.592425496802575e-16 30 7.5
endloop
endfacet
facet normal 0.0980171403295607 0 0.9951847266721969
outer loop
vertex 1.4631774151209624 15 7.355889603024228
vertex 4.592425496802575e-16 30 7.5
vertex 4.516658797651601e-16 15 7.5
endloop
endfacet
facet normal -0.09801714032956022 0 0.9951847266721969
outer loop
vertex 4.516658797651601e-16 15 7.5
vertex 4.592425496802575e-16 30 7.5
vertex -1.4631774151209598 30 7.355889603024229
endloop
endfacet
facet normal -0.09801714032956022 0 0.9951847266721969
outer loop
vertex 4.516658797651601e-16 15 7.5
vertex -1.4631774151209598 30 7.355889603024229
vertex -1.4631774151209598 15 7.355889603024229
endloop
endfacet
facet normal -0.29028467725446233 0 0.9569403357322088
outer loop
vertex -1.4631774151209598 15 7.355889603024229
vertex -1.4631774151209598 30 7.355889603024229
vertex -2.870125742738173 30 6.929096493834651
endloop
endfacet
facet normal -0.29028467725446233 0 0.9569403357322088
outer loop
vertex -1.4631774151209598 15 7.355889603024229
vertex -2.870125742738173 30 6.929096493834651
vertex -2.870125742738173 15 6.929096493834651
endloop
endfacet
facet normal -0.4713967368259976 0 0.881921264348355
outer loop
vertex -2.870125742738173 15 6.929096493834651
vertex -2.870125742738173 30 6.929096493834651
vertex -4.166776747647015 30 6.23602209226909
endloop
endfacet
facet normal -0.4713967368259976 0 0.881921264348355
outer loop
vertex -2.870125742738173 15 6.929096493834651
vertex -4.166776747647015 30 6.23602209226909
vertex -4.166776747647015 15 6.23602209226909
endloop
endfacet
facet normal -0.6343932841636454 0 0.7730104533627369
outer loop
vertex -4.166776747647015 15 6.23602209226909
vertex -4.166776747647015 30 6.23602209226909
vertex -5.303300858899106 30 5.303300858899107
endloop
endfacet
facet normal -0.6343932841636454 0 0.7730104533627369
outer loop
vertex -4.166776747647015 15 6.23602209226909
vertex -5.303300858899106 30 5.303300858899107
vertex -5.303300858899106 15 5.303300858899107
endloop
endfacet
facet normal -0.7730104533627364 0 0.6343932841636462
outer loop
vertex -5.303300858899106 15 5.303300858899107
vertex -5.303300858899106 30 5.303300858899107
vertex -6.23602209226909 30 4.166776747647017
endloop
endfacet
facet normal -0.7730104533627364 0 0.6343932841636462
outer loop
vertex -5.303300858899106 15 5.303300858899107
vertex -6.23602209226909 30 4.166776747647017
vertex -6.23602209226909 15 4.166776747647017
endloop
endfacet
facet normal -0.881921264348355 0 0.4713967368259974
outer loop
vertex -6.23602209226909 15 4.166776747647017
vertex -6.23602209226909 30 4.166776747647017
vertex -6.929096493834651 30 2.8701257427381743
endloop
endfacet
facet normal -0.881921264348355 0 0.4713967368259974
outer loop
vertex -6.23602209226909 15 4.166776747647017
vertex -6.929096493834651 30 2.8701257427381743
vertex -6.929096493834651 15 2.870125742738174
endloop
endfacet
facet normal -0.9569403357322088 0 0.29028467725446244
outer loop
vertex -6.929096493834651 15 2.870125742738174
vertex -6.929096493834651 30 2.8701257427381743
vertex -7.355889603024228 30 1.4631774151209647
endloop
endfacet
facet normal -0.9569403357322088 0 0.29028467725446244
outer loop
vertex -6.929096493834651 15 2.870125742738174
vertex -7.355889603024228 30 1.4631774151209647
vertex -7.355889603024228 15 1.4631774151209633
endloop
endfacet
facet normal -0.9951847266721969 0 0.09801714032956058
outer loop
vertex -7.355889603024228 15 1.4631774151209633
vertex -7.355889603024228 30 1.4631774151209647
vertex -7.5 30 9.18485099360515e-16
endloop
endfacet
facet normal -0.9951847266721969 0 0.09801714032956058
outer loop
vertex -7.355889603024228 15 1.4631774151209633
vertex -7.5 30 9.18485099360515e-16
vertex -7.5 15 4.592425496802575e-16
endloop
endfacet
facet normal -0.9951847266721968 0 -0.09801714032956096
outer loop
vertex -7.5 15 4.592425496802575e-16
vertex -7.5 30 9.18485099360515e-16
vertex -7.355889603024227 30 -1.463177415120966
endloop
endfacet
facet normal -0.9951847266721968 0 -0.09801714032956096
outer loop
vertex -7.5 15 4.592425496802575e-16
vertex -7.355889603024227 30 -1.463177415120966
vertex -7.355889603024227 15 -1.463177415120966
endloop
endfacet
facet normal -0.9569403357322089 0 -0.29028467725446205
outer loop
vertex -7.355889603024227 15 -1.463177415120966
vertex -7.355889603024227 30 -1.463177415120966
vertex -6.929096493834653 30 -2.870125742738169
endloop
endfacet
facet normal -0.9569403357322089 0 -0.29028467725446205
outer loop
vertex -7.355889603024227 15 -1.463177415120966
vertex -6.929096493834653 30 -2.870125742738169
vertex -6.929096493834653 15 -2.870125742738169
endloop
endfacet
facet normal -0.8819212643483555 0 -0.47139673682599703
outer loop
vertex -6.929096493834653 15 -2.870125742738169
vertex -6.929096493834653 30 -2.870125742738169
vertex -6.236022092269093 30 -4.1667767476470114
endloop
endfacet
facet normal -0.8819212643483555 0 -0.47139673682599703
outer loop
vertex -6.929096493834653 15 -2.870125742738169
vertex -6.236022092269093 30 -4.1667767476470114
vertex -6.236022092269093 15 -4.1667767476470114
endloop
endfacet
facet normal -0.7730104533627374 0 -0.634393284163645
outer loop
vertex -6.236022092269093 15 -4.1667767476470114
vertex -6.236022092269093 30 -4.1667767476470114
vertex -5.3033008588991075 30 -5.303300858899106
endloop
endfacet
facet normal -0.7730104533627374 0 -0.634393284163645
outer loop
vertex -6.236022092269093 15 -4.1667767476470114
vertex -5.3033008588991075 30 -5.303300858899106
vertex -5.3033008588991075 15 -5.303300858899106
endloop
endfacet
facet normal -0.6343932841636454 0 -0.7730104533627369
outer loop
vertex -5.3033008588991075 15 -5.303300858899106
vertex -5.3033008588991075 30 -5.303300858899106
vertex -4.166776747647017 30 -6.236022092269089
endloop
endfacet
facet normal -0.6343932841636454 0 -0.7730104533627369
outer loop
vertex -5.3033008588991075 15 -5.303300858899106
vertex -4.166776747647017 30 -6.236022092269089
vertex -4.166776747647017 15 -6.236022092269089
endloop
endfacet
facet normal -0.47139673682599786 0 -0.8819212643483549
outer loop
vertex -4.166776747647017 15 -6.236022092269089
vertex -4.166776747647017 30 -6.236022092269089
vertex -2.8701257427381774 30 -6.929096493834649
endloop
endfacet
facet normal -0.47139673682599786 0 -0.8819212643483549
outer loop
vertex -4.166776747647017 15 -6.236022092269089
vertex -2.8701257427381774 30 -6.929096493834649
vertex -2.8701257427381774 15 -6.929096493834649
endloop
endfacet
facet normal -0.29028467725446244 0 -0.9569403357322088
outer loop
vertex -2.8701257427381774 15 -6.929096493834649
vertex -2.8701257427381774 30 -6.929096493834649
vertex -1.4631774151209649 30 -7.355889603024227
endloop
endfacet
facet normal -0.29028467725446244 0 -0.9569403357322088
outer loop
vertex -2.8701257427381774 15 -6.929096493834649
vertex -1.4631774151209649 30 -7.355889603024227
vertex -1.4631774151209649 15 -7.355889603024227
endloop
endfacet
facet normal -0.09801714032956119 0 -0.9951847266721967
outer loop
vertex -1.4631774151209649 15 -7.355889603024227
vertex -1.4631774151209649 30 -7.355889603024227
vertex -1.3777276490407722e-15 30 -7.5
endloop
endfacet
facet normal -0.09801714032956119 0 -0.9951847266721967
outer loop
vertex -1.4631774151209649 15 -7.355889603024227
vertex -1.3777276490407722e-15 30 -7.5
vertex -1.3777276490407722e-15 15 -7.5
endloop
endfacet
facet normal 0.09801714032956059 0 -0.9951847266721969
outer loop
vertex -1.3777276490407722e-15 15 -7.5
vertex -1.3777276490407722e-15 30 -7.5
vertex 1.4631774151209622 30 -7.355889603024228
endloop
endfacet
facet normal 0.09801714032956059 0 -0.9951847266721969
outer loop
vertex -1.3777276490407722e-15 15 -7.5
vertex 1.4631774151209622 30 -7.355889603024228
vertex 1.4631774151209622 15 -7.355889603024227
endloop
endfacet
facet normal 0.29028467725446233 0 -0.9569403357322088
outer loop
vertex 1.4631774151209622 15 -7.355889603024227
vertex 1.4631774151209622 30 -7.355889603024228
vertex 2.8701257427381752 30 -6.92909649383465
endloop
endfacet
facet normal 0.29028467725446233 0 -0.9569403357322088
outer loop
vertex 1.4631774151209622 15 -7.355889603024227
vertex 2.8701257427381752 30 -6.92909649383465
vertex 2.8701257427381752 15 -6.929096493834649
endloop
endfacet
facet normal 0.47139673682599753 0 -0.881921264348355
outer loop
vertex 2.8701257427381752 15 -6.929096493834649
vertex 2.8701257427381752 30 -6.92909649383465
vertex 4.166776747647014 30 -6.236022092269091
endloop
endfacet
facet normal 0.47139673682599753 0 -0.881921264348355
outer loop
vertex 2.8701257427381752 15 -6.929096493834649
vertex 4.166776747647014 30 -6.236022092269091
vertex 4.166776747647014 15 -6.23602209226909
endloop
endfacet
facet normal 0.6343932841636454 0 -0.7730104533627369
outer loop
vertex 4.166776747647014 15 -6.23602209226909
vertex 4.166776747647014 30 -6.236022092269091
vertex 5.303300858899105 30 -5.3033008588991075
endloop
endfacet
facet normal 0.6343932841636454 0 -0.7730104533627369
outer loop
vertex 4.166776747647014 15 -6.23602209226909
vertex 5.303300858899105 30 -5.3033008588991075
vertex 5.303300858899105 15 -5.303300858899107
endloop
endfacet
facet normal 0.7730104533627367 0 -0.6343932841636458
outer loop
vertex 5.303300858899105 15 -5.303300858899107
vertex 5.303300858899105 30 -5.3033008588991075
vertex 6.236022092269089 30 -4.166776747647017
endloop
endfacet
facet normal 0.7730104533627367 0 -0.6343932841636458
outer loop
vertex 5.303300858899105 15 -5.303300858899107
vertex 6.236022092269089 30 -4.166776747647017
vertex 6.236022092269089 15 -4.166776747647014
endloop
endfacet
facet normal 0.8819212643483549 0 -0.471396736825998
outer loop
vertex 6.236022092269089 15 -4.166776747647014
vertex 6.236022092269089 30 -4.166776747647017
vertex 6.929096493834649 30 -2.870125742738178
endloop
endfacet
facet normal 0.8819212643483549 0 -0.471396736825998
outer loop
vertex 6.236022092269089 15 -4.166776747647014
vertex 6.929096493834649 30 -2.870125742738178
vertex 6.929096493834649 15 -2.8701257427381734
endloop
endfacet
facet normal 0.9569403357322088 0 -0.29028467725446244
outer loop
vertex 6.929096493834649 15 -2.8701257427381734
vertex 6.929096493834649 30 -2.870125742738178
vertex 7.355889603024227 30 -1.4631774151209653
endloop
endfacet
facet normal 0.9569403357322088 0 -0.29028467725446244
outer loop
vertex 6.929096493834649 15 -2.8701257427381734
vertex 7.355889603024227 30 -1.4631774151209653
vertex 7.355889603024227 15 -1.4631774151209656
endloop
endfacet
facet normal 0.9951847266721967 0 -0.09801714032956119
outer loop
vertex 7.355889603024227 15 -1.4631774151209656
vertex 7.355889603024227 30 -1.4631774151209653
vertex 7.5 30 0
endloop
endfacet
facet normal 0.9951847266721967 0 -0.09801714032956119
outer loop
vertex 7.355889603024227 15 -1.4631774151209656
vertex 7.5 30 0
vertex 7.5 15 0
endloop
endfacet
facet normal -1 0 0
outer loop
vertex -15 15 60
vertex -15 15 -30
vertex -15 -15 -30
endloop
endfacet
facet normal -1 0 0
outer loop
vertex -15 15 60
vertex -15 -15 -30
vertex -15 -15 60
endloop
endfacet
facet normal 1 0 0
outer loop
vertex 45 -15 30
vertex 45 15 30
vertex 45 15 60
endloop
endfacet
facet normal 1 0 0
outer loop
vertex 45 -15 30
vertex 45 15 60
vertex 45 -15 60
endloop
endfacet
facet normal 0 -1 0
outer loop
vertex 15 -15 -30
vertex 15 -15 30
vertex -15 -15 30
endloop
endfacet
facet normal 0 -1 0
outer loop
vertex 15 -15 -30
vertex -15 -15 30
vertex -15 -15 -30
endloop
endfacet
facet normal 0 -1 0
outer loop
vertex 45 -15 30
vertex 45 -15 60
vertex -15 -15 60
endloop
endfacet
facet normal 0 -1 0
outer loop
vertex 45 -15 30
vertex -15 -15 60
vertex -15 -15 30
endloop
endfacet
facet normal 0 1 0
outer loop
vertex 45 15 60
vertex 45 15 30
vertex -15 15 30
endloop
endfacet
facet normal 0 1 0
outer loop
vertex 45 15 60
vertex -15 15 30
vertex -15 15 60
endloop
endfacet
facet normal 0 1 0
outer loop
vertex 15 15 30
vertex 15 15 7.5
vertex -15 15 7.5
endloop
endfacet
facet normal 0 1 0
outer loop
vertex 15 15 30
vertex -15 15 7.5
vertex -15 15 30
endloop
endfacet
facet normal 0 1 0
outer loop
vertex 4.516658797651601e-16 15 7.5
vertex -1.4631774151209598 15 7.355889603024229
vertex -15 15 7.355889603024231
endloop
endfacet
facet normal 0 1 0
outer loop
vertex 4.516658797651601e-16 15 7.5
vertex -15 15 7.355889603024231
vertex -15 15 7.5
endloop
endfacet
facet normal 0 1 0
outer loop
vertex 15 15 7.5
vertex 15 15 7.355889603024231
vertex 1.4631774151209624 15 7.355889603024228
endloop
endfacet
facet normal 0 1 0
outer loop
vertex 15 15 7.5
vertex 1.4631774151209624 15 7.355889603024228
vertex 4.516658797651601e-16 15 7.5
endloop
endfacet
facet normal 0 1 0
outer loop
vertex -1.4631774151209598 15 7.355889603024229
vertex -2.870125742738173 15 6.929096493834651
vertex -15 15 6.929096493834649
endloop
endfacet
facet normal 0 1 0
outer loop
vertex -1.4631774151209598 15 7.355889603024229
vertex -15 15 6.929096493834649
vertex -15 15 7.355889603024231
endloop
endfacet
facet normal 0 1 0
outer loop
vertex 15 15 7.355889603024231
vertex 15 15 6.929096493834649
vertex 2.870125742738174 15 6.929096493834651
endloop
endfacet
facet normal 0 1 0
outer loop
vertex 15 15 7.355889603024231
vertex 2.870125742738174 15 6.929096493834651
vertex 1.4631774151209624 15 7.355889603024228
endloop
endfacet
facet normal 0 1 0
outer loop
vertex -2.870125742738173 15 6.929096493834651
vertex -4.166776747647015 15 6.23602209226909
vertex -15 15 6.236022092269087
endloop
endfacet
facet normal 0 1 0
outer loop
vertex -2.870125742738173 15 6.929096493834651
vertex -15 15 6.236022092269087
vertex -15 15 6.929096493834649
endloop
endfacet
facet normal 0 1 0
outer loop
vertex 15 15 6.929096493834649
vertex 15 15 6.236022092269087
vertex 4.166776747647017 15 6.236022092269089
endloop
endfacet
facet normal 0 1 0
outer loop
vertex 15 15 6.929096493834649
vertex 4.166776747647017 15 6.236022092269089
vertex 2.870125742738174 15 6.929096493834651
endloop
endfacet
facet normal 0 1 0
outer loop
vertex -4.166776747647015 15 6.23602209226909
vertex -5.303300858899106 15 5.303300858899107
vertex -15 15 5.3033008588990995
endloop
endfacet
facet normal 0 1 0
outer loop
vertex -4.166776747647015 15 6.23602209226909
vertex -15 15 5.3033008588990995
vertex -15 15 6.236022092269087
endloop
endfacet
facet normal 0 1 0
outer loop
vertex 15 15 6.236022092269087
vertex 15 15 5.3033008588990995
vertex 5.303300858899107 15 5.303300858899106
endloop
endfacet
facet normal 0 1 0
outer loop
vertex 15 15 6.236022092269087
vertex 5.303300858899107 15 5.303300858899106
vertex 4.166776747647017 15 6.236022092269089
endloop
endfacet
facet normal 0 1 0
outer loop
vertex -5.303300858899106 15 5.303300858899107
vertex -6.23602209226909 15 4.166776747647017
vertex -15 15 4.16677674764702
endloop
endfacet
facet normal 0 1 0
outer loop
vertex -5.303300858899106 15 5.303300858899107
vertex -15 15 4.16677674764702
vertex -15 15 5.3033008588990995
endloop
endfacet
facet normal 0 1 0
outer loop
vertex 15 15 5.3033008588990995
vertex 15 15 4.16677674764702
vertex 6.236022092269089 15 4.166776747647017
endloop
endfacet
facet normal 0 1 0
outer loop
vertex 15 15 5.3033008588990995
vertex 6.236022092269089 15 4.166776747647017
vertex 5.303300858899107 15 5.303300858899106
endloop
endfacet
facet normal 0 1 0
outer loop
vertex -6.23602209226909 15 4.166776747647017
vertex -6.929096493834651 15 2.870125742738174
vertex -15 15 2.8701257427381783
endloop
endfacet
facet normal 0 1 0
outer loop
vertex -6.23602209226909 15 4.166776747647017
vertex -15 15 2.8701257427381783
vertex -15 15 4.16677674764702
endloop
endfacet
facet normal 0 1 0
outer loop
vertex 15 15 4.16677674764702
vertex 15 15 2.8701257427381783
vertex 6.929096493834651 15 2.8701257427381734
endloop
endfacet
facet normal 0 1 0
outer loop
vertex 15 15 4.16677674764702
vertex 6.929096493834651 15 2.8701257427381734
vertex 6.236022092269089 15 4.166776747647017
endloop
endfacet
facet normal 0 1 0
outer loop
vertex -6.929096493834651 15 2.870125742738174
vertex -7.355889603024228 15 1.4631774151209633
vertex -15 15 1.4631774151209633
endloop
endfacet
facet normal 0 1 0
outer loop
vertex -6.929096493834651 15 2.870125742738174
vertex -15 15 1.4631774151209633
vertex -15 15 2.8701257427381783
endloop
endfacet
facet normal 0 1 0
outer loop
vertex 15 15 2.8701257427381783
vertex 15 15 1.4631774151209633
vertex 7.355889603024228 15 1.4631774151209618
endloop
endfacet
facet normal 0 1 0
outer loop
vertex 15 15 2.8701257427381783
vertex 7.355889603024228 15 1.4631774151209618
vertex 6.929096493834651 15 2.8701257427381734
endloop
endfacet
facet normal 0 1 0
outer loop
vertex -7.355889603024228 15 1.4631774151209633
vertex -7.5 15 4.592425496802575e-16
vertex -15 15 7.105427357601002e-15
endloop
endfacet
facet normal 0 1 0
outer loop
vertex -7.355889603024228 15 1.4631774151209633
vertex -15 15 7.105427357601002e-15
vertex -15 15 1.4631774151209633
endloop
endfacet
facet normal 0 1 0
outer loop
vertex 15 15 1.4631774151209633
vertex 15 15 7.105427357601002e-15
vertex 7.5 15 0
endloop
endfacet
facet normal 0 1 0
outer loop
vertex 15 15 1.4631774151209633
vertex 7.5 15 0
vertex 7.355889603024228 15 1.4631774151209618
endloop
endfacet
facet normal 0 1 0
outer loop
vertex -7.5 15 4.592425496802575e-16
vertex -7.355889603024227 15 -1.463177415120966
vertex -15 15 -1.4631774151209704
endloop
endfacet
facet normal 0 1 0
outer loop
vertex -7.5 15 4.592425496802575e-16
vertex -15 15 -1.4631774151209704
vertex -15 15 7.105427357601002e-15
endloop
endfacet
facet normal 0 1 0
outer loop
vertex 15 15 7.105427357601002e-15
vertex 15 15 -1.4631774151209704
vertex 7.355889603024227 15 -1.4631774151209656
endloop
endfacet
facet normal 0 1 0
outer loop
vertex 15 15 7.105427357601002e-15
vertex 7.355889603024227 15 -1.4631774151209656
vertex 7.5 15 0
endloop
endfacet
facet normal 0 1 0
outer loop
vertex -7.355889603024227 15 -1.463177415120966
vertex -6.929096493834653 15 -2.870125742738169
vertex -15 15 -2.8701257427381606
endloop
endfacet
facet normal 0 1 0
outer loop
vertex -7.355889603024227 15 -1.463177415120966
vertex -15 15 -2.8701257427381606
vertex -15 15 -1.4631774151209704
endloop
endfacet
facet normal 0 1 0
outer loop
vertex 15 15 -1.4631774151209704
vertex 15 15 -2.8701257427381606
vertex 6.929096493834649 15 -2.8701257427381734
endloop
endfacet
facet normal 0 1 0
outer loop
vertex 15 15 -1.4631774151209704
vertex 6.929096493834649 15 -2.8701257427381734
vertex 7.355889603024227 15 -1.4631774151209656
endloop
endfacet
facet normal 0 1 0
outer loop
vertex -6.929096493834653 15 -2.870125742738169
vertex -6.236022092269093 15 -4.1667767476470114
vertex -15 15 -4.166776747647017
endloop
endfacet
facet normal 0 1 0
outer loop
vertex -6.929096493834653 15 -2.870125742738169
vertex -15 15 -4.166776747647017
vertex -15 15 -2.8701257427381606
endloop
endfacet
facet normal 0 1 0
outer loop
vertex 15 15 -2.8701257427381606
vertex 15 15 -4.166776747647017
vertex 6.236022092269089 15 -4.166776747647014
endloop
endfacet
facet normal 0 1 0
outer loop
vertex 15 15 -2.8701257427381606
vertex 6.236022092269089 15 -4.166776747647014
vertex 6.929096493834649 15 -2.8701257427381734
endloop
endfacet
facet normal 0 1 0
outer loop
vertex -6.236022092269093 15 -4.1667767476470114
vertex -5.3033008588991075 15 -5.303300858899106
vertex -15 15 -5.303300858899105
endloop
endfacet
facet normal 0 1 0
outer loop
vertex -6.236022092269093 15 -4.1667767476470114
vertex -15 15 -5.303300858899105
vertex -15 15 -4.166776747647017
endloop
endfacet
facet normal 0 1 0
outer loop
vertex 15 15 -4.166776747647017
vertex 15 15 -5.303300858899105
vertex 5.303300858899105 15 -5.303300858899107
endloop
endfacet
facet normal 0 1 0
outer loop
vertex 15 15 -4.166776747647017
vertex 5.303300858899105 15 -5.303300858899107
vertex 6.236022092269089 15 -4.166776747647014
endloop
endfacet
facet normal 0 1 0
outer loop
vertex -5.3033008588991075 15 -5.303300858899106
vertex -4.166776747647017 15 -6.236022092269089
vertex -15 15 -6.2360220922690885
endloop
endfacet
facet normal 0 1 0
outer loop
vertex -5.3033008588991075 15 -5.303300858899106
vertex -15 15 -6.2360220922690885
vertex -15 15 -5.303300858899105
endloop
endfacet
facet normal 0 1 0
outer loop
vertex 15 15 -5.303300858899105
vertex 15 15 -6.2360220922690885
vertex 4.166776747647014 15 -6.23602209226909
endloop
endfacet
facet normal 0 1 0
outer loop
vertex 15 15 -5.303300858899105
vertex 4.166776747647014 15 -6.23602209226909
vertex 5.303300858899105 15 -5.303300858899107
endloop
endfacet
facet normal 0 1 0
outer loop
vertex -4.166776747647017 15 -6.236022092269089
vertex -2.8701257427381774 15 -6.929096493834649
vertex -15 15 -6.929096493834653
endloop
endfacet
facet normal 0 1 0
outer loop
vertex -4.166776747647017 15 -6.236022092269089
vertex -15 15 -6.929096493834653
vertex -15 15 -6.2360220922690885
endloop
endfacet
facet normal 0 1 0
outer loop
vertex 15 15 -6.2360220922690885
vertex 15 15 -6.929096493834653
vertex 2.8701257427381752 15 -6.929096493834649
endloop
endfacet
facet normal 0 1 0
outer loop
vertex 15 15 -6.2360220922690885
vertex 2.8701257427381752 15 -6.929096493834649
vertex 4.166776747647014 15 -6.23602209226909
endloop
endfacet
facet normal 0 1 0
outer loop
vertex -2.8701257427381774 15 -6.929096493834649
vertex -1.4631774151209649 15 -7.355889603024227
vertex -15 15 -7.355889603024229
endloop
endfacet
facet normal 0 1 0
outer loop
vertex -2.8701257427381774 15 -6.929096493834649
vertex -15 15 -7.355889603024229
vertex -15 15 -6.929096493834653
endloop
endfacet
facet normal 0 1 0
outer loop
vertex 15 15 -6.929096493834653
vertex 15 15 -7.355889603024229
vertex 1.4631774151209622 15 -7.355889603024227
endloop
endfacet
facet normal 0 1 0
outer loop
vertex 15 15 -6.929096493834653
vertex 1.4631774151209622 15 -7.355889603024227
vertex 2.8701257427381752 15 -6.929096493834649
endloop
endfacet
facet normal 0 1 0
outer loop
vertex -1.4631774151209649 15 -7.355889603024227
vertex -1.3777276490407722e-15 15 -7.5
vertex -15 15 -7.5
endloop
endfacet
facet normal 0 1 0
outer loop
vertex -1.4631774151209649 15 -7.355889603024227
vertex -15 15 -7.5
vertex -15 15 -7.355889603024229
endloop
endfacet
facet normal 0 1 0
outer loop
vertex 15 15 -7.355889603024229
vertex 15 15 -7.5
vertex -1.3777276490407722e-15 15 -7.5
endloop
endfacet
facet normal 0 1 0
outer loop
vertex 15 15 -7.355889603024229
vertex -1.3777276490407722e-15 15 -7.5
vertex 1.4631774151209622 15 -7.355889603024227
endloop
endfacet
facet normal 0 1 0
outer loop
vertex 15 15 -7.5
vertex 15 15 -30
vertex -15 15 -30
endloop
endfacet
facet normal 0 1 0
outer loop
vertex 15 15 -7.5
vertex -15 15 -30
vertex -15 15 -7.5
endloop
endfacet
facet normal 0 0 1
outer loop
vertex -15 -15 60
vertex 45 -15 60
vertex 45 15 60
endloop
endfacet
facet normal 0 0 1
outer loop
vertex -15 -15 60
vertex 45 15 60
vertex -15 15 60
endloop
endfacet
facet normal 0 0 -1
outer loop
vertex 15 15 30
vertex 45 15 30
vertex 45 -15 30
endloop
endfacet
facet normal 0 0 -1
outer loop
vertex 15 15 30
vertex 45 -15 30
vertex 15 -15 30
endloop
endfacet
facet normal 1 0 0
outer loop
vertex 15 -15 -30
vertex 15 15 -30
vertex 15 15 30
endloop
endfacet
facet normal 1 0 0
outer loop
vertex 15 -15 -30
vertex 15 15 30
vertex 15 -15 30
endloop
endfacet
facet normal 0 0 -1
outer loop
vertex -15 -15 -30
vertex -15 15 -30
vertex 15 15 -30
endloop
endfacet
facet normal 0 0 -1
outer loop
vertex -15 -15 -30
vertex 15 15 -30
vertex 15 -15 -30
endloop
endfacet
endsolid csg.js
