solid csg.js
facet normal 0 -1 0
outer loop
vertex 0.1950903220161283 0 -0.9807852804032303
vertex 0.38268343236509 0 -0.9238795325112865
vertex 0.5555702330196018 0 -0.8314696123025452
endloop
endfacet
facet normal 0 -1 0
outer loop
vertex 0.1950903220161283 0 -0.9807852804032303
vertex 0.5555702330196018 0 -0.8314696123025452
vertex 0.7071067811865474 0 -0.7071067811865475
endloop
endfacet
facet normal 0 -1 0
outer loop
vertex 0.1950903220161283 0 -0.9807852804032303
vertex 0.7071067811865474 0 -0.7071067811865475
vertex 0.8314696123025452 0 -0.5555702330196015
endloop
endfacet
facet normal 0 -1 0
outer loop
vertex 0.1950903220161283 0 -0.9807852804032303
vertex 0.8314696123025452 0 -0.5555702330196015
vertex 0.9238795325112865 0 -0.3826834323650892
endloop
endfacet
facet normal 0 -1 0
outer loop
vertex 0.1950903220161283 0 -0.9807852804032303
vertex 0.9238795325112865 0 -0.3826834323650892
vertex 0.9807852804032303 0 -0.1950903220161288
endloop
endfacet
facet normal 0 -1 0
outer loop
vertex 0.1950903220161283 0 -0.9807852804032303
vertex 0.9807852804032303 0 -0.1950903220161288
vertex 1 0 0
endloop
endfacet
facet normal 0 -1 0
outer loop
vertex 0.1950903220161283 0 -0.9807852804032303
vertex 1 0 0
vertex 0.9807852804032304 0 0.19509032201612825
endloop
endfacet
facet normal 0 -1 0
outer loop
vertex 0.1950903220161283 0 -0.9807852804032303
vertex 0.9807852804032304 0 0.19509032201612825
vertex 0.9238795325112867 0 0.3826834323650898
endloop
endfacet
facet normal 0 -1 0
outer loop
vertex 0.1950903220161283 0 -0.9807852804032303
vertex 0.9238795325112867 0 0.3826834323650898
vertex 0.8314696123025452 0 0.5555702330196022
endloop
endfacet
facet normal 0 -1 0
outer loop
vertex 0.1950903220161283 0 -0.9807852804032303
vertex 0.8314696123025452 0 0.5555702330196022
vertex 0.7071067811865476 0 0.7071067811865475
endloop
endfacet
facet normal 0 -1 0
outer loop
vertex 0.1950903220161283 0 -0.9807852804032303
vertex 0.7071067811865476 0 0.7071067811865475
vertex 0.5555702330196023 0 0.8314696123025452
endloop
endfacet
facet normal 0 -1 0
outer loop
vertex 0.1950903220161283 0 -0.9807852804032303
vertex 0.5555702330196023 0 0.8314696123025452
vertex 0.38268343236508984 0 0.9238795325112867
endloop
endfacet
facet normal 0 -1 0
outer loop
vertex 0.1950903220161283 0 -0.9807852804032303
vertex 0.38268343236508984 0 0.9238795325112867
vertex 0.19509032201612833 0 0.9807852804032304
endloop
endfacet
facet normal 0 -1 0
outer loop
vertex 0.1950903220161283 0 -0.9807852804032303
vertex 0.19509032201612833 0 0.9807852804032304
vertex 5.551115123125783e-17 0 1
endloop
endfacet
facet normal 0 -1 0
outer loop
vertex 0.1950903220161283 0 -0.9807852804032303
vertex 5.551115123125783e-17 0 1
vertex -0.19509032201612797 0 0.9807852804032304
endloop
endfacet
facet normal 0 -1 0
outer loop
vertex 0.1950903220161283 0 -0.9807852804032303
vertex -0.19509032201612797 0 0.9807852804032304
vertex -0.3826834323650897 0 0.9238795325112867
endloop
endfacet
facet normal 0 -1 0
outer loop
vertex 0.1950903220161283 0 -0.9807852804032303
vertex -0.3826834323650897 0 0.9238795325112867
vertex -0.555570233019602 0 0.8314696123025452
endloop
endfacet
facet normal 0 -1 0
outer loop
vertex 0.1950903220161283 0 -0.9807852804032303
vertex -0.555570233019602 0 0.8314696123025452
vertex -0.7071067811865475 0 0.7071067811865475
endloop
endfacet
facet normal 0 -1 0
outer loop
vertex 0.1950903220161283 0 -0.9807852804032303
vertex -0.7071067811865475 0 0.7071067811865475
vertex -0.8314696123025453 0 0.5555702330196022
endloop
endfacet
facet normal 0 -1 0
outer loop
vertex 0.1950903220161283 0 -0.9807852804032303
vertex -0.8314696123025453 0 0.5555702330196022
vertex -0.9238795325112867 0 0.3826834323650898
endloop
endfacet
facet normal 0 -1 0
outer loop
vertex 0.1950903220161283 0 -0.9807852804032303
vertex -0.9238795325112867 0 0.3826834323650898
vertex -0.9807852804032304 0 0.19509032201612825
endloop
endfacet
facet normal 0 -1 0
outer loop
vertex 0.1950903220161283 0 -0.9807852804032303
vertex -0.9807852804032304 0 0.19509032201612825
vertex -1 0 0
endloop
endfacet
facet normal 0 -1 0
outer loop
vertex 0.1950903220161283 0 -0.9807852804032303
vertex -1 0 0
vertex -0.9807852804032303 0 -0.1950903220161288
endloop
endfacet
facet normal 0 -1 0
outer loop
vertex 0.1950903220161283 0 -0.9807852804032303
vertex -0.9807852804032303 0 -0.1950903220161288
vertex -0.923879532511287 0 -0.3826834323650892
endloop
endfacet
facet normal 0 -1 0
outer loop
vertex 0.1950903220161283 0 -0.9807852804032303
vertex -0.923879532511287 0 -0.3826834323650892
vertex -0.8314696123025457 0 -0.5555702330196015
endloop
endfacet
facet normal 0 -1 0
outer loop
vertex 0.1950903220161283 0 -0.9807852804032303
vertex -0.8314696123025457 0 -0.5555702330196015
vertex -0.7071067811865477 0 -0.7071067811865475
endloop
endfacet
facet normal 0 -1 0
outer loop
vertex 0.1950903220161283 0 -0.9807852804032303
vertex -0.7071067811865477 0 -0.7071067811865475
vertex -0.5555702330196022 0 -0.8314696123025452
endloop
endfacet
facet normal 0 -1 0
outer loop
vertex 0.1950903220161283 0 -0.9807852804032303
vertex -0.5555702330196022 0 -0.8314696123025452
vertex -0.38268343236509034 0 -0.9238795325112865
endloop
endfacet
facet normal 0 -1 0
outer loop
vertex 0.1950903220161283 0 -0.9807852804032303
vertex -0.38268343236509034 0 -0.9238795325112865
vertex -0.19509032201612866 0 -0.9807852804032303
endloop
endfacet
facet normal 0 -1 0
outer loop
vertex 0.1950903220161283 0 -0.9807852804032303
vertex -0.19509032201612866 0 -0.9807852804032303
vertex -1.8369701987210297e-16 0 -1
endloop
endfacet
facet normal 0.9569403357322088 0 0.29028467725446233
outer loop
vertex 0.9238795325112867 0 0.3826834323650898
vertex 0.9807852804032304 0 0.19509032201612825
vertex 0.9807852804032304 2 0.19509032201612825
endloop
endfacet
facet normal 0.9569403357322088 0 0.29028467725446233
outer loop
vertex 0.9238795325112867 0 0.3826834323650898
vertex 0.9807852804032304 2 0.19509032201612825
vertex 0.9238795325112867 2 0.3826834323650898
endloop
endfacet
facet normal 0.8819212643483549 0 0.4713967368259977
outer loop
vertex 0.8314696123025452 0 0.5555702330196022
vertex 0.9238795325112867 0 0.3826834323650898
vertex 0.9238795325112867 2 0.3826834323650898
endloop
endfacet
facet normal 0.8819212643483549 0 0.4713967368259977
outer loop
vertex 0.8314696123025452 0 0.5555702330196022
vertex 0.9238795325112867 2 0.3826834323650898
vertex 0.8314696123025452 2 0.5555702330196022
endloop
endfacet
facet normal 0.7730104533627371 0 0.6343932841636454
outer loop
vertex 0.7071067811865476 0 0.7071067811865475
vertex 0.8314696123025452 0 0.5555702330196022
vertex 0.8314696123025452 2 0.5555702330196022
endloop
endfacet
facet normal 0.7730104533627371 0 0.6343932841636454
outer loop
vertex 0.7071067811865476 0 0.7071067811865475
vertex 0.8314696123025452 2 0.5555702330196022
vertex 0.7071067811865476 2 0.7071067811865475
endloop
endfacet
facet normal 0.6343932841636457 0 0.7730104533627368
outer loop
vertex 0.5555702330196023 0 0.8314696123025452
vertex 0.7071067811865476 0 0.7071067811865475
vertex 0.7071067811865476 2 0.7071067811865475
endloop
endfacet
facet normal 0.6343932841636457 0 0.7730104533627368
outer loop
vertex 0.5555702330196023 0 0.8314696123025452
vertex 0.7071067811865476 2 0.7071067811865475
vertex 0.5555702330196023 2 0.8314696123025452
endloop
endfacet
facet normal 0.47139673682599764 0 0.8819212643483552
outer loop
vertex 0.38268343236508984 0 0.9238795325112867
vertex 0.5555702330196023 0 0.8314696123025452
vertex 0.5555702330196023 2 0.8314696123025452
endloop
endfacet
facet normal 0.47139673682599764 0 0.8819212643483552
outer loop
vertex 0.38268343236508984 0 0.9238795325112867
vertex 0.5555702330196023 2 0.8314696123025452
vertex 0.38268343236508984 2 0.9238795325112867
endloop
endfacet
facet normal 0.29028467725446233 0 0.9569403357322088
outer loop
vertex 0.19509032201612833 0 0.9807852804032304
vertex 0.38268343236508984 0 0.9238795325112867
vertex 0.38268343236508984 2 0.9238795325112867
endloop
endfacet
facet normal 0.29028467725446233 0 0.9569403357322088
outer loop
vertex 0.19509032201612833 0 0.9807852804032304
vertex 0.38268343236508984 2 0.9238795325112867
vertex 0.19509032201612833 2 0.9807852804032304
endloop
endfacet
facet normal 0.0980171403295607 0 0.9951847266721969
outer loop
vertex 5.551115123125783e-17 0 1
vertex 0.19509032201612833 0 0.9807852804032304
vertex 0.19509032201612833 2 0.9807852804032304
endloop
endfacet
facet normal 0.0980171403295607 0 0.9951847266721969
outer loop
vertex 5.551115123125783e-17 0 1
vertex 0.19509032201612833 2 0.9807852804032304
vertex 6.123233995736766e-17 2 1
endloop
endfacet
facet normal -0.09801714032956026 0 0.9951847266721969
outer loop
vertex -0.19509032201612797 0 0.9807852804032304
vertex 5.551115123125783e-17 0 1
vertex 6.123233995736766e-17 2 1
endloop
endfacet
facet normal -0.09801714032956026 0 0.9951847266721969
outer loop
vertex -0.19509032201612797 0 0.9807852804032304
vertex 6.123233995736766e-17 2 1
vertex -0.19509032201612797 2 0.9807852804032305
endloop
endfacet
facet normal -0.2902846772544625 0 0.9569403357322088
outer loop
vertex -0.3826834323650897 0 0.9238795325112867
vertex -0.19509032201612797 0 0.9807852804032304
vertex -0.19509032201612797 2 0.9807852804032305
endloop
endfacet
facet normal -0.2902846772544625 0 0.9569403357322088
outer loop
vertex -0.3826834323650897 0 0.9238795325112867
vertex -0.19509032201612797 2 0.9807852804032305
vertex -0.3826834323650897 2 0.9238795325112867
endloop
endfacet
facet normal -0.4713967368259976 0 0.881921264348355
outer loop
vertex -0.555570233019602 0 0.8314696123025452
vertex -0.3826834323650897 0 0.9238795325112867
vertex -0.3826834323650897 2 0.9238795325112867
endloop
endfacet
facet normal -0.4713967368259976 0 0.881921264348355
outer loop
vertex -0.555570233019602 0 0.8314696123025452
vertex -0.3826834323650897 2 0.9238795325112867
vertex -0.555570233019602 2 0.8314696123025453
endloop
endfacet
facet normal -0.6343932841636452 0 0.7730104533627372
outer loop
vertex -0.7071067811865475 0 0.7071067811865475
vertex -0.555570233019602 0 0.8314696123025452
vertex -0.555570233019602 2 0.8314696123025453
endloop
endfacet
facet normal -0.6343932841636452 0 0.7730104533627372
outer loop
vertex -0.7071067811865475 0 0.7071067811865475
vertex -0.555570233019602 2 0.8314696123025453
vertex -0.7071067811865475 2 0.7071067811865476
endloop
endfacet
facet normal -0.7730104533627368 0 0.6343932841636458
outer loop
vertex -0.8314696123025453 0 0.5555702330196022
vertex -0.7071067811865475 0 0.7071067811865475
vertex -0.7071067811865475 2 0.7071067811865476
endloop
endfacet
facet normal -0.7730104533627368 0 0.6343932841636458
outer loop
vertex -0.8314696123025453 0 0.5555702330196022
vertex -0.7071067811865475 2 0.7071067811865476
vertex -0.8314696123025453 2 0.5555702330196022
endloop
endfacet
facet normal -0.8819212643483552 0 0.47139673682599753
outer loop
vertex -0.9238795325112867 0 0.3826834323650898
vertex -0.8314696123025453 0 0.5555702330196022
vertex -0.8314696123025453 2 0.5555702330196022
endloop
endfacet
facet normal -0.8819212643483552 0 0.47139673682599753
outer loop
vertex -0.9238795325112867 0 0.3826834323650898
vertex -0.8314696123025453 2 0.5555702330196022
vertex -0.9238795325112867 2 0.3826834323650899
endloop
endfacet
facet normal -0.9569403357322088 0 0.29028467725446266
outer loop
vertex -0.9807852804032304 0 0.19509032201612825
vertex -0.9238795325112867 0 0.3826834323650898
vertex -0.9238795325112867 2 0.3826834323650899
endloop
endfacet
facet normal -0.9569403357322088 0 0.29028467725446266
outer loop
vertex -0.9807852804032304 0 0.19509032201612825
vertex -0.9238795325112867 2 0.3826834323650899
vertex -0.9807852804032304 2 0.1950903220161286
endloop
endfacet
facet normal -0.9951847266721969 0 0.09801714032956059
outer loop
vertex -1 0 0
vertex -0.9807852804032304 0 0.19509032201612825
vertex -0.9807852804032304 2 0.1950903220161286
endloop
endfacet
facet normal -0.9951847266721969 0 0.09801714032956059
outer loop
vertex -1 0 0
vertex -0.9807852804032304 2 0.1950903220161286
vertex -1 2 1.2246467991473532e-16
endloop
endfacet
facet normal -0.9951847266721968 0 -0.09801714032956092
outer loop
vertex -0.9807852804032303 0 -0.1950903220161288
vertex -1 0 0
vertex -1 2 1.2246467991473532e-16
endloop
endfacet
facet normal -0.9951847266721968 0 -0.09801714032956092
outer loop
vertex -0.9807852804032303 0 -0.1950903220161288
vertex -1 2 1.2246467991473532e-16
vertex -0.9807852804032303 2 -0.1950903220161288
endloop
endfacet
facet normal -0.9569403357322089 0 -0.29028467725446233
outer loop
vertex -0.923879532511287 0 -0.3826834323650892
vertex -0.9807852804032303 0 -0.1950903220161288
vertex -0.9807852804032303 2 -0.1950903220161288
endloop
endfacet
facet normal -0.9569403357322089 0 -0.29028467725446233
outer loop
vertex -0.923879532511287 0 -0.3826834323650892
vertex -0.9807852804032303 2 -0.1950903220161288
vertex -0.923879532511287 2 -0.3826834323650892
endloop
endfacet
facet normal -0.8819212643483553 0 -0.47139673682599703
outer loop
vertex -0.8314696123025457 0 -0.5555702330196015
vertex -0.923879532511287 0 -0.3826834323650892
vertex -0.923879532511287 2 -0.3826834323650892
endloop
endfacet
facet normal -0.8819212643483553 0 -0.47139673682599703
outer loop
vertex -0.8314696123025457 0 -0.5555702330196015
vertex -0.923879532511287 2 -0.3826834323650892
vertex -0.8314696123025457 2 -0.5555702330196015
endloop
endfacet
facet normal -0.7730104533627375 0 -0.6343932841636447
outer loop
vertex -0.7071067811865477 0 -0.7071067811865475
vertex -0.8314696123025457 0 -0.5555702330196015
vertex -0.8314696123025457 2 -0.5555702330196015
endloop
endfacet
facet normal -0.7730104533627375 0 -0.6343932841636447
outer loop
vertex -0.7071067811865477 0 -0.7071067811865475
vertex -0.8314696123025457 2 -0.5555702330196015
vertex -0.7071067811865477 2 -0.7071067811865475
endloop
endfacet
facet normal -0.6343932841636452 0 -0.7730104533627372
outer loop
vertex -0.5555702330196022 0 -0.8314696123025452
vertex -0.7071067811865477 0 -0.7071067811865475
vertex -0.7071067811865477 2 -0.7071067811865475
endloop
endfacet
facet normal -0.6343932841636452 0 -0.7730104533627372
outer loop
vertex -0.5555702330196022 0 -0.8314696123025452
vertex -0.7071067811865477 2 -0.7071067811865475
vertex -0.5555702330196022 2 -0.8314696123025452
endloop
endfacet
facet normal -0.471396736825998 0 -0.8819212643483547
outer loop
vertex -0.38268343236509034 0 -0.9238795325112865
vertex -0.5555702330196022 0 -0.8314696123025452
vertex -0.5555702330196022 2 -0.8314696123025452
endloop
endfacet
facet normal -0.471396736825998 0 -0.8819212643483547
outer loop
vertex -0.38268343236509034 0 -0.9238795325112865
vertex -0.5555702330196022 2 -0.8314696123025452
vertex -0.38268343236509034 2 -0.9238795325112865
endloop
endfacet
facet normal -0.29028467725446266 0 -0.9569403357322087
outer loop
vertex -0.19509032201612866 0 -0.9807852804032303
vertex -0.38268343236509034 0 -0.9238795325112865
vertex -0.38268343236509034 2 -0.9238795325112865
endloop
endfacet
facet normal -0.29028467725446266 0 -0.9569403357322087
outer loop
vertex -0.19509032201612866 0 -0.9807852804032303
vertex -0.38268343236509034 2 -0.9238795325112865
vertex -0.19509032201612866 2 -0.9807852804032303
endloop
endfacet
facet normal -0.09801714032956114 0 -0.9951847266721968
outer loop
vertex -1.8369701987210297e-16 0 -1
vertex -0.19509032201612866 0 -0.9807852804032303
vertex -0.19509032201612866 2 -0.9807852804032303
endloop
endfacet
facet normal -0.09801714032956114 0 -0.9951847266721968
outer loop
vertex -1.8369701987210297e-16 0 -1
vertex -0.19509032201612866 2 -0.9807852804032303
vertex -1.8369701987210297e-16 2 -1
endloop
endfacet
facet normal 0.09801714032956059 0 -0.9951847266721969
outer loop
vertex 0.1950903220161283 0 -0.9807852804032303
vertex -1.8369701987210297e-16 0 -1
vertex -1.8369701987210297e-16 2 -1
endloop
endfacet
facet normal 0.09801714032956059 0 -0.9951847266721969
outer loop
vertex 0.1950903220161283 0 -0.9807852804032303
vertex -1.8369701987210297e-16 2 -1
vertex 0.1950903220161283 2 -0.9807852804032304
endloop
endfacet
facet normal 0.2902846772544626 0 -0.9569403357322087
outer loop
vertex 0.38268343236509 0 -0.9238795325112865
vertex 0.1950903220161283 0 -0.9807852804032303
vertex 0.1950903220161283 2 -0.9807852804032304
endloop
endfacet
facet normal 0.2902846772544626 0 -0.9569403357322087
outer loop
vertex 0.38268343236509 0 -0.9238795325112865
vertex 0.1950903220161283 2 -0.9807852804032304
vertex 0.38268343236509 2 -0.9238795325112866
endloop
endfacet
facet normal 0.47139673682599753 0 -0.881921264348355
outer loop
vertex 0.5555702330196018 0 -0.8314696123025452
vertex 0.38268343236509 0 -0.9238795325112865
vertex 0.38268343236509 2 -0.9238795325112866
endloop
endfacet
facet normal 0.47139673682599753 0 -0.881921264348355
outer loop
vertex 0.5555702330196018 0 -0.8314696123025452
vertex 0.38268343236509 2 -0.9238795325112866
vertex 0.5555702330196018 2 -0.8314696123025455
endloop
endfacet
facet normal 0.6343932841636452 0 -0.7730104533627372
outer loop
vertex 0.7071067811865474 0 -0.7071067811865475
vertex 0.5555702330196018 0 -0.8314696123025452
vertex 0.5555702330196018 2 -0.8314696123025455
endloop
endfacet
facet normal 0.6343932841636452 0 -0.7730104533627372
outer loop
vertex 0.7071067811865474 0 -0.7071067811865475
vertex 0.5555702330196018 2 -0.8314696123025455
vertex 0.7071067811865474 2 -0.7071067811865477
endloop
endfacet
facet normal 0.7730104533627369 0 -0.6343932841636455
outer loop
vertex 0.8314696123025452 0 -0.5555702330196015
vertex 0.7071067811865474 0 -0.7071067811865475
vertex 0.7071067811865474 2 -0.7071067811865477
endloop
endfacet
facet normal 0.7730104533627369 0 -0.6343932841636455
outer loop
vertex 0.8314696123025452 0 -0.5555702330196015
vertex 0.7071067811865474 2 -0.7071067811865477
vertex 0.8314696123025452 2 -0.5555702330196022
endloop
endfacet
facet normal 0.8819212643483547 0 -0.4713967368259981
outer loop
vertex 0.9238795325112865 0 -0.3826834323650892
vertex 0.8314696123025452 0 -0.5555702330196015
vertex 0.8314696123025452 2 -0.5555702330196022
endloop
endfacet
facet normal 0.8819212643483547 0 -0.4713967368259981
outer loop
vertex 0.9238795325112865 0 -0.3826834323650892
vertex 0.8314696123025452 2 -0.5555702330196022
vertex 0.9238795325112865 2 -0.3826834323650904
endloop
endfacet
facet normal 0.9569403357322087 0 -0.29028467725446266
outer loop
vertex 0.9807852804032303 0 -0.1950903220161288
vertex 0.9238795325112865 0 -0.3826834323650892
vertex 0.9238795325112865 2 -0.3826834323650904
endloop
endfacet
facet normal 0.9569403357322087 0 -0.29028467725446266
outer loop
vertex 0.9807852804032303 0 -0.1950903220161288
vertex 0.9238795325112865 2 -0.3826834323650904
vertex 0.9807852804032303 2 -0.19509032201612872
endloop
endfacet
facet normal 0 1 0
outer loop
vertex 0.1755812898145155 0.1 0.8827067523629074
vertex 0.3444150891285809 0.1 0.831491579260158
vertex 0.5000132097176421 0.1 0.7483226510722907
endloop
endfacet
facet normal 0 1 0
outer loop
vertex 0.1755812898145155 0.1 0.8827067523629074
vertex 0.5000132097176421 0.1 0.7483226510722907
vertex 0.6363961030678928 0.1 0.6363961030678927
endloop
endfacet
facet normal 0 1 0
outer loop
vertex 0.1755812898145155 0.1 0.8827067523629074
vertex 0.6363961030678928 0.1 0.6363961030678927
vertex 0.7483226510722907 0.1 0.500013209717642
endloop
endfacet
facet normal 0 1 0
outer loop
vertex 0.1755812898145155 0.1 0.8827067523629074
vertex 0.7483226510722907 0.1 0.500013209717642
vertex 0.831491579260158 0.1 0.3444150891285808
endloop
endfacet
facet normal 0 1 0
outer loop
vertex 0.1755812898145155 0.1 0.8827067523629074
vertex 0.831491579260158 0.1 0.3444150891285808
vertex 0.8827067523629074 0.1 0.17558128981451543
endloop
endfacet
facet normal 0 1 0
outer loop
vertex 0.1755812898145155 0.1 0.8827067523629074
vertex 0.8827067523629074 0.1 0.17558128981451543
vertex 0.9 0.1 0
endloop
endfacet
facet normal 0 1 0
outer loop
vertex 0.1755812898145155 0.1 0.8827067523629074
vertex 0.9 0.1 0
vertex 0.8827067523629073 0.1 -0.17558128981451593
endloop
endfacet
facet normal 0 1 0
outer loop
vertex 0.1755812898145155 0.1 0.8827067523629074
vertex 0.8827067523629073 0.1 -0.17558128981451593
vertex 0.8314915792601579 0.1 -0.3444150891285803
endloop
endfacet
facet normal 0 1 0
outer loop
vertex 0.1755812898145155 0.1 0.8827067523629074
vertex 0.8314915792601579 0.1 -0.3444150891285803
vertex 0.7483226510722907 0.1 -0.5000132097176414
endloop
endfacet
facet normal 0 1 0
outer loop
vertex 0.1755812898145155 0.1 0.8827067523629074
vertex 0.7483226510722907 0.1 -0.5000132097176414
vertex 0.6363961030678926 0.1 -0.6363961030678927
endloop
endfacet
facet normal 0 1 0
outer loop
vertex 0.1755812898145155 0.1 0.8827067523629074
vertex 0.6363961030678926 0.1 -0.6363961030678927
vertex 0.5000132097176416 0.1 -0.7483226510722907
endloop
endfacet
facet normal 0 1 0
outer loop
vertex 0.1755812898145155 0.1 0.8827067523629074
vertex 0.5000132097176416 0.1 -0.7483226510722907
vertex 0.344415089128581 0.1 -0.8314915792601579
endloop
endfacet
facet normal 0 1 0
outer loop
vertex 0.1755812898145155 0.1 0.8827067523629074
vertex 0.344415089128581 0.1 -0.8314915792601579
vertex 0.17558128981451548 0.1 -0.8827067523629073
endloop
endfacet
facet normal 0 1 0
outer loop
vertex 0.1755812898145155 0.1 0.8827067523629074
vertex 0.17558128981451548 0.1 -0.8827067523629073
vertex -1.6653345369377348e-16 0.1 -0.9
endloop
endfacet
facet normal 0 1 0
outer loop
vertex 0.1755812898145155 0.1 0.8827067523629074
vertex -1.6653345369377348e-16 0.1 -0.9
vertex -0.1755812898145158 0.1 -0.8827067523629073
endloop
endfacet
facet normal 0 1 0
outer loop
vertex 0.1755812898145155 0.1 0.8827067523629074
vertex -0.1755812898145158 0.1 -0.8827067523629073
vertex -0.3444150891285813 0.1 -0.8314915792601579
endloop
endfacet
facet normal 0 1 0
outer loop
vertex 0.1755812898145155 0.1 0.8827067523629074
vertex -0.3444150891285813 0.1 -0.8314915792601579
vertex -0.500013209717642 0.1 -0.7483226510722907
endloop
endfacet
facet normal 0 1 0
outer loop
vertex 0.1755812898145155 0.1 0.8827067523629074
vertex -0.500013209717642 0.1 -0.7483226510722907
vertex -0.636396103067893 0.1 -0.6363961030678927
endloop
endfacet
facet normal 0 1 0
outer loop
vertex 0.1755812898145155 0.1 0.8827067523629074
vertex -0.636396103067893 0.1 -0.6363961030678927
vertex -0.7483226510722911 0.1 -0.5000132097176414
endloop
endfacet
facet normal 0 1 0
outer loop
vertex 0.1755812898145155 0.1 0.8827067523629074
vertex -0.7483226510722911 0.1 -0.5000132097176414
vertex -0.8314915792601583 0.1 -0.3444150891285803
endloop
endfacet
facet normal 0 1 0
outer loop
vertex 0.1755812898145155 0.1 0.8827067523629074
vertex -0.8314915792601583 0.1 -0.3444150891285803
vertex -0.8827067523629073 0.1 -0.17558128981451593
endloop
endfacet
facet normal 0 1 0
outer loop
vertex 0.1755812898145155 0.1 0.8827067523629074
vertex -0.8827067523629073 0.1 -0.17558128981451593
vertex -0.9 0.1 0
endloop
endfacet
facet normal 0 1 0
outer loop
vertex 0.1755812898145155 0.1 0.8827067523629074
vertex -0.9 0.1 0
vertex -0.8827067523629074 0.1 0.17558128981451543
endloop
endfacet
facet normal 0 1 0
outer loop
vertex 0.1755812898145155 0.1 0.8827067523629074
vertex -0.8827067523629074 0.1 0.17558128981451543
vertex -0.831491579260158 0.1 0.3444150891285808
endloop
endfacet
facet normal 0 1 0
outer loop
vertex 0.1755812898145155 0.1 0.8827067523629074
vertex -0.831491579260158 0.1 0.3444150891285808
vertex -0.7483226510722908 0.1 0.500013209717642
endloop
endfacet
facet normal 0 1 0
outer loop
vertex 0.1755812898145155 0.1 0.8827067523629074
vertex -0.7483226510722908 0.1 0.500013209717642
vertex -0.6363961030678927 0.1 0.6363961030678927
endloop
endfacet
facet normal 0 1 0
outer loop
vertex 0.1755812898145155 0.1 0.8827067523629074
vertex -0.6363961030678927 0.1 0.6363961030678927
vertex -0.5000132097176417 0.1 0.7483226510722907
endloop
endfacet
facet normal 0 1 0
outer loop
vertex 0.1755812898145155 0.1 0.8827067523629074
vertex -0.5000132097176417 0.1 0.7483226510722907
vertex -0.34441508912858076 0.1 0.831491579260158
endloop
endfacet
facet normal 0 1 0
outer loop
vertex 0.1755812898145155 0.1 0.8827067523629074
vertex -0.34441508912858076 0.1 0.831491579260158
vertex -0.17558128981451518 0.1 0.8827067523629074
endloop
endfacet
facet normal 0 1 0
outer loop
vertex 0.1755812898145155 0.1 0.8827067523629074
vertex -0.17558128981451518 0.1 0.8827067523629074
vertex 5.5109105961630896e-17 0.1 0.9
endloop
endfacet
facet normal -0.9951847266721969 0 -0.0980171403295608
outer loop
vertex 0.8827067523629074 2 0.17558128981451543
vertex 0.9 2 0
vertex 0.9 0.1 0
endloop
endfacet
facet normal -0.9951847266721969 0 -0.0980171403295608
outer loop
vertex 0.8827067523629074 2 0.17558128981451543
vertex 0.9 0.1 0
vertex 0.8827067523629074 0.1 0.17558128981451543
endloop
endfacet
facet normal -0.9569403357322089 0 -0.2902846772544622
outer loop
vertex 0.831491579260158 2 0.3444150891285808
vertex 0.8827067523629074 2 0.17558128981451543
vertex 0.8827067523629074 0.1 0.17558128981451543
endloop
endfacet
facet normal -0.9569403357322089 0 -0.2902846772544622
outer loop
vertex 0.831491579260158 2 0.3444150891285808
vertex 0.8827067523629074 0.1 0.17558128981451543
vertex 0.831491579260158 0.1 0.3444150891285808
endloop
endfacet
facet normal -0.881921264348355 0 -0.47139673682599786
outer loop
vertex 0.7483226510722907 2 0.500013209717642
vertex 0.831491579260158 2 0.3444150891285808
vertex 0.831491579260158 0.1 0.3444150891285808
endloop
endfacet
facet normal -0.881921264348355 0 -0.47139673682599786
outer loop
vertex 0.7483226510722907 2 0.500013209717642
vertex 0.831491579260158 0.1 0.3444150891285808
vertex 0.7483226510722907 0.1 0.500013209717642
endloop
endfacet
facet normal -0.7730104533627371 0 -0.6343932841636454
outer loop
vertex 0.6363961030678928 2 0.6363961030678927
vertex 0.7483226510722907 2 0.500013209717642
vertex 0.7483226510722907 0.1 0.500013209717642
endloop
endfacet
facet normal -0.7730104533627371 0 -0.6343932841636454
outer loop
vertex 0.6363961030678928 2 0.6363961030678927
vertex 0.7483226510722907 0.1 0.500013209717642
vertex 0.6363961030678928 0.1 0.6363961030678927
endloop
endfacet
facet normal -0.6343932841636457 0 -0.7730104533627368
outer loop
vertex 0.5000132097176421 2 0.7483226510722907
vertex 0.6363961030678928 2 0.6363961030678927
vertex 0.6363961030678928 0.1 0.6363961030678927
endloop
endfacet
facet normal -0.6343932841636457 0 -0.7730104533627368
outer loop
vertex 0.5000132097176421 2 0.7483226510722907
vertex 0.6363961030678928 0.1 0.6363961030678927
vertex 0.5000132097176421 0.1 0.7483226510722907
endloop
endfacet
facet normal -0.47139673682599753 0 -0.881921264348355
outer loop
vertex 0.3444150891285809 2 0.831491579260158
vertex 0.5000132097176421 2 0.7483226510722907
vertex 0.5000132097176421 0.1 0.7483226510722907
endloop
endfacet
facet normal -0.47139673682599753 0 -0.881921264348355
outer loop
vertex 0.3444150891285809 2 0.831491579260158
vertex 0.5000132097176421 0.1 0.7483226510722907
vertex 0.3444150891285809 0.1 0.831491579260158
endloop
endfacet
facet normal -0.2902846772544624 0 -0.9569403357322089
outer loop
vertex 0.1755812898145155 2 0.8827067523629074
vertex 0.3444150891285809 2 0.831491579260158
vertex 0.3444150891285809 0.1 0.831491579260158
endloop
endfacet
facet normal -0.2902846772544624 0 -0.9569403357322089
outer loop
vertex 0.1755812898145155 2 0.8827067523629074
vertex 0.3444150891285809 0.1 0.831491579260158
vertex 0.1755812898145155 0.1 0.8827067523629074
endloop
endfacet
facet normal -0.09801714032956067 0 -0.9951847266721969
outer loop
vertex 5.5109105961630896e-17 2 0.9
vertex 0.1755812898145155 2 0.8827067523629074
vertex 0.1755812898145155 0.1 0.8827067523629074
endloop
endfacet
facet normal -0.09801714032956067 0 -0.9951847266721969
outer loop
vertex 5.5109105961630896e-17 2 0.9
vertex 0.1755812898145155 0.1 0.8827067523629074
vertex 5.5109105961630896e-17 0.1 0.9
endloop
endfacet
facet normal 0.09801714032956019 0 -0.9951847266721969
outer loop
vertex -0.17558128981451518 2 0.8827067523629075
vertex 5.5109105961630896e-17 2 0.9
vertex 5.5109105961630896e-17 0.1 0.9
endloop
endfacet
facet normal 0.09801714032956019 0 -0.9951847266721969
outer loop
vertex -0.17558128981451518 2 0.8827067523629075
vertex 5.5109105961630896e-17 0.1 0.9
vertex -0.17558128981451518 0.1 0.8827067523629074
endloop
endfacet
facet normal 0.29028467725446255 0 -0.9569403357322087
outer loop
vertex -0.34441508912858076 2 0.831491579260158
vertex -0.17558128981451518 2 0.8827067523629075
vertex -0.17558128981451518 0.1 0.8827067523629074
endloop
endfacet
facet normal 0.29028467725446255 0 -0.9569403357322087
outer loop
vertex -0.34441508912858076 2 0.831491579260158
vertex -0.17558128981451518 0.1 0.8827067523629074
vertex -0.34441508912858076 0.1 0.831491579260158
endloop
endfacet
facet normal 0.47139673682599753 0 -0.881921264348355
outer loop
vertex -0.5000132097176417 2 0.7483226510722908
vertex -0.34441508912858076 2 0.831491579260158
vertex -0.34441508912858076 0.1 0.831491579260158
endloop
endfacet
facet normal 0.47139673682599753 0 -0.881921264348355
outer loop
vertex -0.5000132097176417 2 0.7483226510722908
vertex -0.34441508912858076 0.1 0.831491579260158
vertex -0.5000132097176417 0.1 0.7483226510722907
endloop
endfacet
facet normal 0.6343932841636452 0 -0.7730104533627372
outer loop
vertex -0.6363961030678927 2 0.6363961030678928
vertex -0.5000132097176417 2 0.7483226510722908
vertex -0.5000132097176417 0.1 0.7483226510722907
endloop
endfacet
facet normal 0.6343932841636452 0 -0.7730104533627372
outer loop
vertex -0.6363961030678927 2 0.6363961030678928
vertex -0.5000132097176417 0.1 0.7483226510722907
vertex -0.6363961030678927 0.1 0.6363961030678927
endloop
endfacet
facet normal 0.7730104533627368 0 -0.6343932841636457
outer loop
vertex -0.7483226510722908 2 0.500013209717642
vertex -0.6363961030678927 2 0.6363961030678928
vertex -0.6363961030678927 0.1 0.6363961030678927
endloop
endfacet
facet normal 0.7730104533627368 0 -0.6343932841636457
outer loop
vertex -0.7483226510722908 2 0.500013209717642
vertex -0.6363961030678927 0.1 0.6363961030678927
vertex -0.7483226510722908 0.1 0.500013209717642
endloop
endfacet
facet normal 0.8819212643483552 0 -0.47139673682599736
outer loop
vertex -0.831491579260158 2 0.34441508912858093
vertex -0.7483226510722908 2 0.500013209717642
vertex -0.7483226510722908 0.1 0.500013209717642
endloop
endfacet
facet normal 0.8819212643483552 0 -0.47139673682599736
outer loop
vertex -0.831491579260158 2 0.34441508912858093
vertex -0.7483226510722908 0.1 0.500013209717642
vertex -0.831491579260158 0.1 0.3444150891285808
endloop
endfacet
facet normal 0.9569403357322087 0 -0.2902846772544629
outer loop
vertex -0.8827067523629074 2 0.17558128981451576
vertex -0.831491579260158 2 0.34441508912858093
vertex -0.831491579260158 0.1 0.3444150891285808
endloop
endfacet
facet normal 0.9569403357322087 0 -0.2902846772544629
outer loop
vertex -0.8827067523629074 2 0.17558128981451576
vertex -0.831491579260158 0.1 0.3444150891285808
vertex -0.8827067523629074 0.1 0.17558128981451543
endloop
endfacet
facet normal 0.9951847266721969 0 -0.09801714032956067
outer loop
vertex -0.9 2 1.1021821192326179e-16
vertex -0.8827067523629074 2 0.17558128981451576
vertex -0.8827067523629074 0.1 0.17558128981451543
endloop
endfacet
facet normal 0.9951847266721969 0 -0.09801714032956067
outer loop
vertex -0.9 2 1.1021821192326179e-16
vertex -0.8827067523629074 0.1 0.17558128981451543
vertex -0.9 0.1 0
endloop
endfacet
facet normal 0.9951847266721969 0 0.09801714032956092
outer loop
vertex -0.8827067523629073 2 -0.17558128981451593
vertex -0.9 2 1.1021821192326179e-16
vertex -0.9 0.1 0
endloop
endfacet
facet normal 0.9951847266721969 0 0.09801714032956092
outer loop
vertex -0.8827067523629073 2 -0.17558128981451593
vertex -0.9 0.1 0
vertex -0.8827067523629073 0.1 -0.17558128981451593
endloop
endfacet
facet normal 0.9569403357322088 0 0.2902846772544623
outer loop
vertex -0.8314915792601583 2 -0.3444150891285803
vertex -0.8827067523629073 2 -0.17558128981451593
vertex -0.8827067523629073 0.1 -0.17558128981451593
endloop
endfacet
facet normal 0.9569403357322088 0 0.2902846772544623
outer loop
vertex -0.8314915792601583 2 -0.3444150891285803
vertex -0.8827067523629073 0.1 -0.17558128981451593
vertex -0.8314915792601583 0.1 -0.3444150891285803
endloop
endfacet
facet normal 0.8819212643483553 0 0.4713967368259971
outer loop
vertex -0.7483226510722911 2 -0.5000132097176414
vertex -0.8314915792601583 2 -0.3444150891285803
vertex -0.8314915792601583 0.1 -0.3444150891285803
endloop
endfacet
facet normal 0.8819212643483553 0 0.4713967368259971
outer loop
vertex -0.7483226510722911 2 -0.5000132097176414
vertex -0.8314915792601583 0.1 -0.3444150891285803
vertex -0.7483226510722911 0.1 -0.5000132097176414
endloop
endfacet
facet normal 0.7730104533627375 0 0.6343932841636447
outer loop
vertex -0.636396103067893 2 -0.6363961030678927
vertex -0.7483226510722911 2 -0.5000132097176414
vertex -0.7483226510722911 0.1 -0.5000132097176414
endloop
endfacet
facet normal 0.7730104533627375 0 0.6343932841636447
outer loop
vertex -0.636396103067893 2 -0.6363961030678927
vertex -0.7483226510722911 0.1 -0.5000132097176414
vertex -0.636396103067893 0.1 -0.6363961030678927
endloop
endfacet
facet normal 0.634393284163645 0 0.7730104533627373
outer loop
vertex -0.500013209717642 2 -0.7483226510722907
vertex -0.636396103067893 2 -0.6363961030678927
vertex -0.636396103067893 0.1 -0.6363961030678927
endloop
endfacet
facet normal 0.634393284163645 0 0.7730104533627373
outer loop
vertex -0.500013209717642 2 -0.7483226510722907
vertex -0.636396103067893 0.1 -0.6363961030678927
vertex -0.500013209717642 0.1 -0.7483226510722907
endloop
endfacet
facet normal 0.4713967368259981 0 0.8819212643483549
outer loop
vertex -0.3444150891285813 2 -0.8314915792601579
vertex -0.500013209717642 2 -0.7483226510722907
vertex -0.500013209717642 0.1 -0.7483226510722907
endloop
endfacet
facet normal 0.4713967368259981 0 0.8819212643483549
outer loop
vertex -0.3444150891285813 2 -0.8314915792601579
vertex -0.500013209717642 0.1 -0.7483226510722907
vertex -0.3444150891285813 0.1 -0.8314915792601579
endloop
endfacet
facet normal 0.2902846772544626 0 0.9569403357322087
outer loop
vertex -0.1755812898145158 2 -0.8827067523629073
vertex -0.3444150891285813 2 -0.8314915792601579
vertex -0.3444150891285813 0.1 -0.8314915792601579
endloop
endfacet
facet normal 0.2902846772544626 0 0.9569403357322087
outer loop
vertex -0.1755812898145158 2 -0.8827067523629073
vertex -0.3444150891285813 0.1 -0.8314915792601579
vertex -0.1755812898145158 0.1 -0.8827067523629073
endloop
endfacet
facet normal 0.09801714032956117 0 0.9951847266721968
outer loop
vertex -1.6532731788489269e-16 2 -0.9
vertex -0.1755812898145158 2 -0.8827067523629073
vertex -0.1755812898145158 0.1 -0.8827067523629073
endloop
endfacet
facet normal 0.09801714032956117 0 0.9951847266721968
outer loop
vertex -1.6532731788489269e-16 2 -0.9
vertex -0.1755812898145158 0.1 -0.8827067523629073
vertex -1.6653345369377348e-16 0.1 -0.9
endloop
endfacet
facet normal -0.09801714032956053 0 0.9951847266721969
outer loop
vertex 0.17558128981451548 2 -0.8827067523629074
vertex -1.6532731788489269e-16 2 -0.9
vertex -1.6653345369377348e-16 0.1 -0.9
endloop
endfacet
facet normal -0.09801714032956053 0 0.9951847266721969
outer loop
vertex 0.17558128981451548 2 -0.8827067523629074
vertex -1.6653345369377348e-16 0.1 -0.9
vertex 0.17558128981451548 0.1 -0.8827067523629073
endloop
endfacet
facet normal -0.29028467725446283 0 0.9569403357322087
outer loop
vertex 0.344415089128581 2 -0.8314915792601579
vertex 0.17558128981451548 2 -0.8827067523629074
vertex 0.17558128981451548 0.1 -0.8827067523629073
endloop
endfacet
facet normal -0.29028467725446283 0 0.9569403357322087
outer loop
vertex 0.344415089128581 2 -0.8314915792601579
vertex 0.17558128981451548 0.1 -0.8827067523629073
vertex 0.344415089128581 0.1 -0.8314915792601579
endloop
endfacet
facet normal -0.4713967368259977 0 0.881921264348355
outer loop
vertex 0.5000132097176416 2 -0.7483226510722909
vertex 0.344415089128581 2 -0.8314915792601579
vertex 0.344415089128581 0.1 -0.8314915792601579
endloop
endfacet
facet normal -0.4713967368259977 0 0.881921264348355
outer loop
vertex 0.5000132097176416 2 -0.7483226510722909
vertex 0.344415089128581 0.1 -0.8314915792601579
vertex 0.5000132097176416 0.1 -0.7483226510722907
endloop
endfacet
facet normal -0.6343932841636453 0 0.7730104533627372
outer loop
vertex 0.6363961030678926 2 -0.636396103067893
vertex 0.5000132097176416 2 -0.7483226510722909
vertex 0.5000132097176416 0.1 -0.7483226510722907
endloop
endfacet
facet normal -0.6343932841636453 0 0.7730104533627372
outer loop
vertex 0.6363961030678926 2 -0.636396103067893
vertex 0.5000132097176416 0.1 -0.7483226510722907
vertex 0.6363961030678926 0.1 -0.6363961030678927
endloop
endfacet
facet normal -0.7730104533627369 0 0.6343932841636457
outer loop
vertex 0.7483226510722907 2 -0.500013209717642
vertex 0.6363961030678926 2 -0.636396103067893
vertex 0.6363961030678926 0.1 -0.6363961030678927
endloop
endfacet
facet normal -0.7730104533627369 0 0.6343932841636457
outer loop
vertex 0.7483226510722907 2 -0.500013209717642
vertex 0.6363961030678926 0.1 -0.6363961030678927
vertex 0.7483226510722907 0.1 -0.5000132097176414
endloop
endfacet
facet normal -0.8819212643483548 0 0.471396736825998
outer loop
vertex 0.8314915792601579 2 -0.3444150891285814
vertex 0.7483226510722907 2 -0.500013209717642
vertex 0.7483226510722907 0.1 -0.5000132097176414
endloop
endfacet
facet normal -0.8819212643483548 0 0.471396736825998
outer loop
vertex 0.8314915792601579 2 -0.3444150891285814
vertex 0.7483226510722907 0.1 -0.5000132097176414
vertex 0.8314915792601579 0.1 -0.3444150891285803
endloop
endfacet
facet normal -0.9569403357322087 0 0.2902846772544626
outer loop
vertex 0.8827067523629073 2 -0.17558128981451585
vertex 0.8314915792601579 2 -0.3444150891285814
vertex 0.8314915792601579 0.1 -0.3444150891285803
endloop
endfacet
facet normal -0.9569403357322087 0 0.2902846772544626
outer loop
vertex 0.8827067523629073 2 -0.17558128981451585
vertex 0.8314915792601579 0.1 -0.3444150891285803
vertex 0.8827067523629073 0.1 -0.17558128981451593
endloop
endfacet
facet normal -0.9951847266721968 0 0.09801714032956117
outer loop
vertex 0.9 2 0
vertex 0.8827067523629073 2 -0.17558128981451585
vertex 0.8827067523629073 0.1 -0.17558128981451593
endloop
endfacet
facet normal -0.9951847266721968 0 0.09801714032956117
outer loop
vertex 0.9 2 0
vertex 0.8827067523629073 0.1 -0.17558128981451593
vertex 0.9 0.1 0
endloop
endfacet
facet normal 0 1 0
outer loop
vertex 0.19509032201612833 2 0.9807852804032304
vertex 0.38268343236508984 2 0.9238795325112867
vertex 0.42735889542875344 2 0.9000000000000002
endloop
endfacet
facet normal 0 1 0
outer loop
vertex 0.19509032201612833 2 0.9807852804032304
vertex 0.42735889542875344 2 0.9000000000000002
vertex -0.42735889542875344 2 0.9000000000000002
endloop
endfacet
facet normal 0 1 0
outer loop
vertex 0.19509032201612833 2 0.9807852804032304
vertex -0.42735889542875344 2 0.9000000000000002
vertex -0.3826834323650897 2 0.9238795325112867
endloop
endfacet
facet normal 0 1 0
outer loop
vertex 0.19509032201612833 2 0.9807852804032304
vertex -0.3826834323650897 2 0.9238795325112867
vertex -0.19509032201612797 2 0.9807852804032305
endloop
endfacet
facet normal 0 1 0
outer loop
vertex 0.19509032201612833 2 0.9807852804032304
vertex -0.19509032201612797 2 0.9807852804032305
vertex 6.123233995736766e-17 2 1
endloop
endfacet
facet normal 0 1 0
outer loop
vertex 5.5109105961630896e-17 2 0.9
vertex -0.17558128981451518 2 0.8827067523629075
vertex -0.4597122861702415 2 0.8827067523629075
endloop
endfacet
facet normal 0 1 0
outer loop
vertex 5.5109105961630896e-17 2 0.9
vertex -0.4597122861702415 2 0.8827067523629075
vertex -0.42735889542875344 2 0.9000000000000002
endloop
endfacet
facet normal 0 1 0
outer loop
vertex 0.42735889542875344 2 0.9000000000000002
vertex 0.4597122861702415 2 0.8827067523629075
vertex 0.1755812898145155 2 0.8827067523629074
endloop
endfacet
facet normal 0 1 0
outer loop
vertex 0.42735889542875344 2 0.9000000000000002
vertex 0.1755812898145155 2 0.8827067523629074
vertex 5.5109105961630896e-17 2 0.9
endloop
endfacet
facet normal 0 1 0
outer loop
vertex -0.17558128981451518 2 0.8827067523629075
vertex -0.34441508912858076 2 0.831491579260158
vertex -0.5555291357325002 2 0.831491579260158
endloop
endfacet
facet normal 0 1 0
outer loop
vertex -0.17558128981451518 2 0.8827067523629075
vertex -0.5555291357325002 2 0.831491579260158
vertex -0.4597122861702415 2 0.8827067523629075
endloop
endfacet
facet normal 0 1 0
outer loop
vertex 0.4597122861702415 2 0.8827067523629075
vertex 0.5555291357325005 2 0.831491579260158
vertex 0.3444150891285809 2 0.831491579260158
endloop
endfacet
facet normal 0 1 0
outer loop
vertex 0.4597122861702415 2 0.8827067523629075
vertex 0.3444150891285809 2 0.831491579260158
vertex 0.1755812898145155 2 0.8827067523629074
endloop
endfacet
facet normal 0 1 0
outer loop
vertex -0.34441508912858076 2 0.831491579260158
vertex -0.5000132097176417 2 0.7483226510722908
vertex -0.6568850984205941 2 0.7483226510722908
endloop
endfacet
facet normal 0 1 0
outer loop
vertex -0.34441508912858076 2 0.831491579260158
vertex -0.6568850984205941 2 0.7483226510722908
vertex -0.555570233019602 2 0.8314696123025453
endloop
endfacet
facet normal 0 1 0
outer loop
vertex -0.34441508912858076 2 0.831491579260158
vertex -0.555570233019602 2 0.8314696123025453
vertex -0.5555291357325002 2 0.831491579260158
endloop
endfacet
facet normal 0 1 0
outer loop
vertex 0.5555291357325005 2 0.831491579260158
vertex 0.5555702330196023 2 0.8314696123025452
vertex 0.6568850984205942 2 0.7483226510722908
endloop
endfacet
facet normal 0 1 0
outer loop
vertex 0.5555291357325005 2 0.831491579260158
vertex 0.6568850984205942 2 0.7483226510722908
vertex 0.5000132097176421 2 0.7483226510722907
endloop
endfacet
facet normal 0 1 0
outer loop
vertex 0.5555291357325005 2 0.831491579260158
vertex 0.5000132097176421 2 0.7483226510722907
vertex 0.3444150891285809 2 0.831491579260158
endloop
endfacet
facet normal 0 1 0
outer loop
vertex -0.5000132097176417 2 0.7483226510722908
vertex -0.6363961030678927 2 0.6363961030678928
vertex -0.7651375350036398 2 0.6363961030678928
endloop
endfacet
facet normal 0 1 0
outer loop
vertex -0.5000132097176417 2 0.7483226510722908
vertex -0.7651375350036398 2 0.6363961030678928
vertex -0.7071067811865475 2 0.7071067811865476
endloop
endfacet
facet normal 0 1 0
outer loop
vertex -0.5000132097176417 2 0.7483226510722908
vertex -0.7071067811865475 2 0.7071067811865476
vertex -0.6568850984205941 2 0.7483226510722908
endloop
endfacet
facet normal 0 1 0
outer loop
vertex 0.6568850984205942 2 0.7483226510722908
vertex 0.7071067811865476 2 0.7071067811865475
vertex 0.7651375350036398 2 0.6363961030678928
endloop
endfacet
facet normal 0 1 0
outer loop
vertex 0.6568850984205942 2 0.7483226510722908
vertex 0.7651375350036398 2 0.6363961030678928
vertex 0.6363961030678928 2 0.6363961030678927
endloop
endfacet
facet normal 0 1 0
outer loop
vertex 0.6568850984205942 2 0.7483226510722908
vertex 0.6363961030678928 2 0.6363961030678927
vertex 0.5000132097176421 2 0.7483226510722907
endloop
endfacet
facet normal 0 1 0
outer loop
vertex -0.6363961030678927 2 0.6363961030678928
vertex -0.7483226510722908 2 0.500013209717642
vertex -0.8611654599377208 2 0.500013209717642
endloop
endfacet
facet normal 0 1 0
outer loop
vertex -0.6363961030678927 2 0.6363961030678928
vertex -0.8611654599377208 2 0.500013209717642
vertex -0.8314696123025453 2 0.5555702330196022
endloop
endfacet
facet normal 0 1 0
outer loop
vertex -0.6363961030678927 2 0.6363961030678928
vertex -0.8314696123025453 2 0.5555702330196022
vertex -0.7651375350036398 2 0.6363961030678928
endloop
endfacet
facet normal 0 1 0
outer loop
vertex 0.7651375350036398 2 0.6363961030678928
vertex 0.8314696123025452 2 0.5555702330196022
vertex 0.8611654599377205 2 0.500013209717642
endloop
endfacet
facet normal 0 1 0
outer loop
vertex 0.7651375350036398 2 0.6363961030678928
vertex 0.8611654599377205 2 0.500013209717642
vertex 0.7483226510722907 2 0.500013209717642
endloop
endfacet
facet normal 0 1 0
outer loop
vertex 0.7651375350036398 2 0.6363961030678928
vertex 0.7483226510722907 2 0.500013209717642
vertex 0.6363961030678928 2 0.6363961030678927
endloop
endfacet
facet normal 0 1 0
outer loop
vertex -0.7483226510722908 2 0.500013209717642
vertex -0.831491579260158 2 0.34441508912858093
vertex -0.9354881075192293 2 0.34441508912858093
endloop
endfacet
facet normal 0 1 0
outer loop
vertex -0.7483226510722908 2 0.500013209717642
vertex -0.9354881075192293 2 0.34441508912858093
vertex -0.9238795325112867 2 0.3826834323650899
endloop
endfacet
facet normal 0 1 0
outer loop
vertex -0.7483226510722908 2 0.500013209717642
vertex -0.9238795325112867 2 0.3826834323650899
vertex -0.8611654599377208 2 0.500013209717642
endloop
endfacet
facet normal 0 1 0
outer loop
vertex 0.8611654599377205 2 0.500013209717642
vertex 0.9238795325112867 2 0.3826834323650898
vertex 0.9354881075192292 2 0.34441508912858093
endloop
endfacet
facet normal 0 1 0
outer loop
vertex 0.8611654599377205 2 0.500013209717642
vertex 0.9354881075192292 2 0.34441508912858093
vertex 0.831491579260158 2 0.3444150891285808
endloop
endfacet
facet normal 0 1 0
outer loop
vertex 0.8611654599377205 2 0.500013209717642
vertex 0.831491579260158 2 0.3444150891285808
vertex 0.7483226510722907 2 0.500013209717642
endloop
endfacet
facet normal 0 1 0
outer loop
vertex -0.831491579260158 2 0.34441508912858093
vertex -0.8827067523629074 2 0.17558128981451576
vertex -0.9827067523629074 2 0.17558128981451576
endloop
endfacet
facet normal 0 1 0
outer loop
vertex -0.831491579260158 2 0.34441508912858093
vertex -0.9827067523629074 2 0.17558128981451576
vertex -0.9807852804032304 2 0.1950903220161286
endloop
endfacet
facet normal 0 1 0
outer loop
vertex -0.831491579260158 2 0.34441508912858093
vertex -0.9807852804032304 2 0.1950903220161286
vertex -0.9354881075192293 2 0.34441508912858093
endloop
endfacet
facet normal 0 1 0
outer loop
vertex 0.9354881075192292 2 0.34441508912858093
vertex 0.9807852804032304 2 0.19509032201612825
vertex 0.9827067523629074 2 0.17558128981451576
endloop
endfacet
facet normal 0 1 0
outer loop
vertex 0.9354881075192292 2 0.34441508912858093
vertex 0.9827067523629074 2 0.17558128981451576
vertex 0.8827067523629074 2 0.17558128981451543
endloop
endfacet
facet normal 0 1 0
outer loop
vertex 0.9354881075192292 2 0.34441508912858093
vertex 0.8827067523629074 2 0.17558128981451543
vertex 0.831491579260158 2 0.3444150891285808
endloop
endfacet
facet normal 0 1 0
outer loop
vertex -0.8827067523629074 2 0.17558128981451576
vertex -0.9 2 1.1021821192326179e-16
vertex -1 2 1.2246467991473532e-16
endloop
endfacet
facet normal 0 1 0
outer loop
vertex -0.8827067523629074 2 0.17558128981451576
vertex -1 2 1.2246467991473532e-16
vertex -0.9827067523629074 2 0.17558128981451576
endloop
endfacet
facet normal 0 1 0
outer loop
vertex 0.9827067523629074 2 0.17558128981451576
vertex 1 2 1.1021821192326179e-16
vertex 0.9 2 0
endloop
endfacet
facet normal 0 1 0
outer loop
vertex 0.9827067523629074 2 0.17558128981451576
vertex 0.9 2 0
vertex 0.8827067523629074 2 0.17558128981451543
endloop
endfacet
facet normal 0 1 0
outer loop
vertex -0.9 2 1.1021821192326179e-16
vertex -0.8827067523629073 2 -0.17558128981451593
vertex -0.9827067523629073 2 -0.17558128981451593
endloop
endfacet
facet normal 0 1 0
outer loop
vertex -0.9 2 1.1021821192326179e-16
vertex -0.9827067523629073 2 -0.17558128981451593
vertex -1 2 1.2246467991473532e-16
endloop
endfacet
facet normal 0 1 0
outer loop
vertex 1 2 1.1021821192326179e-16
vertex 0.9827067523629073 2 -0.17558128981451593
vertex 0.8827067523629073 2 -0.17558128981451585
endloop
endfacet
facet normal 0 1 0
outer loop
vertex 1 2 1.1021821192326179e-16
vertex 0.8827067523629073 2 -0.17558128981451585
vertex 0.9 2 0
endloop
endfacet
facet normal 0 1 0
outer loop
vertex -0.8827067523629073 2 -0.17558128981451593
vertex -0.8314915792601583 2 -0.3444150891285803
vertex -0.9354881075192294 2 -0.3444150891285803
endloop
endfacet
facet normal 0 1 0
outer loop
vertex -0.8827067523629073 2 -0.17558128981451593
vertex -0.9354881075192294 2 -0.3444150891285803
vertex -0.9807852804032303 2 -0.1950903220161288
endloop
endfacet
facet normal 0 1 0
outer loop
vertex -0.8827067523629073 2 -0.17558128981451593
vertex -0.9807852804032303 2 -0.1950903220161288
vertex -0.9827067523629073 2 -0.17558128981451593
endloop
endfacet
facet normal 0 1 0
outer loop
vertex 0.9827067523629073 2 -0.17558128981451593
vertex 0.9807852804032303 2 -0.19509032201612872
vertex 0.9354881075192294 2 -0.3444150891285803
endloop
endfacet
facet normal 0 1 0
outer loop
vertex 0.9827067523629073 2 -0.17558128981451593
vertex 0.9354881075192294 2 -0.3444150891285803
vertex 0.8314915792601579 2 -0.3444150891285814
endloop
endfacet
facet normal 0 1 0
outer loop
vertex 0.9827067523629073 2 -0.17558128981451593
vertex 0.8314915792601579 2 -0.3444150891285814
vertex 0.8827067523629073 2 -0.17558128981451585
endloop
endfacet
facet normal 0 1 0
outer loop
vertex -0.8314915792601583 2 -0.3444150891285803
vertex -0.7483226510722911 2 -0.5000132097176414
vertex -0.8611654599377209 2 -0.5000132097176414
endloop
endfacet
facet normal 0 1 0
outer loop
vertex -0.8314915792601583 2 -0.3444150891285803
vertex -0.8611654599377209 2 -0.5000132097176414
vertex -0.923879532511287 2 -0.3826834323650892
endloop
endfacet
facet normal 0 1 0
outer loop
vertex -0.8314915792601583 2 -0.3444150891285803
vertex -0.923879532511287 2 -0.3826834323650892
vertex -0.9354881075192294 2 -0.3444150891285803
endloop
endfacet
facet normal 0 1 0
outer loop
vertex 0.9354881075192294 2 -0.3444150891285803
vertex 0.9238795325112865 2 -0.3826834323650904
vertex 0.8611654599377208 2 -0.5000132097176414
endloop
endfacet
facet normal 0 1 0
outer loop
vertex 0.9354881075192294 2 -0.3444150891285803
vertex 0.8611654599377208 2 -0.5000132097176414
vertex 0.7483226510722907 2 -0.500013209717642
endloop
endfacet
facet normal 0 1 0
outer loop
vertex 0.9354881075192294 2 -0.3444150891285803
vertex 0.7483226510722907 2 -0.500013209717642
vertex 0.8314915792601579 2 -0.3444150891285814
endloop
endfacet
facet normal 0 1 0
outer loop
vertex -0.7483226510722911 2 -0.5000132097176414
vertex -0.636396103067893 2 -0.6363961030678927
vertex -0.7651375350036399 2 -0.6363961030678927
endloop
endfacet
facet normal 0 1 0
outer loop
vertex -0.7483226510722911 2 -0.5000132097176414
vertex -0.7651375350036399 2 -0.6363961030678927
vertex -0.8314696123025457 2 -0.5555702330196015
endloop
endfacet
facet normal 0 1 0
outer loop
vertex -0.7483226510722911 2 -0.5000132097176414
vertex -0.8314696123025457 2 -0.5555702330196015
vertex -0.8611654599377209 2 -0.5000132097176414
endloop
endfacet
facet normal 0 1 0
outer loop
vertex 0.8611654599377208 2 -0.5000132097176414
vertex 0.8314696123025452 2 -0.5555702330196022
vertex 0.7651375350036398 2 -0.6363961030678927
endloop
endfacet
facet normal 0 1 0
outer loop
vertex 0.8611654599377208 2 -0.5000132097176414
vertex 0.7651375350036398 2 -0.6363961030678927
vertex 0.6363961030678926 2 -0.636396103067893
endloop
endfacet
facet normal 0 1 0
outer loop
vertex 0.8611654599377208 2 -0.5000132097176414
vertex 0.6363961030678926 2 -0.636396103067893
vertex 0.7483226510722907 2 -0.500013209717642
endloop
endfacet
facet normal 0 1 0
outer loop
vertex -0.636396103067893 2 -0.6363961030678927
vertex -0.500013209717642 2 -0.7483226510722907
vertex -0.6568850984205941 2 -0.7483226510722907
endloop
endfacet
facet normal 0 1 0
outer loop
vertex -0.636396103067893 2 -0.6363961030678927
vertex -0.6568850984205941 2 -0.7483226510722907
vertex -0.7071067811865477 2 -0.7071067811865475
endloop
endfacet
facet normal 0 1 0
outer loop
vertex -0.636396103067893 2 -0.6363961030678927
vertex -0.7071067811865477 2 -0.7071067811865475
vertex -0.7651375350036399 2 -0.6363961030678927
endloop
endfacet
facet normal 0 1 0
outer loop
vertex 0.7651375350036398 2 -0.6363961030678927
vertex 0.7071067811865474 2 -0.7071067811865477
vertex 0.656885098420594 2 -0.7483226510722907
endloop
endfacet
facet normal 0 1 0
outer loop
vertex 0.7651375350036398 2 -0.6363961030678927
vertex 0.656885098420594 2 -0.7483226510722907
vertex 0.5000132097176416 2 -0.7483226510722909
endloop
endfacet
facet normal 0 1 0
outer loop
vertex 0.7651375350036398 2 -0.6363961030678927
vertex 0.5000132097176416 2 -0.7483226510722909
vertex 0.6363961030678926 2 -0.636396103067893
endloop
endfacet
facet normal 0 1 0
outer loop
vertex -0.500013209717642 2 -0.7483226510722907
vertex -0.3444150891285813 2 -0.8314915792601579
vertex -0.5555291357325018 2 -0.8314915792601579
endloop
endfacet
facet normal 0 1 0
outer loop
vertex -0.500013209717642 2 -0.7483226510722907
vertex -0.5555291357325018 2 -0.8314915792601579
vertex -0.5555702330196022 2 -0.8314696123025452
endloop
endfacet
facet normal 0 1 0
outer loop
vertex -0.500013209717642 2 -0.7483226510722907
vertex -0.5555702330196022 2 -0.8314696123025452
vertex -0.6568850984205941 2 -0.7483226510722907
endloop
endfacet
facet normal 0 1 0
outer loop
vertex 0.656885098420594 2 -0.7483226510722907
vertex 0.5555702330196018 2 -0.8314696123025455
vertex 0.5555291357325015 2 -0.8314915792601579
endloop
endfacet
facet normal 0 1 0
outer loop
vertex 0.656885098420594 2 -0.7483226510722907
vertex 0.5555291357325015 2 -0.8314915792601579
vertex 0.344415089128581 2 -0.8314915792601579
endloop
endfacet
facet normal 0 1 0
outer loop
vertex 0.656885098420594 2 -0.7483226510722907
vertex 0.344415089128581 2 -0.8314915792601579
vertex 0.5000132097176416 2 -0.7483226510722909
endloop
endfacet
facet normal 0 1 0
outer loop
vertex -0.3444150891285813 2 -0.8314915792601579
vertex -0.1755812898145158 2 -0.8827067523629073
vertex -0.459712286170242 2 -0.8827067523629073
endloop
endfacet
facet normal 0 1 0
outer loop
vertex -0.3444150891285813 2 -0.8314915792601579
vertex -0.459712286170242 2 -0.8827067523629073
vertex -0.5555291357325018 2 -0.8314915792601579
endloop
endfacet
facet normal 0 1 0
outer loop
vertex 0.5555291357325015 2 -0.8314915792601579
vertex 0.45971228617024185 2 -0.8827067523629073
vertex 0.17558128981451548 2 -0.8827067523629074
endloop
endfacet
facet normal 0 1 0
outer loop
vertex 0.5555291357325015 2 -0.8314915792601579
vertex 0.17558128981451548 2 -0.8827067523629074
vertex 0.344415089128581 2 -0.8314915792601579
endloop
endfacet
facet normal 0 1 0
outer loop
vertex -0.1755812898145158 2 -0.8827067523629073
vertex -1.6532731788489269e-16 2 -0.9
vertex -0.4273588954287538 2 -0.9
endloop
endfacet
facet normal 0 1 0
outer loop
vertex -0.1755812898145158 2 -0.8827067523629073
vertex -0.4273588954287538 2 -0.9
vertex -0.459712286170242 2 -0.8827067523629073
endloop
endfacet
facet normal 0 1 0
outer loop
vertex 0.45971228617024185 2 -0.8827067523629073
vertex 0.4273588954287535 2 -0.9
vertex -1.6532731788489269e-16 2 -0.9
endloop
endfacet
facet normal 0 1 0
outer loop
vertex 0.45971228617024185 2 -0.8827067523629073
vertex -1.6532731788489269e-16 2 -0.9
vertex 0.17558128981451548 2 -0.8827067523629074
endloop
endfacet
facet normal 0 1 0
outer loop
vertex 0.4273588954287535 2 -0.9
vertex 0.38268343236509 2 -0.9238795325112866
vertex 0.1950903220161283 2 -0.9807852804032304
endloop
endfacet
facet normal 0 1 0
outer loop
vertex 0.4273588954287535 2 -0.9
vertex 0.1950903220161283 2 -0.9807852804032304
vertex -1.8369701987210297e-16 2 -1
endloop
endfacet
facet normal 0 1 0
outer loop
vertex 0.4273588954287535 2 -0.9
vertex -1.8369701987210297e-16 2 -1
vertex -0.19509032201612866 2 -0.9807852804032303
endloop
endfacet
facet normal 0 1 0
outer loop
vertex 0.4273588954287535 2 -0.9
vertex -0.19509032201612866 2 -0.9807852804032303
vertex -0.38268343236509034 2 -0.9238795325112865
endloop
endfacet
facet normal 0 1 0
outer loop
vertex 0.4273588954287535 2 -0.9
vertex -0.38268343236509034 2 -0.9238795325112865
vertex -0.4273588954287538 2 -0.9
endloop
endfacet
facet normal 0.9951847266721969 0 0.09801714032956071
outer loop
vertex 0.9901508596642837 0.0009700556535263975 0.1
vertex 0.9901508596642837 0 0.1
vertex 1 0 0
endloop
endfacet
facet normal 0.9951847266721969 0 0.09801714032956071
outer loop
vertex 1.0000000000000002 1.9000000000000012 0
vertex 0.9901508596642837 1.8990299443464749 0.1
vertex 0.9901508596642837 0.10097005565352629 0.1
endloop
endfacet
facet normal 0.9951847266721969 0 0.09801714032956071
outer loop
vertex 1.0000000000000002 1.9000000000000012 0
vertex 0.9901508596642837 0.10097005565352629 0.1
vertex 1.0000000000000002 0.09999999999999994 0
endloop
endfacet
facet normal 0.9951847266721969 0 0.09801714032956071
outer loop
vertex 0.9901508596642837 2.000000000000001 0.1
vertex 0.9901508596642837 1.9990299443464745 0.1
vertex 1 2 1.1021821192326179e-16
endloop
endfacet
facet normal 0.9951847266721969 0 0.09801714032956071
outer loop
vertex 0.9901508596642837 2.000000000000001 0.1
vertex 0.9807852804032304 2 0.19509032201612825
vertex 0.9807852804032304 0 0.19509032201612825
endloop
endfacet
facet normal 0.9951847266721969 0 0.09801714032956071
outer loop
vertex 0.9901508596642837 2.000000000000001 0.1
vertex 0.9807852804032304 0 0.19509032201612825
vertex 0.9901508596642837 0 0.1
endloop
endfacet
facet normal 0.9951847266721968 0 -0.09801714032956114
outer loop
vertex 0.9807852804032303 2 -0.19509032201612872
vertex 0.9901508596642835 2 -0.1
vertex 0.9901508596642835 0 -0.1
endloop
endfacet
facet normal 0.9951847266721968 0 -0.09801714032956114
outer loop
vertex 0.9807852804032303 2 -0.19509032201612872
vertex 0.9901508596642835 0 -0.1
vertex 0.9807852804032303 0 -0.1950903220161288
endloop
endfacet
facet normal 0.9951847266721968 0 -0.09801714032956114
outer loop
vertex 0.9901508596642835 0.0009700556535263919 -0.1
vertex 1 0 0
vertex 0.9901508596642835 0 -0.1
endloop
endfacet
facet normal 0.9951847266721968 0 -0.09801714032956114
outer loop
vertex 0.9901508596642835 1.8990299443464735 -0.1
vertex 1.0000000000000002 1.9000000000000012 0
vertex 1.0000000000000002 0.09999999999999994 0
endloop
endfacet
facet normal 0.9951847266721968 0 -0.09801714032956114
outer loop
vertex 0.9901508596642835 1.8990299443464735 -0.1
vertex 1.0000000000000002 0.09999999999999994 0
vertex 0.9901508596642835 0.10097005565352629 -0.1
endloop
endfacet
facet normal 0.9951847266721968 0 -0.09801714032956114
outer loop
vertex 0.9901508596642835 2 -0.1
vertex 1 2 1.1021821192326179e-16
vertex 0.9901508596642835 1.9990299443464736 -0.1
endloop
endfacet
facet normal 0.9951847266721969 0.0980171403295609 0
outer loop
vertex 1.9807852804032304 1.1950903220161282 0.1
vertex 2 1 0.1
vertex 2 1 -0.1
endloop
endfacet
facet normal 0.9951847266721969 0.0980171403295609 0
outer loop
vertex 1.9807852804032304 1.1950903220161282 0.1
vertex 2 1 -0.1
vertex 1.9807852804032304 1.1950903220161282 -0.1
endloop
endfacet
facet normal 0.9569403357322089 0.2902846772544625 0
outer loop
vertex 1.9238795325112867 1.3826834323650898 0.1
vertex 1.9807852804032304 1.1950903220161282 0.1
vertex 1.9807852804032304 1.1950903220161282 -0.1
endloop
endfacet
facet normal 0.9569403357322089 0.2902846772544625 0
outer loop
vertex 1.9238795325112867 1.3826834323650898 0.1
vertex 1.9807852804032304 1.1950903220161282 -0.1
vertex 1.9238795325112867 1.3826834323650898 -0.1
endloop
endfacet
facet normal 0.8819212643483552 0.4713967368259976 0
outer loop
vertex 1.8314696123025453 1.5555702330196022 0.1
vertex 1.9238795325112867 1.3826834323650898 0.1
vertex 1.9238795325112867 1.3826834323650898 -0.1
endloop
endfacet
facet normal 0.8819212643483552 0.4713967368259976 0
outer loop
vertex 1.8314696123025453 1.5555702330196022 0.1
vertex 1.9238795325112867 1.3826834323650898 -0.1
vertex 1.8314696123025453 1.5555702330196022 -0.1
endloop
endfacet
facet normal 0.7730104533627371 0.6343932841636454 0
outer loop
vertex 1.7071067811865475 1.7071067811865475 0.1
vertex 1.8314696123025453 1.5555702330196022 0.1
vertex 1.8314696123025453 1.5555702330196022 -0.1
endloop
endfacet
facet normal 0.7730104533627371 0.6343932841636454 0
outer loop
vertex 1.7071067811865475 1.7071067811865475 0.1
vertex 1.8314696123025453 1.5555702330196022 -0.1
vertex 1.7071067811865475 1.7071067811865475 -0.1
endloop
endfacet
facet normal 0.6343932841636457 0.7730104533627369 0
outer loop
vertex 1.5555702330196022 1.8314696123025453 0.1
vertex 1.7071067811865475 1.7071067811865475 0.1
vertex 1.7071067811865475 1.7071067811865475 -0.1
endloop
endfacet
facet normal 0.6343932841636457 0.7730104533627369 0
outer loop
vertex 1.5555702330196022 1.8314696123025453 0.1
vertex 1.7071067811865475 1.7071067811865475 -0.1
vertex 1.5555702330196022 1.8314696123025453 -0.1
endloop
endfacet
facet normal 0.47139673682599775 0.881921264348355 0
outer loop
vertex 1.3826834323650898 1.9238795325112867 0.1
vertex 1.5555702330196022 1.8314696123025453 0.1
vertex 1.5555702330196022 1.8314696123025453 -0.1
endloop
endfacet
facet normal 0.47139673682599775 0.881921264348355 0
outer loop
vertex 1.3826834323650898 1.9238795325112867 0.1
vertex 1.5555702330196022 1.8314696123025453 -0.1
vertex 1.3826834323650898 1.9238795325112867 -0.1
endloop
endfacet
facet normal 0.2902846772544622 0.956940335732209 0
outer loop
vertex 1.1950903220161284 1.9807852804032304 0.1
vertex 1.3826834323650898 1.9238795325112867 0.1
vertex 1.3826834323650898 1.9238795325112867 -0.1
endloop
endfacet
facet normal 0.2902846772544622 0.956940335732209 0
outer loop
vertex 1.1950903220161284 1.9807852804032304 0.1
vertex 1.3826834323650898 1.9238795325112867 -0.1
vertex 1.1950903220161284 1.9807852804032304 -0.1
endloop
endfacet
facet normal 0.09801714032956044 0.9951847266721969 0
outer loop
vertex 1 2 0.1
vertex 1.1950903220161284 1.9807852804032304 0.1
vertex 1.1950903220161284 1.9807852804032304 -0.1
endloop
endfacet
facet normal 0.09801714032956044 0.9951847266721969 0
outer loop
vertex 1 2 0.1
vertex 1.1950903220161284 1.9807852804032304 -0.1
vertex 1 2 -0.1
endloop
endfacet
facet normal 0.09801714032956055 -0.995184726672197 0
outer loop
vertex 1.1950903220161284 0.01921471959676957 0.1
vertex 0.9999999999999998 0 0.1
vertex 0.9999999999999998 0 -0.1
endloop
endfacet
facet normal 0.09801714032956055 -0.995184726672197 0
outer loop
vertex 1.1950903220161284 0.01921471959676957 0.1
vertex 0.9999999999999998 0 -0.1
vertex 1.1950903220161284 0.01921471959676957 -0.1
endloop
endfacet
facet normal 0.2902846772544626 -0.9569403357322088 0
outer loop
vertex 1.38268343236509 0.07612046748871337 0.1
vertex 1.1950903220161284 0.01921471959676957 0.1
vertex 1.1950903220161284 0.01921471959676957 -0.1
endloop
endfacet
facet normal 0.2902846772544626 -0.9569403357322088 0
outer loop
vertex 1.38268343236509 0.07612046748871337 0.1
vertex 1.1950903220161284 0.01921471959676957 -0.1
vertex 1.38268343236509 0.07612046748871337 -0.1
endloop
endfacet
facet normal 0.47139673682599753 -0.8819212643483552 0
outer loop
vertex 1.5555702330196017 0.16853038769745454 0.1
vertex 1.38268343236509 0.07612046748871337 0.1
vertex 1.38268343236509 0.07612046748871337 -0.1
endloop
endfacet
facet normal 0.47139673682599753 -0.8819212643483552 0
outer loop
vertex 1.5555702330196017 0.16853038769745454 0.1
vertex 1.38268343236509 0.07612046748871337 -0.1
vertex 1.5555702330196017 0.16853038769745454 -0.1
endloop
endfacet
facet normal 0.6343932841636452 -0.7730104533627373 0
outer loop
vertex 1.7071067811865475 0.2928932188134523 0.1
vertex 1.5555702330196017 0.16853038769745454 0.1
vertex 1.5555702330196017 0.16853038769745454 -0.1
endloop
endfacet
facet normal 0.6343932841636452 -0.7730104533627373 0
outer loop
vertex 1.7071067811865475 0.2928932188134523 0.1
vertex 1.5555702330196017 0.16853038769745454 -0.1
vertex 1.7071067811865475 0.2928932188134523 -0.1
endloop
endfacet
facet normal 0.7730104533627369 -0.6343932841636457 0
outer loop
vertex 1.8314696123025453 0.4444297669803978 0.1
vertex 1.7071067811865475 0.2928932188134523 0.1
vertex 1.7071067811865475 0.2928932188134523 -0.1
endloop
endfacet
facet normal 0.7730104533627369 -0.6343932841636457 0
outer loop
vertex 1.8314696123025453 0.4444297669803978 0.1
vertex 1.7071067811865475 0.2928932188134523 -0.1
vertex 1.8314696123025453 0.4444297669803978 -0.1
endloop
endfacet
facet normal 0.8819212643483549 -0.47139673682599803 0
outer loop
vertex 1.9238795325112865 0.6173165676349096 0.1
vertex 1.8314696123025453 0.4444297669803978 0.1
vertex 1.8314696123025453 0.4444297669803978 -0.1
endloop
endfacet
facet normal 0.8819212643483549 -0.47139673682599803 0
outer loop
vertex 1.9238795325112865 0.6173165676349096 0.1
vertex 1.8314696123025453 0.4444297669803978 -0.1
vertex 1.9238795325112865 0.6173165676349096 -0.1
endloop
endfacet
facet normal 0.9569403357322088 -0.29028467725446255 0
outer loop
vertex 1.9807852804032304 0.8049096779838713 0.1
vertex 1.9238795325112865 0.6173165676349096 0.1
vertex 1.9238795325112865 0.6173165676349096 -0.1
endloop
endfacet
facet normal 0.9569403357322088 -0.29028467725446255 0
outer loop
vertex 1.9807852804032304 0.8049096779838713 0.1
vertex 1.9238795325112865 0.6173165676349096 -0.1
vertex 1.9807852804032304 0.8049096779838713 -0.1
endloop
endfacet
facet normal 0.9951847266721969 -0.09801714032956133 0
outer loop
vertex 2 1 0.1
vertex 1.9807852804032304 0.8049096779838713 0.1
vertex 1.9807852804032304 0.8049096779838713 -0.1
endloop
endfacet
facet normal 0.9951847266721969 -0.09801714032956133 0
outer loop
vertex 2 1 0.1
vertex 1.9807852804032304 0.8049096779838713 -0.1
vertex 2 1 -0.1
endloop
endfacet
facet normal -0.9951847266721969 -0.09801714032956069 0
outer loop
vertex 1.8827067523629073 1.1755812898145155 -0.1
vertex 1.9 1 -0.1
vertex 1.9 1 0.1
endloop
endfacet
facet normal -0.9951847266721969 -0.09801714032956069 0
outer loop
vertex 1.8827067523629073 1.1755812898145155 -0.1
vertex 1.9 1 0.1
vertex 1.8827067523629073 1.1755812898145155 0.1
endloop
endfacet
facet normal -0.9569403357322089 -0.29028467725446233 0
outer loop
vertex 1.831491579260158 1.3444150891285809 -0.1
vertex 1.8827067523629073 1.1755812898145155 -0.1
vertex 1.8827067523629073 1.1755812898145155 0.1
endloop
endfacet
facet normal -0.9569403357322089 -0.29028467725446233 0
outer loop
vertex 1.831491579260158 1.3444150891285809 -0.1
vertex 1.8827067523629073 1.1755812898145155 0.1
vertex 1.831491579260158 1.3444150891285809 0.1
endloop
endfacet
facet normal -0.8819212643483552 -0.4713967368259976 0
outer loop
vertex 1.7483226510722907 1.500013209717642 -0.1
vertex 1.831491579260158 1.3444150891285809 -0.1
vertex 1.831491579260158 1.3444150891285809 0.1
endloop
endfacet
facet normal -0.8819212643483552 -0.4713967368259976 0
outer loop
vertex 1.7483226510722907 1.500013209717642 -0.1
vertex 1.831491579260158 1.3444150891285809 0.1
vertex 1.7483226510722907 1.500013209717642 0.1
endloop
endfacet
facet normal -0.7730104533627372 -0.6343932841636454 0
outer loop
vertex 1.6363961030678928 1.6363961030678928 -0.1
vertex 1.7483226510722907 1.500013209717642 -0.1
vertex 1.7483226510722907 1.500013209717642 0.1
endloop
endfacet
facet normal -0.7730104533627372 -0.6343932841636454 0
outer loop
vertex 1.6363961030678928 1.6363961030678928 -0.1
vertex 1.7483226510722907 1.500013209717642 0.1
vertex 1.6363961030678928 1.6363961030678928 0.1
endloop
endfacet
facet normal -0.6343932841636457 -0.7730104533627369 0
outer loop
vertex 1.500013209717642 1.7483226510722907 -0.1
vertex 1.6363961030678928 1.6363961030678928 -0.1
vertex 1.6363961030678928 1.6363961030678928 0.1
endloop
endfacet
facet normal -0.6343932841636457 -0.7730104533627369 0
outer loop
vertex 1.500013209717642 1.7483226510722907 -0.1
vertex 1.6363961030678928 1.6363961030678928 0.1
vertex 1.500013209717642 1.7483226510722907 0.1
endloop
endfacet
facet normal -0.4713967368259975 -0.8819212643483552 0
outer loop
vertex 1.3444150891285809 1.831491579260158 -0.1
vertex 1.500013209717642 1.7483226510722907 -0.1
vertex 1.500013209717642 1.7483226510722907 0.1
endloop
endfacet
facet normal -0.4713967368259975 -0.8819212643483552 0
outer loop
vertex 1.3444150891285809 1.831491579260158 -0.1
vertex 1.500013209717642 1.7483226510722907 0.1
vertex 1.3444150891285809 1.831491579260158 0.1
endloop
endfacet
facet normal -0.2902846772544622 -0.9569403357322088 0
outer loop
vertex 1.1755812898145155 1.8827067523629073 -0.1
vertex 1.3444150891285809 1.831491579260158 -0.1
vertex 1.3444150891285809 1.831491579260158 0.1
endloop
endfacet
facet normal -0.2902846772544622 -0.9569403357322088 0
outer loop
vertex 1.1755812898145155 1.8827067523629073 -0.1
vertex 1.3444150891285809 1.831491579260158 0.1
vertex 1.1755812898145155 1.8827067523629073 0.1
endloop
endfacet
facet normal -0.09801714032956044 -0.995184726672197 0
outer loop
vertex 1 1.9 -0.1
vertex 1.1755812898145155 1.8827067523629073 -0.1
vertex 1.1755812898145155 1.8827067523629073 0.1
endloop
endfacet
facet normal -0.09801714032956044 -0.995184726672197 0
outer loop
vertex 1 1.9 -0.1
vertex 1.1755812898145155 1.8827067523629073 0.1
vertex 1 1.9 0.1
endloop
endfacet
facet normal -0.09801714032956055 0.9951847266721969 0
outer loop
vertex 1.1755812898145155 0.11729324763709259 -0.1
vertex 0.9999999999999999 0.09999999999999998 -0.1
vertex 0.9999999999999999 0.09999999999999998 0.1
endloop
endfacet
facet normal -0.09801714032956055 0.9951847266721969 0
outer loop
vertex 1.1755812898145155 0.11729324763709259 -0.1
vertex 0.9999999999999999 0.09999999999999998 0.1
vertex 1.1755812898145155 0.11729324763709259 0.1
endloop
endfacet
facet normal -0.29028467725446255 0.9569403357322088 0
outer loop
vertex 1.344415089128581 0.16850842073984207 -0.1
vertex 1.1755812898145155 0.11729324763709259 -0.1
vertex 1.1755812898145155 0.11729324763709259 0.1
endloop
endfacet
facet normal -0.29028467725446255 0.9569403357322088 0
outer loop
vertex 1.344415089128581 0.16850842073984207 -0.1
vertex 1.1755812898145155 0.11729324763709259 0.1
vertex 1.344415089128581 0.16850842073984207 0.1
endloop
endfacet
facet normal -0.4713967368259976 0.8819212643483552 0
outer loop
vertex 1.5000132097176415 0.2516773489277091 -0.1
vertex 1.344415089128581 0.16850842073984207 -0.1
vertex 1.344415089128581 0.16850842073984207 0.1
endloop
endfacet
facet normal -0.4713967368259976 0.8819212643483552 0
outer loop
vertex 1.5000132097176415 0.2516773489277091 -0.1
vertex 1.344415089128581 0.16850842073984207 0.1
vertex 1.5000132097176415 0.2516773489277091 0.1
endloop
endfacet
facet normal -0.634393284163645 0.7730104533627373 0
outer loop
vertex 1.6363961030678926 0.36360389693210704 -0.1
vertex 1.5000132097176415 0.2516773489277091 -0.1
vertex 1.5000132097176415 0.2516773489277091 0.1
endloop
endfacet
facet normal -0.634393284163645 0.7730104533627373 0
outer loop
vertex 1.6363961030678926 0.36360389693210704 -0.1
vertex 1.5000132097176415 0.2516773489277091 0.1
vertex 1.6363961030678926 0.36360389693210704 0.1
endloop
endfacet
facet normal -0.773010453362737 0.6343932841636455 0
outer loop
vertex 1.7483226510722907 0.49998679028235804 -0.1
vertex 1.6363961030678926 0.36360389693210704 -0.1
vertex 1.6363961030678926 0.36360389693210704 0.1
endloop
endfacet
facet normal -0.773010453362737 0.6343932841636455 0
outer loop
vertex 1.7483226510722907 0.49998679028235804 -0.1
vertex 1.6363961030678926 0.36360389693210704 0.1
vertex 1.7483226510722907 0.49998679028235804 0.1
endloop
endfacet
facet normal -0.8819212643483549 0.47139673682599803 0
outer loop
vertex 1.8314915792601578 0.6555849108714187 -0.1
vertex 1.7483226510722907 0.49998679028235804 -0.1
vertex 1.7483226510722907 0.49998679028235804 0.1
endloop
endfacet
facet normal -0.8819212643483549 0.47139673682599803 0
outer loop
vertex 1.8314915792601578 0.6555849108714187 -0.1
vertex 1.7483226510722907 0.49998679028235804 0.1
vertex 1.8314915792601578 0.6555849108714187 0.1
endloop
endfacet
facet normal -0.9569403357322088 0.2902846772544627 0
outer loop
vertex 1.8827067523629073 0.8244187101854842 -0.1
vertex 1.8314915792601578 0.6555849108714187 -0.1
vertex 1.8314915792601578 0.6555849108714187 0.1
endloop
endfacet
facet normal -0.9569403357322088 0.2902846772544627 0
outer loop
vertex 1.8827067523629073 0.8244187101854842 -0.1
vertex 1.8314915792601578 0.6555849108714187 0.1
vertex 1.8827067523629073 0.8244187101854842 0.1
endloop
endfacet
facet normal -0.9951847266721968 0.09801714032956133 0
outer loop
vertex 1.9 1 -0.1
vertex 1.8827067523629073 0.8244187101854842 -0.1
vertex 1.8827067523629073 0.8244187101854842 0.1
endloop
endfacet
facet normal -0.9951847266721968 0.09801714032956133 0
outer loop
vertex 1.9 1 -0.1
vertex 1.8827067523629073 0.8244187101854842 0.1
vertex 1.9 1 0.1
endloop
endfacet
facet normal 0 0 1
outer loop
vertex 1.1950903220161284 0.01921471959676957 0.1
vertex 1.38268343236509 0.07612046748871337 0.1
vertex 1.4273588954287535 0.09999999999999987 0.1
endloop
endfacet
facet normal 0 0 1
outer loop
vertex 1.1950903220161284 0.01921471959676957 0.1
vertex 1.4273588954287535 0.09999999999999987 0.1
vertex 0.9901508596642835 0.09999999999999987 0.1
endloop
endfacet
facet normal 0 0 1
outer loop
vertex 1.1950903220161284 0.01921471959676957 0.1
vertex 0.9901508596642835 0.09999999999999987 0.1
vertex 0.9901508596642837 0.0009700556535263975 0.1
endloop
endfacet
facet normal 0 0 1
outer loop
vertex 1.1950903220161284 0.01921471959676957 0.1
vertex 0.9901508596642837 0.0009700556535263975 0.1
vertex 0.9999999999999998 0 0.1
endloop
endfacet
facet normal 0 0 1
outer loop
vertex 0.9999999999999999 0.09999999999999998 0.1
vertex 0.9901508596642837 0.10097005565352629 0.1
vertex 0.9901508596642835 0.09999999999999987 0.1
endloop
endfacet
facet normal 0 0 1
outer loop
vertex 1.4273588954287535 0.09999999999999987 0.1
vertex 1.459712286170242 0.1172932476370927 0.1
vertex 1.1755812898145155 0.11729324763709259 0.1
endloop
endfacet
facet normal 0 0 1
outer loop
vertex 1.4273588954287535 0.09999999999999987 0.1
vertex 1.1755812898145155 0.11729324763709259 0.1
vertex 0.9999999999999999 0.09999999999999998 0.1
endloop
endfacet
facet normal 0 0 1
outer loop
vertex 1.459712286170242 0.1172932476370927 0.1
vertex 1.555529135732501 0.16850842073984196 0.1
vertex 1.344415089128581 0.16850842073984207 0.1
endloop
endfacet
facet normal 0 0 1
outer loop
vertex 1.459712286170242 0.1172932476370927 0.1
vertex 1.344415089128581 0.16850842073984207 0.1
vertex 1.1755812898145155 0.11729324763709259 0.1
endloop
endfacet
facet normal 0 0 1
outer loop
vertex 1.555529135732501 0.16850842073984196 0.1
vertex 1.5555702330196017 0.16853038769745454 0.1
vertex 1.6568850984205938 0.2516773489277091 0.1
endloop
endfacet
facet normal 0 0 1
outer loop
vertex 1.555529135732501 0.16850842073984196 0.1
vertex 1.6568850984205938 0.2516773489277091 0.1
vertex 1.5000132097176415 0.2516773489277091 0.1
endloop
endfacet
facet normal 0 0 1
outer loop
vertex 1.555529135732501 0.16850842073984196 0.1
vertex 1.5000132097176415 0.2516773489277091 0.1
vertex 1.344415089128581 0.16850842073984207 0.1
endloop
endfacet
facet normal 0 0 1
outer loop
vertex 1.6568850984205938 0.2516773489277091 0.1
vertex 1.7071067811865475 0.2928932188134523 0.1
vertex 1.7651375350036393 0.36360389693210704 0.1
endloop
endfacet
facet normal 0 0 1
outer loop
vertex 1.6568850984205938 0.2516773489277091 0.1
vertex 1.7651375350036393 0.36360389693210704 0.1
vertex 1.6363961030678926 0.36360389693210704 0.1
endloop
endfacet
facet normal 0 0 1
outer loop
vertex 1.6568850984205938 0.2516773489277091 0.1
vertex 1.6363961030678926 0.36360389693210704 0.1
vertex 1.5000132097176415 0.2516773489277091 0.1
endloop
endfacet
facet normal 0 0 1
outer loop
vertex 1.7651375350036393 0.36360389693210704 0.1
vertex 1.8314696123025453 0.4444297669803978 0.1
vertex 1.8611654599377205 0.4999867902823585 0.1
endloop
endfacet
facet normal 0 0 1
outer loop
vertex 1.7651375350036393 0.36360389693210704 0.1
vertex 1.8611654599377205 0.4999867902823585 0.1
vertex 1.7483226510722907 0.49998679028235804 0.1
endloop
endfacet
facet normal 0 0 1
outer loop
vertex 1.7651375350036393 0.36360389693210704 0.1
vertex 1.7483226510722907 0.49998679028235804 0.1
vertex 1.6363961030678926 0.36360389693210704 0.1
endloop
endfacet
facet normal 0 0 1
outer loop
vertex 1.8611654599377205 0.4999867902823585 0.1
vertex 1.9238795325112865 0.6173165676349096 0.1
vertex 1.9354881075192294 0.6555849108714197 0.1
endloop
endfacet
facet normal 0 0 1
outer loop
vertex 1.8611654599377205 0.4999867902823585 0.1
vertex 1.9354881075192294 0.6555849108714197 0.1
vertex 1.8314915792601578 0.6555849108714187 0.1
endloop
endfacet
facet normal 0 0 1
outer loop
vertex 1.8611654599377205 0.4999867902823585 0.1
vertex 1.8314915792601578 0.6555849108714187 0.1
vertex 1.7483226510722907 0.49998679028235804 0.1
endloop
endfacet
facet normal 0 0 1
outer loop
vertex 1.9354881075192294 0.6555849108714197 0.1
vertex 1.9807852804032304 0.8049096779838713 0.1
vertex 1.9827067523629074 0.8244187101854841 0.1
endloop
endfacet
facet normal 0 0 1
outer loop
vertex 1.9354881075192294 0.6555849108714197 0.1
vertex 1.9827067523629074 0.8244187101854841 0.1
vertex 1.8827067523629073 0.8244187101854842 0.1
endloop
endfacet
facet normal 0 0 1
outer loop
vertex 1.9354881075192294 0.6555849108714197 0.1
vertex 1.8827067523629073 0.8244187101854842 0.1
vertex 1.8314915792601578 0.6555849108714187 0.1
endloop
endfacet
facet normal 0 0 1
outer loop
vertex 1.9827067523629074 0.8244187101854841 0.1
vertex 2 1 0.1
vertex 1.9 1 0.1
endloop
endfacet
facet normal 0 0 1
outer loop
vertex 1.9827067523629074 0.8244187101854841 0.1
vertex 1.9 1 0.1
vertex 1.8827067523629073 0.8244187101854842 0.1
endloop
endfacet
facet normal 0 0 1
outer loop
vertex 2 1 0.1
vertex 1.9827067523629074 1.1755812898145155 0.1
vertex 1.8827067523629073 1.1755812898145155 0.1
endloop
endfacet
facet normal 0 0 1
outer loop
vertex 2 1 0.1
vertex 1.8827067523629073 1.1755812898145155 0.1
vertex 1.9 1 0.1
endloop
endfacet
facet normal 0 0 1
outer loop
vertex 1.9827067523629074 1.1755812898145155 0.1
vertex 1.9807852804032304 1.1950903220161282 0.1
vertex 1.9354881075192292 1.3444150891285809 0.1
endloop
endfacet
facet normal 0 0 1
outer loop
vertex 1.9827067523629074 1.1755812898145155 0.1
vertex 1.9354881075192292 1.3444150891285809 0.1
vertex 1.831491579260158 1.3444150891285809 0.1
endloop
endfacet
facet normal 0 0 1
outer loop
vertex 1.9827067523629074 1.1755812898145155 0.1
vertex 1.831491579260158 1.3444150891285809 0.1
vertex 1.8827067523629073 1.1755812898145155 0.1
endloop
endfacet
facet normal 0 0 1
outer loop
vertex 1.9354881075192292 1.3444150891285809 0.1
vertex 1.9238795325112867 1.3826834323650898 0.1
vertex 1.8611654599377205 1.500013209717642 0.1
endloop
endfacet
facet normal 0 0 1
outer loop
vertex 1.9354881075192292 1.3444150891285809 0.1
vertex 1.8611654599377205 1.500013209717642 0.1
vertex 1.7483226510722907 1.500013209717642 0.1
endloop
endfacet
facet normal 0 0 1
outer loop
vertex 1.9354881075192292 1.3444150891285809 0.1
vertex 1.7483226510722907 1.500013209717642 0.1
vertex 1.831491579260158 1.3444150891285809 0.1
endloop
endfacet
facet normal 0 0 1
outer loop
vertex 1.8611654599377205 1.500013209717642 0.1
vertex 1.8314696123025453 1.5555702330196022 0.1
vertex 1.7651375350036398 1.6363961030678928 0.1
endloop
endfacet
facet normal 0 0 1
outer loop
vertex 1.8611654599377205 1.500013209717642 0.1
vertex 1.7651375350036398 1.6363961030678928 0.1
vertex 1.6363961030678928 1.6363961030678928 0.1
endloop
endfacet
facet normal 0 0 1
outer loop
vertex 1.8611654599377205 1.500013209717642 0.1
vertex 1.6363961030678928 1.6363961030678928 0.1
vertex 1.7483226510722907 1.500013209717642 0.1
endloop
endfacet
facet normal 0 0 1
outer loop
vertex 1.7651375350036398 1.6363961030678928 0.1
vertex 1.7071067811865475 1.7071067811865475 0.1
vertex 1.656885098420594 1.7483226510722907 0.1
endloop
endfacet
facet normal 0 0 1
outer loop
vertex 1.7651375350036398 1.6363961030678928 0.1
vertex 1.656885098420594 1.7483226510722907 0.1
vertex 1.500013209717642 1.7483226510722907 0.1
endloop
endfacet
facet normal 0 0 1
outer loop
vertex 1.7651375350036398 1.6363961030678928 0.1
vertex 1.500013209717642 1.7483226510722907 0.1
vertex 1.6363961030678928 1.6363961030678928 0.1
endloop
endfacet
facet normal 0 0 1
outer loop
vertex 1.656885098420594 1.7483226510722907 0.1
vertex 1.5555702330196022 1.8314696123025453 0.1
vertex 1.5555291357325016 1.8314915792601578 0.1
endloop
endfacet
facet normal 0 0 1
outer loop
vertex 1.656885098420594 1.7483226510722907 0.1
vertex 1.5555291357325016 1.8314915792601578 0.1
vertex 1.3444150891285809 1.831491579260158 0.1
endloop
endfacet
facet normal 0 0 1
outer loop
vertex 1.656885098420594 1.7483226510722907 0.1
vertex 1.3444150891285809 1.831491579260158 0.1
vertex 1.500013209717642 1.7483226510722907 0.1
endloop
endfacet
facet normal 0 0 1
outer loop
vertex 1.5555291357325016 1.8314915792601578 0.1
vertex 1.459712286170242 1.8827067523629073 0.1
vertex 1.1755812898145155 1.8827067523629073 0.1
endloop
endfacet
facet normal 0 0 1
outer loop
vertex 1.5555291357325016 1.8314915792601578 0.1
vertex 1.1755812898145155 1.8827067523629073 0.1
vertex 1.3444150891285809 1.831491579260158 0.1
endloop
endfacet
facet normal 0 0 1
outer loop
vertex 1 1.9 0.1
vertex 0.9901508596642836 1.9 0.1
vertex 0.9901508596642837 1.8990299443464749 0.1
endloop
endfacet
facet normal 0 0 1
outer loop
vertex 1.459712286170242 1.8827067523629073 0.1
vertex 1.4273588954287537 1.9 0.1
vertex 1 1.9 0.1
endloop
endfacet
facet normal 0 0 1
outer loop
vertex 1.459712286170242 1.8827067523629073 0.1
vertex 1 1.9 0.1
vertex 1.1755812898145155 1.8827067523629073 0.1
endloop
endfacet
facet normal 0 0 1
outer loop
vertex 1.4273588954287537 1.9 0.1
vertex 1.3826834323650898 1.9238795325112867 0.1
vertex 1.1950903220161284 1.9807852804032304 0.1
endloop
endfacet
facet normal 0 0 1
outer loop
vertex 1.4273588954287537 1.9 0.1
vertex 1.1950903220161284 1.9807852804032304 0.1
vertex 1 2 0.1
endloop
endfacet
facet normal 0 0 1
outer loop
vertex 1.4273588954287537 1.9 0.1
vertex 1 2 0.1
vertex 0.9901508596642837 1.9990299443464745 0.1
endloop
endfacet
facet normal 0 0 1
outer loop
vertex 1.4273588954287537 1.9 0.1
vertex 0.9901508596642837 1.9990299443464745 0.1
vertex 0.9901508596642836 1.9 0.1
endloop
endfacet
facet normal 0 0 -1
outer loop
vertex 1.1950903220161284 1.9807852804032304 -0.1
vertex 1.3826834323650898 1.9238795325112867 -0.1
vertex 1.4273588954287537 1.9000000000000001 -0.1
endloop
endfacet
facet normal 0 0 -1
outer loop
vertex 1.1950903220161284 1.9807852804032304 -0.1
vertex 1.4273588954287537 1.9000000000000001 -0.1
vertex 0.9901508596642836 1.9000000000000001 -0.1
endloop
endfacet
facet normal 0 0 -1
outer loop
vertex 1.1950903220161284 1.9807852804032304 -0.1
vertex 0.9901508596642836 1.9000000000000001 -0.1
vertex 0.9901508596642835 1.9990299443464736 -0.1
endloop
endfacet
facet normal 0 0 -1
outer loop
vertex 1.1950903220161284 1.9807852804032304 -0.1
vertex 0.9901508596642835 1.9990299443464736 -0.1
vertex 1 2 -0.1
endloop
endfacet
facet normal 0 0 -1
outer loop
vertex 1 1.9 -0.1
vertex 0.9901508596642835 1.8990299443464735 -0.1
vertex 0.9901508596642836 1.9000000000000001 -0.1
endloop
endfacet
facet normal 0 0 -1
outer loop
vertex 1.4273588954287537 1.9000000000000001 -0.1
vertex 1.4597122861702418 1.8827067523629075 -0.1
vertex 1.1755812898145155 1.8827067523629073 -0.1
endloop
endfacet
facet normal 0 0 -1
outer loop
vertex 1.4273588954287537 1.9000000000000001 -0.1
vertex 1.1755812898145155 1.8827067523629073 -0.1
vertex 1 1.9 -0.1
endloop
endfacet
facet normal 0 0 -1
outer loop
vertex 1.4597122861702418 1.8827067523629075 -0.1
vertex 1.5555291357325014 1.831491579260158 -0.1
vertex 1.3444150891285809 1.831491579260158 -0.1
endloop
endfacet
facet normal 0 0 -1
outer loop
vertex 1.4597122861702418 1.8827067523629075 -0.1
vertex 1.3444150891285809 1.831491579260158 -0.1
vertex 1.1755812898145155 1.8827067523629073 -0.1
endloop
endfacet
facet normal 0 0 -1
outer loop
vertex 1.5555291357325014 1.831491579260158 -0.1
vertex 1.5555702330196022 1.8314696123025453 -0.1
vertex 1.656885098420594 1.7483226510722907 -0.1
endloop
endfacet
facet normal 0 0 -1
outer loop
vertex 1.5555291357325014 1.831491579260158 -0.1
vertex 1.656885098420594 1.7483226510722907 -0.1
vertex 1.500013209717642 1.7483226510722907 -0.1
endloop
endfacet
facet normal 0 0 -1
outer loop
vertex 1.5555291357325014 1.831491579260158 -0.1
vertex 1.500013209717642 1.7483226510722907 -0.1
vertex 1.3444150891285809 1.831491579260158 -0.1
endloop
endfacet
facet normal 0 0 -1
outer loop
vertex 1.656885098420594 1.7483226510722907 -0.1
vertex 1.7071067811865475 1.7071067811865475 -0.1
vertex 1.7651375350036398 1.6363961030678928 -0.1
endloop
endfacet
facet normal 0 0 -1
outer loop
vertex 1.656885098420594 1.7483226510722907 -0.1
vertex 1.7651375350036398 1.6363961030678928 -0.1
vertex 1.6363961030678928 1.6363961030678928 -0.1
endloop
endfacet
facet normal 0 0 -1
outer loop
vertex 1.656885098420594 1.7483226510722907 -0.1
vertex 1.6363961030678928 1.6363961030678928 -0.1
vertex 1.500013209717642 1.7483226510722907 -0.1
endloop
endfacet
facet normal 0 0 -1
outer loop
vertex 1.7651375350036398 1.6363961030678928 -0.1
vertex 1.8314696123025453 1.5555702330196022 -0.1
vertex 1.8611654599377205 1.500013209717642 -0.1
endloop
endfacet
facet normal 0 0 -1
outer loop
vertex 1.7651375350036398 1.6363961030678928 -0.1
vertex 1.8611654599377205 1.500013209717642 -0.1
vertex 1.7483226510722907 1.500013209717642 -0.1
endloop
endfacet
facet normal 0 0 -1
outer loop
vertex 1.7651375350036398 1.6363961030678928 -0.1
vertex 1.7483226510722907 1.500013209717642 -0.1
vertex 1.6363961030678928 1.6363961030678928 -0.1
endloop
endfacet
facet normal 0 0 -1
outer loop
vertex 1.8611654599377205 1.500013209717642 -0.1
vertex 1.9238795325112867 1.3826834323650898 -0.1
vertex 1.9354881075192292 1.3444150891285809 -0.1
endloop
endfacet
facet normal 0 0 -1
outer loop
vertex 1.8611654599377205 1.500013209717642 -0.1
vertex 1.9354881075192292 1.3444150891285809 -0.1
vertex 1.831491579260158 1.3444150891285809 -0.1
endloop
endfacet
facet normal 0 0 -1
outer loop
vertex 1.8611654599377205 1.500013209717642 -0.1
vertex 1.831491579260158 1.3444150891285809 -0.1
vertex 1.7483226510722907 1.500013209717642 -0.1
endloop
endfacet
facet normal 0 0 -1
outer loop
vertex 1.9354881075192292 1.3444150891285809 -0.1
vertex 1.9807852804032304 1.1950903220161282 -0.1
vertex 1.9827067523629074 1.1755812898145155 -0.1
endloop
endfacet
facet normal 0 0 -1
outer loop
vertex 1.9354881075192292 1.3444150891285809 -0.1
vertex 1.9827067523629074 1.1755812898145155 -0.1
vertex 1.8827067523629073 1.1755812898145155 -0.1
endloop
endfacet
facet normal 0 0 -1
outer loop
vertex 1.9354881075192292 1.3444150891285809 -0.1
vertex 1.8827067523629073 1.1755812898145155 -0.1
vertex 1.831491579260158 1.3444150891285809 -0.1
endloop
endfacet
facet normal 0 0 -1
outer loop
vertex 1.9827067523629074 1.1755812898145155 -0.1
vertex 2 1 -0.1
vertex 1.9 1 -0.1
endloop
endfacet
facet normal 0 0 -1
outer loop
vertex 1.9827067523629074 1.1755812898145155 -0.1
vertex 1.9 1 -0.1
vertex 1.8827067523629073 1.1755812898145155 -0.1
endloop
endfacet
facet normal 0 0 -1
outer loop
vertex 2 1 -0.1
vertex 1.9827067523629074 0.8244187101854841 -0.1
vertex 1.8827067523629073 0.8244187101854842 -0.1
endloop
endfacet
facet normal 0 0 -1
outer loop
vertex 2 1 -0.1
vertex 1.8827067523629073 0.8244187101854842 -0.1
vertex 1.9 1 -0.1
endloop
endfacet
facet normal 0 0 -1
outer loop
vertex 1.9827067523629074 0.8244187101854841 -0.1
vertex 1.9807852804032304 0.8049096779838713 -0.1
vertex 1.9354881075192294 0.6555849108714196 -0.1
endloop
endfacet
facet normal 0 0 -1
outer loop
vertex 1.9827067523629074 0.8244187101854841 -0.1
vertex 1.9354881075192294 0.6555849108714196 -0.1
vertex 1.8314915792601578 0.6555849108714187 -0.1
endloop
endfacet
facet normal 0 0 -1
outer loop
vertex 1.9827067523629074 0.8244187101854841 -0.1
vertex 1.8314915792601578 0.6555849108714187 -0.1
vertex 1.8827067523629073 0.8244187101854842 -0.1
endloop
endfacet
facet normal 0 0 -1
outer loop
vertex 1.9354881075192294 0.6555849108714196 -0.1
vertex 1.9238795325112865 0.6173165676349096 -0.1
vertex 1.8611654599377205 0.4999867902823585 -0.1
endloop
endfacet
facet normal 0 0 -1
outer loop
vertex 1.9354881075192294 0.6555849108714196 -0.1
vertex 1.8611654599377205 0.4999867902823585 -0.1
vertex 1.7483226510722907 0.49998679028235804 -0.1
endloop
endfacet
facet normal 0 0 -1
outer loop
vertex 1.9354881075192294 0.6555849108714196 -0.1
vertex 1.7483226510722907 0.49998679028235804 -0.1
vertex 1.8314915792601578 0.6555849108714187 -0.1
endloop
endfacet
facet normal 0 0 -1
outer loop
vertex 1.8611654599377205 0.4999867902823585 -0.1
vertex 1.8314696123025453 0.4444297669803978 -0.1
vertex 1.7651375350036393 0.36360389693210704 -0.1
endloop
endfacet
facet normal 0 0 -1
outer loop
vertex 1.8611654599377205 0.4999867902823585 -0.1
vertex 1.7651375350036393 0.36360389693210704 -0.1
vertex 1.6363961030678926 0.36360389693210704 -0.1
endloop
endfacet
facet normal 0 0 -1
outer loop
vertex 1.8611654599377205 0.4999867902823585 -0.1
vertex 1.6363961030678926 0.36360389693210704 -0.1
vertex 1.7483226510722907 0.49998679028235804 -0.1
endloop
endfacet
facet normal 0 0 -1
outer loop
vertex 1.7651375350036393 0.36360389693210704 -0.1
vertex 1.7071067811865475 0.2928932188134523 -0.1
vertex 1.6568850984205938 0.2516773489277091 -0.1
endloop
endfacet
facet normal 0 0 -1
outer loop
vertex 1.7651375350036393 0.36360389693210704 -0.1
vertex 1.6568850984205938 0.2516773489277091 -0.1
vertex 1.5000132097176415 0.2516773489277091 -0.1
endloop
endfacet
facet normal 0 0 -1
outer loop
vertex 1.7651375350036393 0.36360389693210704 -0.1
vertex 1.5000132097176415 0.2516773489277091 -0.1
vertex 1.6363961030678926 0.36360389693210704 -0.1
endloop
endfacet
facet normal 0 0 -1
outer loop
vertex 1.6568850984205938 0.2516773489277091 -0.1
vertex 1.5555702330196017 0.16853038769745454 -0.1
vertex 1.5555291357325007 0.16850842073984185 -0.1
endloop
endfacet
facet normal 0 0 -1
outer loop
vertex 1.6568850984205938 0.2516773489277091 -0.1
vertex 1.5555291357325007 0.16850842073984185 -0.1
vertex 1.344415089128581 0.16850842073984207 -0.1
endloop
endfacet
facet normal 0 0 -1
outer loop
vertex 1.6568850984205938 0.2516773489277091 -0.1
vertex 1.344415089128581 0.16850842073984207 -0.1
vertex 1.5000132097176415 0.2516773489277091 -0.1
endloop
endfacet
facet normal 0 0 -1
outer loop
vertex 1.5555291357325007 0.16850842073984185 -0.1
vertex 1.459712286170242 0.1172932476370927 -0.1
vertex 1.1755812898145155 0.11729324763709259 -0.1
endloop
endfacet
facet normal 0 0 -1
outer loop
vertex 1.5555291357325007 0.16850842073984185 -0.1
vertex 1.1755812898145155 0.11729324763709259 -0.1
vertex 1.344415089128581 0.16850842073984207 -0.1
endloop
endfacet
facet normal 0 0 -1
outer loop
vertex 0.9999999999999999 0.09999999999999998 -0.1
vertex 0.9901508596642834 0.09999999999999998 -0.1
vertex 0.9901508596642835 0.10097005565352629 -0.1
endloop
endfacet
facet normal 0 0 -1
outer loop
vertex 1.459712286170242 0.1172932476370927 -0.1
vertex 1.4273588954287535 0.09999999999999998 -0.1
vertex 0.9999999999999999 0.09999999999999998 -0.1
endloop
endfacet
facet normal 0 0 -1
outer loop
vertex 1.459712286170242 0.1172932476370927 -0.1
vertex 0.9999999999999999 0.09999999999999998 -0.1
vertex 1.1755812898145155 0.11729324763709259 -0.1
endloop
endfacet
facet normal 0 0 -1
outer loop
vertex 1.4273588954287535 0.09999999999999998 -0.1
vertex 1.38268343236509 0.07612046748871337 -0.1
vertex 1.1950903220161284 0.01921471959676957 -0.1
endloop
endfacet
facet normal 0 0 -1
outer loop
vertex 1.4273588954287535 0.09999999999999998 -0.1
vertex 1.1950903220161284 0.01921471959676957 -0.1
vertex 0.9999999999999998 0 -0.1
endloop
endfacet
facet normal 0 0 -1
outer loop
vertex 1.4273588954287535 0.09999999999999998 -0.1
vertex 0.9999999999999998 0 -0.1
vertex 0.9901508596642835 0.0009700556535263919 -0.1
endloop
endfacet
facet normal 0 0 -1
outer loop
vertex 1.4273588954287535 0.09999999999999998 -0.1
vertex 0.9901508596642835 0.0009700556535263919 -0.1
vertex 0.9901508596642834 0.09999999999999998 -0.1
endloop
endfacet
facet normal -0.09801714032956044 0.9951847266721969 0
outer loop
vertex 1 2 1.1021821192326179e-16
vertex 1 2 -0.1
vertex 0.9901508596642835 1.9990299443464736 -0.1
endloop
endfacet
facet normal -0.09801714032956044 0.9951847266721969 0
outer loop
vertex 1 2 0.1
vertex 1 2 1.1021821192326179e-16
vertex 0.9901508596642837 1.9990299443464745 0.1
endloop
endfacet
facet normal -0.09801714032956121 -0.9951847266721969 0
outer loop
vertex 1 0 0
vertex 0.9901508596642835 0.0009700556535263919 -0.1
vertex 0.9999999999999998 0 -0.1
endloop
endfacet
facet normal -0.09801714032956121 -0.9951847266721969 0
outer loop
vertex 0.9999999999999998 0 0.1
vertex 0.9901508596642837 0.0009700556535263975 0.1
vertex 1 0 0
endloop
endfacet
facet normal 0.09801714032956022 -0.9951847266721969 0
outer loop
vertex 1.0000000000000002 1.9000000000000012 0
vertex 0.9901508596642835 1.8990299443464735 -0.1
vertex 1 1.9 -0.1
endloop
endfacet
facet normal 0.09801714032956022 -0.9951847266721969 0
outer loop
vertex 1 1.9 0.1
vertex 0.9901508596642837 1.8990299443464749 0.1
vertex 1.0000000000000002 1.9000000000000012 0
endloop
endfacet
facet normal 0.09801714032956121 0.9951847266721968 0
outer loop
vertex 1.0000000000000002 0.09999999999999994 0
vertex 0.9999999999999999 0.09999999999999998 -0.1
vertex 0.9901508596642835 0.10097005565352629 -0.1
endloop
endfacet
facet normal 0.09801714032956121 0.9951847266721968 0
outer loop
vertex 0.9999999999999999 0.09999999999999998 0.1
vertex 1.0000000000000002 0.09999999999999994 0
vertex 0.9901508596642837 0.10097005565352629 0.1
endloop
endfacet
endsolid csg.js
