solid csg.js
facet normal 0 -1 0
outer loop
vertex 195090.3220161283 0 -980785.2804032303
vertex 382683.43236509 0 -923879.5325112866
vertex 555570.2330196018 0 -831469.6123025452
endloop
endfacet
facet normal 0 -1 0
outer loop
vertex 195090.3220161283 0 -980785.2804032303
vertex 555570.2330196018 0 -831469.6123025452
vertex 707106.7811865474 0 -707106.7811865475
endloop
endfacet
facet normal 0 -1 0
outer loop
vertex 195090.3220161283 0 -980785.2804032303
vertex 707106.7811865474 0 -707106.7811865475
vertex 831469.6123025452 0 -555570.2330196016
endloop
endfacet
facet normal 0 -1 0
outer loop
vertex 195090.3220161283 0 -980785.2804032303
vertex 831469.6123025452 0 -555570.2330196016
vertex 923879.5325112866 0 -382683.43236508925
endloop
endfacet
facet normal 0 -1 0
outer loop
vertex 195090.3220161283 0 -980785.2804032303
vertex 923879.5325112866 0 -382683.43236508925
vertex 980785.2804032303 0 -195090.3220161288
endloop
endfacet
facet normal 0 -1 0
outer loop
vertex 195090.3220161283 0 -980785.2804032303
vertex 980785.2804032303 0 -195090.3220161288
vertex 1000000 0 0
endloop
endfacet
facet normal 0 -1 0
outer loop
vertex 195090.3220161283 0 -980785.2804032303
vertex 1000000 0 0
vertex 980785.2804032305 0 195090.32201612825
endloop
endfacet
facet normal 0 -1 0
outer loop
vertex 195090.3220161283 0 -980785.2804032303
vertex 980785.2804032305 0 195090.32201612825
vertex 923879.5325112868 0 382683.4323650898
endloop
endfacet
facet normal 0 -1 0
outer loop
vertex 195090.3220161283 0 -980785.2804032303
vertex 923879.5325112868 0 382683.4323650898
vertex 831469.6123025452 0 555570.2330196021
endloop
endfacet
facet normal 0 -1 0
outer loop
vertex 195090.3220161283 0 -980785.2804032303
vertex 831469.6123025452 0 555570.2330196021
vertex 707106.7811865476 0 707106.7811865475
endloop
endfacet
facet normal 0 -1 0
outer loop
vertex 195090.3220161283 0 -980785.2804032303
vertex 707106.7811865476 0 707106.7811865475
vertex 555570.2330196023 0 831469.6123025452
endloop
endfacet
facet normal 0 -1 0
outer loop
vertex 195090.3220161283 0 -980785.2804032303
vertex 555570.2330196023 0 831469.6123025452
vertex 382683.43236508983 0 923879.5325112868
endloop
endfacet
facet normal 0 -1 0
outer loop
vertex 195090.3220161283 0 -980785.2804032303
vertex 382683.43236508983 0 923879.5325112868
vertex 195090.32201612834 0 980785.2804032305
endloop
endfacet
facet normal 0 -1 0
outer loop
vertex 195090.3220161283 0 -980785.2804032303
vertex 195090.32201612834 0 980785.2804032305
vertex 5.551115123125783e-11 0 1000000
endloop
endfacet
facet normal 0 -1 0
outer loop
vertex 195090.3220161283 0 -980785.2804032303
vertex 5.551115123125783e-11 0 1000000
vertex -195090.32201612796 0 980785.2804032305
endloop
endfacet
facet normal 0 -1 0
outer loop
vertex 195090.3220161283 0 -980785.2804032303
vertex -195090.32201612796 0 980785.2804032305
vertex -382683.4323650897 0 923879.5325112868
endloop
endfacet
facet normal 0 -1 0
outer loop
vertex 195090.3220161283 0 -980785.2804032303
vertex -382683.4323650897 0 923879.5325112868
vertex -555570.2330196019 0 831469.6123025452
endloop
endfacet
facet normal 0 -1 0
outer loop
vertex 195090.3220161283 0 -980785.2804032303
vertex -555570.2330196019 0 831469.6123025452
vertex -707106.7811865475 0 707106.7811865475
endloop
endfacet
facet normal 0 -1 0
outer loop
vertex 195090.3220161283 0 -980785.2804032303
vertex -707106.7811865475 0 707106.7811865475
vertex -831469.6123025453 0 555570.2330196021
endloop
endfacet
facet normal 0 -1 0
outer loop
vertex 195090.3220161283 0 -980785.2804032303
vertex -831469.6123025453 0 555570.2330196021
vertex -923879.5325112868 0 382683.4323650898
endloop
endfacet
facet normal 0 -1 0
outer loop
vertex 195090.3220161283 0 -980785.2804032303
vertex -923879.5325112868 0 382683.4323650898
vertex -980785.2804032305 0 195090.32201612825
endloop
endfacet
facet normal 0 -1 0
outer loop
vertex 195090.3220161283 0 -980785.2804032303
vertex -980785.2804032305 0 195090.32201612825
vertex -1000000 0 0
endloop
endfacet
facet normal 0 -1 0
outer loop
vertex 195090.3220161283 0 -980785.2804032303
vertex -1000000 0 0
vertex -980785.2804032303 0 -195090.3220161288
endloop
endfacet
facet normal 0 -1 0
outer loop
vertex 195090.3220161283 0 -980785.2804032303
vertex -980785.2804032303 0 -195090.3220161288
vertex -923879.5325112869 0 -382683.43236508925
endloop
endfacet
facet normal 0 -1 0
outer loop
vertex 195090.3220161283 0 -980785.2804032303
vertex -923879.5325112869 0 -382683.43236508925
vertex -831469.6123025457 0 -555570.2330196016
endloop
endfacet
facet normal 0 -1 0
outer loop
vertex 195090.3220161283 0 -980785.2804032303
vertex -831469.6123025457 0 -555570.2330196016
vertex -707106.7811865477 0 -707106.7811865475
endloop
endfacet
facet normal 0 -1 0
outer loop
vertex 195090.3220161283 0 -980785.2804032303
vertex -707106.7811865477 0 -707106.7811865475
vertex -555570.2330196021 0 -831469.6123025452
endloop
endfacet
facet normal 0 -1 0
outer loop
vertex 195090.3220161283 0 -980785.2804032303
vertex -555570.2330196021 0 -831469.6123025452
vertex -382683.43236509035 0 -923879.5325112866
endloop
endfacet
facet normal 0 -1 0
outer loop
vertex 195090.3220161283 0 -980785.2804032303
vertex -382683.43236509035 0 -923879.5325112866
vertex -195090.32201612866 0 -980785.2804032303
endloop
endfacet
facet normal 0 -1 0
outer loop
vertex 195090.3220161283 0 -980785.2804032303
vertex -195090.32201612866 0 -980785.2804032303
vertex -1.8369701987210297e-10 0 -1000000
endloop
endfacet
facet normal 0.9569403357322088 0 0.2902846772544623
outer loop
vertex 923879.5325112868 0 382683.4323650898
vertex 980785.2804032305 0 195090.32201612825
vertex 980785.2804032305 2000000 195090.32201612825
endloop
endfacet
facet normal 0.9569403357322088 0 0.2902846772544623
outer loop
vertex 923879.5325112868 0 382683.4323650898
vertex 980785.2804032305 2000000 195090.32201612825
vertex 923879.5325112868 2000000 382683.4323650898
endloop
endfacet
facet normal 0.8819212643483549 0 0.47139673682599786
outer loop
vertex 831469.6123025452 0 555570.2330196021
vertex 923879.5325112868 0 382683.4323650898
vertex 923879.5325112868 2000000 382683.4323650898
endloop
endfacet
facet normal 0.8819212643483549 0 0.47139673682599786
outer loop
vertex 831469.6123025452 0 555570.2330196021
vertex 923879.5325112868 2000000 382683.4323650898
vertex 831469.6123025452 2000000 555570.2330196021
endloop
endfacet
facet normal 0.7730104533627371 0 0.6343932841636454
outer loop
vertex 707106.7811865476 0 707106.7811865475
vertex 831469.6123025452 0 555570.2330196021
vertex 831469.6123025452 2000000 555570.2330196021
endloop
endfacet
facet normal 0.7730104533627371 0 0.6343932841636454
outer loop
vertex 707106.7811865476 0 707106.7811865475
vertex 831469.6123025452 2000000 555570.2330196021
vertex 707106.7811865476 2000000 707106.7811865475
endloop
endfacet
facet normal 0.6343932841636458 0 0.7730104533627367
outer loop
vertex 555570.2330196023 0 831469.6123025452
vertex 707106.7811865476 0 707106.7811865475
vertex 707106.7811865476 2000000 707106.7811865475
endloop
endfacet
facet normal 0.6343932841636458 0 0.7730104533627367
outer loop
vertex 555570.2330196023 0 831469.6123025452
vertex 707106.7811865476 2000000 707106.7811865475
vertex 555570.2330196023 2000000 831469.6123025452
endloop
endfacet
facet normal 0.4713967368259976 0 0.8819212643483552
outer loop
vertex 382683.43236508983 0 923879.5325112868
vertex 555570.2330196023 0 831469.6123025452
vertex 555570.2330196023 2000000 831469.6123025452
endloop
endfacet
facet normal 0.4713967368259976 0 0.8819212643483552
outer loop
vertex 382683.43236508983 0 923879.5325112868
vertex 555570.2330196023 2000000 831469.6123025452
vertex 382683.43236508983 2000000 923879.5325112868
endloop
endfacet
facet normal 0.2902846772544624 0 0.9569403357322088
outer loop
vertex 195090.32201612834 0 980785.2804032305
vertex 382683.43236508983 0 923879.5325112868
vertex 382683.43236508983 2000000 923879.5325112868
endloop
endfacet
facet normal 0.2902846772544624 0 0.9569403357322088
outer loop
vertex 195090.32201612834 0 980785.2804032305
vertex 382683.43236508983 2000000 923879.5325112868
vertex 195090.32201612834 2000000 980785.2804032305
endloop
endfacet
facet normal 0.09801714032956083 0 0.9951847266721969
outer loop
vertex 5.551115123125783e-11 0 1000000
vertex 195090.32201612834 0 980785.2804032305
vertex 195090.32201612834 2000000 980785.2804032305
endloop
endfacet
facet normal 0.09801714032956083 0 0.9951847266721969
outer loop
vertex 5.551115123125783e-11 0 1000000
vertex 195090.32201612834 2000000 980785.2804032305
vertex 6.123233995736767e-11 2000000 1000000
endloop
endfacet
facet normal -0.09801714032956015 0 0.9951847266721969
outer loop
vertex -195090.32201612796 0 980785.2804032305
vertex 5.551115123125783e-11 0 1000000
vertex 6.123233995736767e-11 2000000 1000000
endloop
endfacet
facet normal -0.09801714032956015 0 0.9951847266721969
outer loop
vertex -195090.32201612796 0 980785.2804032305
vertex 6.123233995736767e-11 2000000 1000000
vertex -195090.32201612796 2000000 980785.2804032306
endloop
endfacet
facet normal -0.29028467725446255 0 0.9569403357322088
outer loop
vertex -382683.4323650897 0 923879.5325112868
vertex -195090.32201612796 0 980785.2804032305
vertex -195090.32201612796 2000000 980785.2804032306
endloop
endfacet
facet normal -0.29028467725446255 0 0.9569403357322088
outer loop
vertex -382683.4323650897 0 923879.5325112868
vertex -195090.32201612796 2000000 980785.2804032306
vertex -382683.4323650897 2000000 923879.5325112868
endloop
endfacet
facet normal -0.47139673682599764 0 0.8819212643483549
outer loop
vertex -555570.2330196019 0 831469.6123025452
vertex -382683.4323650897 0 923879.5325112868
vertex -382683.4323650897 2000000 923879.5325112868
endloop
endfacet
facet normal -0.47139673682599764 0 0.8819212643483549
outer loop
vertex -555570.2330196019 0 831469.6123025452
vertex -382683.4323650897 2000000 923879.5325112868
vertex -555570.2330196019 2000000 831469.6123025453
endloop
endfacet
facet normal -0.6343932841636452 0 0.7730104533627372
outer loop
vertex -707106.7811865475 0 707106.7811865475
vertex -555570.2330196019 0 831469.6123025452
vertex -555570.2330196019 2000000 831469.6123025453
endloop
endfacet
facet normal -0.6343932841636452 0 0.7730104533627372
outer loop
vertex -707106.7811865475 0 707106.7811865475
vertex -555570.2330196019 2000000 831469.6123025453
vertex -707106.7811865475 2000000 707106.7811865476
endloop
endfacet
facet normal -0.7730104533627367 0 0.6343932841636459
outer loop
vertex -831469.6123025453 0 555570.2330196021
vertex -707106.7811865475 0 707106.7811865475
vertex -707106.7811865475 2000000 707106.7811865476
endloop
endfacet
facet normal -0.7730104533627367 0 0.6343932841636459
outer loop
vertex -831469.6123025453 0 555570.2330196021
vertex -707106.7811865475 2000000 707106.7811865476
vertex -831469.6123025453 2000000 555570.2330196021
endloop
endfacet
facet normal -0.881921264348355 0 0.47139673682599764
outer loop
vertex -923879.5325112868 0 382683.4323650898
vertex -831469.6123025453 0 555570.2330196021
vertex -831469.6123025453 2000000 555570.2330196021
endloop
endfacet
facet normal -0.881921264348355 0 0.47139673682599764
outer loop
vertex -923879.5325112868 0 382683.4323650898
vertex -831469.6123025453 2000000 555570.2330196021
vertex -923879.5325112868 2000000 382683.4323650899
endloop
endfacet
facet normal -0.9569403357322087 0 0.2902846772544627
outer loop
vertex -980785.2804032305 0 195090.32201612825
vertex -923879.5325112868 0 382683.4323650898
vertex -923879.5325112868 2000000 382683.4323650899
endloop
endfacet
facet normal -0.9569403357322087 0 0.2902846772544627
outer loop
vertex -980785.2804032305 0 195090.32201612825
vertex -923879.5325112868 2000000 382683.4323650899
vertex -980785.2804032305 2000000 195090.3220161286
endloop
endfacet
facet normal -0.9951847266721968 0 0.09801714032956059
outer loop
vertex -1000000 0 0
vertex -980785.2804032305 0 195090.32201612825
vertex -980785.2804032305 2000000 195090.3220161286
endloop
endfacet
facet normal -0.9951847266721968 0 0.09801714032956059
outer loop
vertex -1000000 0 0
vertex -980785.2804032305 2000000 195090.3220161286
vertex -1000000 2000000 1.2246467991473533e-10
endloop
endfacet
facet normal -0.9951847266721969 0 -0.09801714032956084
outer loop
vertex -980785.2804032303 0 -195090.3220161288
vertex -1000000 0 0
vertex -1000000 2000000 1.2246467991473533e-10
endloop
endfacet
facet normal -0.9951847266721969 0 -0.09801714032956084
outer loop
vertex -980785.2804032303 0 -195090.3220161288
vertex -1000000 2000000 1.2246467991473533e-10
vertex -980785.2804032303 2000000 -195090.3220161288
endloop
endfacet
facet normal -0.9569403357322088 0 -0.29028467725446244
outer loop
vertex -923879.5325112869 0 -382683.43236508925
vertex -980785.2804032303 0 -195090.3220161288
vertex -980785.2804032303 2000000 -195090.3220161288
endloop
endfacet
facet normal -0.9569403357322088 0 -0.29028467725446244
outer loop
vertex -923879.5325112869 0 -382683.43236508925
vertex -980785.2804032303 2000000 -195090.3220161288
vertex -923879.5325112869 2000000 -382683.43236508925
endloop
endfacet
facet normal -0.8819212643483553 0 -0.4713967368259971
outer loop
vertex -831469.6123025457 0 -555570.2330196016
vertex -923879.5325112869 0 -382683.43236508925
vertex -923879.5325112869 2000000 -382683.43236508925
endloop
endfacet
facet normal -0.8819212643483553 0 -0.4713967368259971
outer loop
vertex -831469.6123025457 0 -555570.2330196016
vertex -923879.5325112869 2000000 -382683.43236508925
vertex -831469.6123025457 2000000 -555570.2330196016
endloop
endfacet
facet normal -0.7730104533627375 0 -0.6343932841636448
outer loop
vertex -707106.7811865477 0 -707106.7811865475
vertex -831469.6123025457 0 -555570.2330196016
vertex -831469.6123025457 2000000 -555570.2330196016
endloop
endfacet
facet normal -0.7730104533627375 0 -0.6343932841636448
outer loop
vertex -707106.7811865477 0 -707106.7811865475
vertex -831469.6123025457 2000000 -555570.2330196016
vertex -707106.7811865477 2000000 -707106.7811865475
endloop
endfacet
facet normal -0.6343932841636452 0 -0.7730104533627372
outer loop
vertex -555570.2330196021 0 -831469.6123025452
vertex -707106.7811865477 0 -707106.7811865475
vertex -707106.7811865477 2000000 -707106.7811865475
endloop
endfacet
facet normal -0.6343932841636452 0 -0.7730104533627372
outer loop
vertex -555570.2330196021 0 -831469.6123025452
vertex -707106.7811865477 2000000 -707106.7811865475
vertex -555570.2330196021 2000000 -831469.6123025452
endloop
endfacet
facet normal -0.471396736825998 0 -0.8819212643483548
outer loop
vertex -382683.43236509035 0 -923879.5325112866
vertex -555570.2330196021 0 -831469.6123025452
vertex -555570.2330196021 2000000 -831469.6123025452
endloop
endfacet
facet normal -0.471396736825998 0 -0.8819212643483548
outer loop
vertex -382683.43236509035 0 -923879.5325112866
vertex -555570.2330196021 2000000 -831469.6123025452
vertex -382683.43236509035 2000000 -923879.5325112866
endloop
endfacet
facet normal -0.29028467725446266 0 -0.9569403357322087
outer loop
vertex -195090.32201612866 0 -980785.2804032303
vertex -382683.43236509035 0 -923879.5325112866
vertex -382683.43236509035 2000000 -923879.5325112866
endloop
endfacet
facet normal -0.29028467725446266 0 -0.9569403357322087
outer loop
vertex -195090.32201612866 0 -980785.2804032303
vertex -382683.43236509035 2000000 -923879.5325112866
vertex -195090.32201612866 2000000 -980785.2804032303
endloop
endfacet
facet normal -0.09801714032956131 0 -0.9951847266721968
outer loop
vertex -1.8369701987210297e-10 0 -1000000
vertex -195090.32201612866 0 -980785.2804032303
vertex -195090.32201612866 2000000 -980785.2804032303
endloop
endfacet
facet normal -0.09801714032956131 0 -0.9951847266721968
outer loop
vertex -1.8369701987210297e-10 0 -1000000
vertex -195090.32201612866 2000000 -980785.2804032303
vertex -1.8369701987210297e-10 2000000 -1000000
endloop
endfacet
facet normal 0.09801714032956049 0 -0.9951847266721969
outer loop
vertex 195090.3220161283 0 -980785.2804032303
vertex -1.8369701987210297e-10 0 -1000000
vertex -1.8369701987210297e-10 2000000 -1000000
endloop
endfacet
facet normal 0.09801714032956049 0 -0.9951847266721969
outer loop
vertex 195090.3220161283 0 -980785.2804032303
vertex -1.8369701987210297e-10 2000000 -1000000
vertex 195090.3220161283 2000000 -980785.2804032305
endloop
endfacet
facet normal 0.29028467725446266 0 -0.9569403357322087
outer loop
vertex 382683.43236509 0 -923879.5325112866
vertex 195090.3220161283 0 -980785.2804032303
vertex 195090.3220161283 2000000 -980785.2804032305
endloop
endfacet
facet normal 0.29028467725446266 0 -0.9569403357322087
outer loop
vertex 382683.43236509 0 -923879.5325112866
vertex 195090.3220161283 2000000 -980785.2804032305
vertex 382683.43236509 2000000 -923879.5325112867
endloop
endfacet
facet normal 0.4713967368259977 0 -0.881921264348355
outer loop
vertex 555570.2330196018 0 -831469.6123025452
vertex 382683.43236509 0 -923879.5325112866
vertex 382683.43236509 2000000 -923879.5325112867
endloop
endfacet
facet normal 0.4713967368259977 0 -0.881921264348355
outer loop
vertex 555570.2330196018 0 -831469.6123025452
vertex 382683.43236509 2000000 -923879.5325112867
vertex 555570.2330196018 2000000 -831469.6123025455
endloop
endfacet
facet normal 0.6343932841636453 0 -0.7730104533627372
outer loop
vertex 707106.7811865474 0 -707106.7811865475
vertex 555570.2330196018 0 -831469.6123025452
vertex 555570.2330196018 2000000 -831469.6123025455
endloop
endfacet
facet normal 0.6343932841636453 0 -0.7730104533627372
outer loop
vertex 707106.7811865474 0 -707106.7811865475
vertex 555570.2330196018 2000000 -831469.6123025455
vertex 707106.7811865474 2000000 -707106.7811865477
endloop
endfacet
facet normal 0.773010453362737 0 -0.6343932841636455
outer loop
vertex 831469.6123025452 0 -555570.2330196016
vertex 707106.7811865474 0 -707106.7811865475
vertex 707106.7811865474 2000000 -707106.7811865477
endloop
endfacet
facet normal 0.773010453362737 0 -0.6343932841636455
outer loop
vertex 831469.6123025452 0 -555570.2330196016
vertex 707106.7811865474 2000000 -707106.7811865477
vertex 831469.6123025452 2000000 -555570.2330196021
endloop
endfacet
facet normal 0.8819212643483548 0 -0.4713967368259981
outer loop
vertex 923879.5325112866 0 -382683.43236508925
vertex 831469.6123025452 0 -555570.2330196016
vertex 831469.6123025452 2000000 -555570.2330196021
endloop
endfacet
facet normal 0.8819212643483548 0 -0.4713967368259981
outer loop
vertex 923879.5325112866 0 -382683.43236508925
vertex 831469.6123025452 2000000 -555570.2330196021
vertex 923879.5325112866 2000000 -382683.4323650904
endloop
endfacet
facet normal 0.9569403357322087 0 -0.29028467725446266
outer loop
vertex 980785.2804032303 0 -195090.3220161288
vertex 923879.5325112866 0 -382683.43236508925
vertex 923879.5325112866 2000000 -382683.4323650904
endloop
endfacet
facet normal 0.9569403357322087 0 -0.29028467725446266
outer loop
vertex 980785.2804032303 0 -195090.3220161288
vertex 923879.5325112866 2000000 -382683.4323650904
vertex 980785.2804032303 2000000 -195090.32201612872
endloop
endfacet
facet normal 0 1 0
outer loop
vertex 175581.2898145155 100000 882706.7523629074
vertex 344415.0891285809 100000 831491.579260158
vertex 500013.20971764205 100000 748322.6510722907
endloop
endfacet
facet normal 0 1 0
outer loop
vertex 175581.2898145155 100000 882706.7523629074
vertex 500013.20971764205 100000 748322.6510722907
vertex 636396.1030678928 100000 636396.1030678927
endloop
endfacet
facet normal 0 1 0
outer loop
vertex 175581.2898145155 100000 882706.7523629074
vertex 636396.1030678928 100000 636396.1030678927
vertex 748322.6510722907 100000 500013.20971764193
endloop
endfacet
facet normal 0 1 0
outer loop
vertex 175581.2898145155 100000 882706.7523629074
vertex 748322.6510722907 100000 500013.20971764193
vertex 831491.579260158 100000 344415.0891285808
endloop
endfacet
facet normal 0 1 0
outer loop
vertex 175581.2898145155 100000 882706.7523629074
vertex 831491.579260158 100000 344415.0891285808
vertex 882706.7523629074 100000 175581.28981451542
endloop
endfacet
facet normal 0 1 0
outer loop
vertex 175581.2898145155 100000 882706.7523629074
vertex 882706.7523629074 100000 175581.28981451542
vertex 900000 100000 0
endloop
endfacet
facet normal 0 1 0
outer loop
vertex 175581.2898145155 100000 882706.7523629074
vertex 900000 100000 0
vertex 882706.7523629073 100000 -175581.28981451594
endloop
endfacet
facet normal 0 1 0
outer loop
vertex 175581.2898145155 100000 882706.7523629074
vertex 882706.7523629073 100000 -175581.28981451594
vertex 831491.5792601579 100000 -344415.0891285803
endloop
endfacet
facet normal 0 1 0
outer loop
vertex 175581.2898145155 100000 882706.7523629074
vertex 831491.5792601579 100000 -344415.0891285803
vertex 748322.6510722907 100000 -500013.2097176414
endloop
endfacet
facet normal 0 1 0
outer loop
vertex 175581.2898145155 100000 882706.7523629074
vertex 748322.6510722907 100000 -500013.2097176414
vertex 636396.1030678926 100000 -636396.1030678927
endloop
endfacet
facet normal 0 1 0
outer loop
vertex 175581.2898145155 100000 882706.7523629074
vertex 636396.1030678926 100000 -636396.1030678927
vertex 500013.20971764164 100000 -748322.6510722907
endloop
endfacet
facet normal 0 1 0
outer loop
vertex 175581.2898145155 100000 882706.7523629074
vertex 500013.20971764164 100000 -748322.6510722907
vertex 344415.089128581 100000 -831491.5792601579
endloop
endfacet
facet normal 0 1 0
outer loop
vertex 175581.2898145155 100000 882706.7523629074
vertex 344415.089128581 100000 -831491.5792601579
vertex 175581.28981451548 100000 -882706.7523629073
endloop
endfacet
facet normal 0 1 0
outer loop
vertex 175581.2898145155 100000 882706.7523629074
vertex 175581.28981451548 100000 -882706.7523629073
vertex -1.6653345369377348e-10 100000 -900000
endloop
endfacet
facet normal 0 1 0
outer loop
vertex 175581.2898145155 100000 882706.7523629074
vertex -1.6653345369377348e-10 100000 -900000
vertex -175581.2898145158 100000 -882706.7523629073
endloop
endfacet
facet normal 0 1 0
outer loop
vertex 175581.2898145155 100000 882706.7523629074
vertex -175581.2898145158 100000 -882706.7523629073
vertex -344415.08912858134 100000 -831491.5792601579
endloop
endfacet
facet normal 0 1 0
outer loop
vertex 175581.2898145155 100000 882706.7523629074
vertex -344415.08912858134 100000 -831491.5792601579
vertex -500013.20971764193 100000 -748322.6510722907
endloop
endfacet
facet normal 0 1 0
outer loop
vertex 175581.2898145155 100000 882706.7523629074
vertex -500013.20971764193 100000 -748322.6510722907
vertex -636396.103067893 100000 -636396.1030678927
endloop
endfacet
facet normal 0 1 0
outer loop
vertex 175581.2898145155 100000 882706.7523629074
vertex -636396.103067893 100000 -636396.1030678927
vertex -748322.6510722911 100000 -500013.2097176414
endloop
endfacet
facet normal 0 1 0
outer loop
vertex 175581.2898145155 100000 882706.7523629074
vertex -748322.6510722911 100000 -500013.2097176414
vertex -831491.5792601582 100000 -344415.0891285803
endloop
endfacet
facet normal 0 1 0
outer loop
vertex 175581.2898145155 100000 882706.7523629074
vertex -831491.5792601582 100000 -344415.0891285803
vertex -882706.7523629073 100000 -175581.28981451594
endloop
endfacet
facet normal 0 1 0
outer loop
vertex 175581.2898145155 100000 882706.7523629074
vertex -882706.7523629073 100000 -175581.28981451594
vertex -900000 100000 0
endloop
endfacet
facet normal 0 1 0
outer loop
vertex 175581.2898145155 100000 882706.7523629074
vertex -900000 100000 0
vertex -882706.7523629074 100000 175581.28981451542
endloop
endfacet
facet normal 0 1 0
outer loop
vertex 175581.2898145155 100000 882706.7523629074
vertex -882706.7523629074 100000 175581.28981451542
vertex -831491.579260158 100000 344415.0891285808
endloop
endfacet
facet normal 0 1 0
outer loop
vertex 175581.2898145155 100000 882706.7523629074
vertex -831491.579260158 100000 344415.0891285808
vertex -748322.6510722908 100000 500013.20971764193
endloop
endfacet
facet normal 0 1 0
outer loop
vertex 175581.2898145155 100000 882706.7523629074
vertex -748322.6510722908 100000 500013.20971764193
vertex -636396.1030678927 100000 636396.1030678927
endloop
endfacet
facet normal 0 1 0
outer loop
vertex 175581.2898145155 100000 882706.7523629074
vertex -636396.1030678927 100000 636396.1030678927
vertex -500013.20971764176 100000 748322.6510722907
endloop
endfacet
facet normal 0 1 0
outer loop
vertex 175581.2898145155 100000 882706.7523629074
vertex -500013.20971764176 100000 748322.6510722907
vertex -344415.08912858076 100000 831491.579260158
endloop
endfacet
facet normal 0 1 0
outer loop
vertex 175581.2898145155 100000 882706.7523629074
vertex -344415.08912858076 100000 831491.579260158
vertex -175581.28981451518 100000 882706.7523629074
endloop
endfacet
facet normal 0 1 0
outer loop
vertex 175581.2898145155 100000 882706.7523629074
vertex -175581.28981451518 100000 882706.7523629074
vertex 5.5109105961630896e-11 100000 900000
endloop
endfacet
facet normal -0.9951847266721969 0 -0.09801714032956073
outer loop
vertex 882706.7523629074 2000000 175581.28981451542
vertex 900000 2000000 0
vertex 900000 100000 0
endloop
endfacet
facet normal -0.9951847266721969 0 -0.09801714032956073
outer loop
vertex 882706.7523629074 2000000 175581.28981451542
vertex 900000 100000 0
vertex 882706.7523629074 100000 175581.28981451542
endloop
endfacet
facet normal -0.9569403357322088 0 -0.2902846772544622
outer loop
vertex 831491.579260158 2000000 344415.0891285808
vertex 882706.7523629074 2000000 175581.28981451542
vertex 882706.7523629074 100000 175581.28981451542
endloop
endfacet
facet normal -0.9569403357322088 0 -0.2902846772544622
outer loop
vertex 831491.579260158 2000000 344415.0891285808
vertex 882706.7523629074 100000 175581.28981451542
vertex 831491.579260158 100000 344415.0891285808
endloop
endfacet
facet normal -0.8819212643483549 0 -0.4713967368259979
outer loop
vertex 748322.6510722907 2000000 500013.20971764193
vertex 831491.579260158 2000000 344415.0891285808
vertex 831491.579260158 100000 344415.0891285808
endloop
endfacet
facet normal -0.8819212643483549 0 -0.4713967368259979
outer loop
vertex 748322.6510722907 2000000 500013.20971764193
vertex 831491.579260158 100000 344415.0891285808
vertex 748322.6510722907 100000 500013.20971764193
endloop
endfacet
facet normal -0.7730104533627371 0 -0.6343932841636454
outer loop
vertex 636396.1030678928 2000000 636396.1030678927
vertex 748322.6510722907 2000000 500013.20971764193
vertex 748322.6510722907 100000 500013.20971764193
endloop
endfacet
facet normal -0.7730104533627371 0 -0.6343932841636454
outer loop
vertex 636396.1030678928 2000000 636396.1030678927
vertex 748322.6510722907 100000 500013.20971764193
vertex 636396.1030678928 100000 636396.1030678927
endloop
endfacet
facet normal -0.6343932841636458 0 -0.7730104533627367
outer loop
vertex 500013.20971764205 2000000 748322.6510722907
vertex 636396.1030678928 2000000 636396.1030678927
vertex 636396.1030678928 100000 636396.1030678927
endloop
endfacet
facet normal -0.6343932841636458 0 -0.7730104533627367
outer loop
vertex 500013.20971764205 2000000 748322.6510722907
vertex 636396.1030678928 100000 636396.1030678927
vertex 500013.20971764205 100000 748322.6510722907
endloop
endfacet
facet normal -0.4713967368259976 0 -0.881921264348355
outer loop
vertex 344415.0891285809 2000000 831491.579260158
vertex 500013.20971764205 2000000 748322.6510722907
vertex 500013.20971764205 100000 748322.6510722907
endloop
endfacet
facet normal -0.4713967368259976 0 -0.881921264348355
outer loop
vertex 344415.0891285809 2000000 831491.579260158
vertex 500013.20971764205 100000 748322.6510722907
vertex 344415.0891285809 100000 831491.579260158
endloop
endfacet
facet normal -0.29028467725446233 0 -0.9569403357322088
outer loop
vertex 175581.2898145155 2000000 882706.7523629074
vertex 344415.0891285809 2000000 831491.579260158
vertex 344415.0891285809 100000 831491.579260158
endloop
endfacet
facet normal -0.29028467725446233 0 -0.9569403357322088
outer loop
vertex 175581.2898145155 2000000 882706.7523629074
vertex 344415.0891285809 100000 831491.579260158
vertex 175581.2898145155 100000 882706.7523629074
endloop
endfacet
facet normal -0.0980171403295606 0 -0.9951847266721969
outer loop
vertex 5.5109105961630896e-11 2000000 900000
vertex 175581.2898145155 2000000 882706.7523629074
vertex 175581.2898145155 100000 882706.7523629074
endloop
endfacet
facet normal -0.0980171403295606 0 -0.9951847266721969
outer loop
vertex 5.5109105961630896e-11 2000000 900000
vertex 175581.2898145155 100000 882706.7523629074
vertex 5.5109105961630896e-11 100000 900000
endloop
endfacet
facet normal 0.09801714032956027 0 -0.9951847266721969
outer loop
vertex -175581.28981451518 2000000 882706.7523629075
vertex 5.5109105961630896e-11 2000000 900000
vertex 5.5109105961630896e-11 100000 900000
endloop
endfacet
facet normal 0.09801714032956027 0 -0.9951847266721969
outer loop
vertex -175581.28981451518 2000000 882706.7523629075
vertex 5.5109105961630896e-11 100000 900000
vertex -175581.28981451518 100000 882706.7523629074
endloop
endfacet
facet normal 0.2902846772544625 0 -0.9569403357322087
outer loop
vertex -344415.08912858076 2000000 831491.579260158
vertex -175581.28981451518 2000000 882706.7523629075
vertex -175581.28981451518 100000 882706.7523629074
endloop
endfacet
facet normal 0.2902846772544625 0 -0.9569403357322087
outer loop
vertex -344415.08912858076 2000000 831491.579260158
vertex -175581.28981451518 100000 882706.7523629074
vertex -344415.08912858076 100000 831491.579260158
endloop
endfacet
facet normal 0.47139673682599764 0 -0.8819212643483549
outer loop
vertex -500013.20971764176 2000000 748322.6510722908
vertex -344415.08912858076 2000000 831491.579260158
vertex -344415.08912858076 100000 831491.579260158
endloop
endfacet
facet normal 0.47139673682599764 0 -0.8819212643483549
outer loop
vertex -500013.20971764176 2000000 748322.6510722908
vertex -344415.08912858076 100000 831491.579260158
vertex -500013.20971764176 100000 748322.6510722907
endloop
endfacet
facet normal 0.6343932841636453 0 -0.7730104533627372
outer loop
vertex -636396.1030678927 2000000 636396.1030678928
vertex -500013.20971764176 2000000 748322.6510722908
vertex -500013.20971764176 100000 748322.6510722907
endloop
endfacet
facet normal 0.6343932841636453 0 -0.7730104533627372
outer loop
vertex -636396.1030678927 2000000 636396.1030678928
vertex -500013.20971764176 100000 748322.6510722907
vertex -636396.1030678927 100000 636396.1030678927
endloop
endfacet
facet normal 0.7730104533627367 0 -0.6343932841636457
outer loop
vertex -748322.6510722908 2000000 500013.20971764193
vertex -636396.1030678927 2000000 636396.1030678928
vertex -636396.1030678927 100000 636396.1030678927
endloop
endfacet
facet normal 0.7730104533627367 0 -0.6343932841636457
outer loop
vertex -748322.6510722908 2000000 500013.20971764193
vertex -636396.1030678927 100000 636396.1030678927
vertex -748322.6510722908 100000 500013.20971764193
endloop
endfacet
facet normal 0.8819212643483552 0 -0.4713967368259974
outer loop
vertex -831491.579260158 2000000 344415.08912858093
vertex -748322.6510722908 2000000 500013.20971764193
vertex -748322.6510722908 100000 500013.20971764193
endloop
endfacet
facet normal 0.8819212643483552 0 -0.4713967368259974
outer loop
vertex -831491.579260158 2000000 344415.08912858093
vertex -748322.6510722908 100000 500013.20971764193
vertex -831491.579260158 100000 344415.0891285808
endloop
endfacet
facet normal 0.9569403357322087 0 -0.29028467725446283
outer loop
vertex -882706.7523629074 2000000 175581.28981451577
vertex -831491.579260158 2000000 344415.08912858093
vertex -831491.579260158 100000 344415.0891285808
endloop
endfacet
facet normal 0.9569403357322087 0 -0.29028467725446283
outer loop
vertex -882706.7523629074 2000000 175581.28981451577
vertex -831491.579260158 100000 344415.0891285808
vertex -882706.7523629074 100000 175581.28981451542
endloop
endfacet
facet normal 0.9951847266721969 0 -0.0980171403295606
outer loop
vertex -900000 2000000 1.1021821192326179e-10
vertex -882706.7523629074 2000000 175581.28981451577
vertex -882706.7523629074 100000 175581.28981451542
endloop
endfacet
facet normal 0.9951847266721969 0 -0.0980171403295606
outer loop
vertex -900000 2000000 1.1021821192326179e-10
vertex -882706.7523629074 100000 175581.28981451542
vertex -900000 100000 0
endloop
endfacet
facet normal 0.9951847266721969 0 0.09801714032956083
outer loop
vertex -882706.7523629073 2000000 -175581.28981451594
vertex -900000 2000000 1.1021821192326179e-10
vertex -900000 100000 0
endloop
endfacet
facet normal 0.9951847266721969 0 0.09801714032956083
outer loop
vertex -882706.7523629073 2000000 -175581.28981451594
vertex -900000 100000 0
vertex -882706.7523629073 100000 -175581.28981451594
endloop
endfacet
facet normal 0.9569403357322088 0 0.2902846772544624
outer loop
vertex -831491.5792601582 2000000 -344415.0891285803
vertex -882706.7523629073 2000000 -175581.28981451594
vertex -882706.7523629073 100000 -175581.28981451594
endloop
endfacet
facet normal 0.9569403357322088 0 0.2902846772544624
outer loop
vertex -831491.5792601582 2000000 -344415.0891285803
vertex -882706.7523629073 100000 -175581.28981451594
vertex -831491.5792601582 100000 -344415.0891285803
endloop
endfacet
facet normal 0.8819212643483553 0 0.4713967368259972
outer loop
vertex -748322.6510722911 2000000 -500013.2097176414
vertex -831491.5792601582 2000000 -344415.0891285803
vertex -831491.5792601582 100000 -344415.0891285803
endloop
endfacet
facet normal 0.8819212643483553 0 0.4713967368259972
outer loop
vertex -748322.6510722911 2000000 -500013.2097176414
vertex -831491.5792601582 100000 -344415.0891285803
vertex -748322.6510722911 100000 -500013.2097176414
endloop
endfacet
facet normal 0.7730104533627377 0 0.6343932841636447
outer loop
vertex -636396.103067893 2000000 -636396.1030678927
vertex -748322.6510722911 2000000 -500013.2097176414
vertex -748322.6510722911 100000 -500013.2097176414
endloop
endfacet
facet normal 0.7730104533627377 0 0.6343932841636447
outer loop
vertex -636396.103067893 2000000 -636396.1030678927
vertex -748322.6510722911 100000 -500013.2097176414
vertex -636396.103067893 100000 -636396.1030678927
endloop
endfacet
facet normal 0.6343932841636453 0 0.7730104533627371
outer loop
vertex -500013.20971764193 2000000 -748322.6510722907
vertex -636396.103067893 2000000 -636396.1030678927
vertex -636396.103067893 100000 -636396.1030678927
endloop
endfacet
facet normal 0.6343932841636453 0 0.7730104533627371
outer loop
vertex -500013.20971764193 2000000 -748322.6510722907
vertex -636396.103067893 100000 -636396.1030678927
vertex -500013.20971764193 100000 -748322.6510722907
endloop
endfacet
facet normal 0.47139673682599803 0 0.8819212643483548
outer loop
vertex -344415.08912858134 2000000 -831491.5792601579
vertex -500013.20971764193 2000000 -748322.6510722907
vertex -500013.20971764193 100000 -748322.6510722907
endloop
endfacet
facet normal 0.47139673682599803 0 0.8819212643483548
outer loop
vertex -344415.08912858134 2000000 -831491.5792601579
vertex -500013.20971764193 100000 -748322.6510722907
vertex -344415.08912858134 100000 -831491.5792601579
endloop
endfacet
facet normal 0.29028467725446266 0 0.9569403357322088
outer loop
vertex -175581.2898145158 2000000 -882706.7523629073
vertex -344415.08912858134 2000000 -831491.5792601579
vertex -344415.08912858134 100000 -831491.5792601579
endloop
endfacet
facet normal 0.29028467725446266 0 0.9569403357322088
outer loop
vertex -175581.2898145158 2000000 -882706.7523629073
vertex -344415.08912858134 100000 -831491.5792601579
vertex -175581.2898145158 100000 -882706.7523629073
endloop
endfacet
facet normal 0.0980171403295612 0 0.9951847266721968
outer loop
vertex -1.6532731788489268e-10 2000000 -900000
vertex -175581.2898145158 2000000 -882706.7523629073
vertex -175581.2898145158 100000 -882706.7523629073
endloop
endfacet
facet normal 0.0980171403295612 0 0.9951847266721968
outer loop
vertex -1.6532731788489268e-10 2000000 -900000
vertex -175581.2898145158 100000 -882706.7523629073
vertex -1.6653345369377348e-10 100000 -900000
endloop
endfacet
facet normal -0.09801714032956049 0 0.9951847266721969
outer loop
vertex 175581.28981451548 2000000 -882706.7523629074
vertex -1.6532731788489268e-10 2000000 -900000
vertex -1.6653345369377348e-10 100000 -900000
endloop
endfacet
facet normal -0.09801714032956049 0 0.9951847266721969
outer loop
vertex 175581.28981451548 2000000 -882706.7523629074
vertex -1.6653345369377348e-10 100000 -900000
vertex 175581.28981451548 100000 -882706.7523629073
endloop
endfacet
facet normal -0.2902846772544627 0 0.9569403357322087
outer loop
vertex 344415.089128581 2000000 -831491.5792601579
vertex 175581.28981451548 2000000 -882706.7523629074
vertex 175581.28981451548 100000 -882706.7523629073
endloop
endfacet
facet normal -0.2902846772544627 0 0.9569403357322087
outer loop
vertex 344415.089128581 2000000 -831491.5792601579
vertex 175581.28981451548 100000 -882706.7523629073
vertex 344415.089128581 100000 -831491.5792601579
endloop
endfacet
facet normal -0.47139673682599764 0 0.881921264348355
outer loop
vertex 500013.20971764164 2000000 -748322.651072291
vertex 344415.089128581 2000000 -831491.5792601579
vertex 344415.089128581 100000 -831491.5792601579
endloop
endfacet
facet normal -0.47139673682599764 0 0.881921264348355
outer loop
vertex 500013.20971764164 2000000 -748322.651072291
vertex 344415.089128581 100000 -831491.5792601579
vertex 500013.20971764164 100000 -748322.6510722907
endloop
endfacet
facet normal -0.6343932841636453 0 0.7730104533627372
outer loop
vertex 636396.1030678926 2000000 -636396.103067893
vertex 500013.20971764164 2000000 -748322.651072291
vertex 500013.20971764164 100000 -748322.6510722907
endloop
endfacet
facet normal -0.6343932841636453 0 0.7730104533627372
outer loop
vertex 636396.1030678926 2000000 -636396.103067893
vertex 500013.20971764164 100000 -748322.6510722907
vertex 636396.1030678926 100000 -636396.1030678927
endloop
endfacet
facet normal -0.7730104533627367 0 0.6343932841636457
outer loop
vertex 748322.6510722907 2000000 -500013.20971764193
vertex 636396.1030678926 2000000 -636396.103067893
vertex 636396.1030678926 100000 -636396.1030678927
endloop
endfacet
facet normal -0.7730104533627367 0 0.6343932841636457
outer loop
vertex 748322.6510722907 2000000 -500013.20971764193
vertex 636396.1030678926 100000 -636396.1030678927
vertex 748322.6510722907 100000 -500013.2097176414
endloop
endfacet
facet normal -0.8819212643483548 0 0.471396736825998
outer loop
vertex 831491.5792601579 2000000 -344415.0891285814
vertex 748322.6510722907 2000000 -500013.20971764193
vertex 748322.6510722907 100000 -500013.2097176414
endloop
endfacet
facet normal -0.8819212643483548 0 0.471396736825998
outer loop
vertex 831491.5792601579 2000000 -344415.0891285814
vertex 748322.6510722907 100000 -500013.2097176414
vertex 831491.5792601579 100000 -344415.0891285803
endloop
endfacet
facet normal -0.9569403357322088 0 0.29028467725446266
outer loop
vertex 882706.7523629073 2000000 -175581.28981451585
vertex 831491.5792601579 2000000 -344415.0891285814
vertex 831491.5792601579 100000 -344415.0891285803
endloop
endfacet
facet normal -0.9569403357322088 0 0.29028467725446266
outer loop
vertex 882706.7523629073 2000000 -175581.28981451585
vertex 831491.5792601579 100000 -344415.0891285803
vertex 882706.7523629073 100000 -175581.28981451594
endloop
endfacet
facet normal -0.9951847266721968 0 0.0980171403295612
outer loop
vertex 900000 2000000 0
vertex 882706.7523629073 2000000 -175581.28981451585
vertex 882706.7523629073 100000 -175581.28981451594
endloop
endfacet
facet normal -0.9951847266721968 0 0.0980171403295612
outer loop
vertex 900000 2000000 0
vertex 882706.7523629073 100000 -175581.28981451594
vertex 900000 100000 0
endloop
endfacet
facet normal 0 1 0
outer loop
vertex 195090.32201612834 2000000 980785.2804032305
vertex 382683.43236508983 2000000 923879.5325112868
vertex 427358.89542875346 2000000 900000.0000000002
endloop
endfacet
facet normal 0 1 0
outer loop
vertex 195090.32201612834 2000000 980785.2804032305
vertex 427358.89542875346 2000000 900000.0000000002
vertex -427358.89542875346 2000000 900000.0000000002
endloop
endfacet
facet normal 0 1 0
outer loop
vertex 195090.32201612834 2000000 980785.2804032305
vertex -427358.89542875346 2000000 900000.0000000002
vertex -382683.4323650897 2000000 923879.5325112868
endloop
endfacet
facet normal 0 1 0
outer loop
vertex 195090.32201612834 2000000 980785.2804032305
vertex -382683.4323650897 2000000 923879.5325112868
vertex -195090.32201612796 2000000 980785.2804032306
endloop
endfacet
facet normal 0 1 0
outer loop
vertex 195090.32201612834 2000000 980785.2804032305
vertex -195090.32201612796 2000000 980785.2804032306
vertex 6.123233995736767e-11 2000000 1000000
endloop
endfacet
facet normal 0 1 0
outer loop
vertex 5.5109105961630896e-11 2000000 900000
vertex -175581.28981451518 2000000 882706.7523629075
vertex -459712.28617024154 2000000 882706.7523629075
endloop
endfacet
facet normal 0 1 0
outer loop
vertex 5.5109105961630896e-11 2000000 900000
vertex -459712.28617024154 2000000 882706.7523629075
vertex -427358.89542875346 2000000 900000.0000000002
endloop
endfacet
facet normal 0 1 0
outer loop
vertex 427358.89542875346 2000000 900000.0000000002
vertex 459712.28617024154 2000000 882706.7523629075
vertex 175581.2898145155 2000000 882706.7523629074
endloop
endfacet
facet normal 0 1 0
outer loop
vertex 427358.89542875346 2000000 900000.0000000002
vertex 175581.2898145155 2000000 882706.7523629074
vertex 5.5109105961630896e-11 2000000 900000
endloop
endfacet
facet normal 0 1 0
outer loop
vertex -175581.28981451518 2000000 882706.7523629075
vertex -344415.08912858076 2000000 831491.579260158
vertex -555529.1357325002 2000000 831491.579260158
endloop
endfacet
facet normal 0 1 0
outer loop
vertex -175581.28981451518 2000000 882706.7523629075
vertex -555529.1357325002 2000000 831491.579260158
vertex -459712.28617024154 2000000 882706.7523629075
endloop
endfacet
facet normal 0 1 0
outer loop
vertex 459712.28617024154 2000000 882706.7523629075
vertex 555529.1357325005 2000000 831491.579260158
vertex 344415.0891285809 2000000 831491.579260158
endloop
endfacet
facet normal 0 1 0
outer loop
vertex 459712.28617024154 2000000 882706.7523629075
vertex 344415.0891285809 2000000 831491.579260158
vertex 175581.2898145155 2000000 882706.7523629074
endloop
endfacet
facet normal 0 1 0
outer loop
vertex -344415.08912858076 2000000 831491.579260158
vertex -500013.20971764176 2000000 748322.6510722908
vertex -656885.098420594 2000000 748322.6510722908
endloop
endfacet
facet normal 0 1 0
outer loop
vertex -344415.08912858076 2000000 831491.579260158
vertex -656885.098420594 2000000 748322.6510722908
vertex -555570.2330196019 2000000 831469.6123025453
endloop
endfacet
facet normal 0 1 0
outer loop
vertex -344415.08912858076 2000000 831491.579260158
vertex -555570.2330196019 2000000 831469.6123025453
vertex -555529.1357325002 2000000 831491.579260158
endloop
endfacet
facet normal 0 1 0
outer loop
vertex 555529.1357325005 2000000 831491.579260158
vertex 555570.2330196023 2000000 831469.6123025452
vertex 656885.0984205941 2000000 748322.6510722908
endloop
endfacet
facet normal 0 1 0
outer loop
vertex 555529.1357325005 2000000 831491.579260158
vertex 656885.0984205941 2000000 748322.6510722908
vertex 500013.20971764205 2000000 748322.6510722907
endloop
endfacet
facet normal 0 1 0
outer loop
vertex 555529.1357325005 2000000 831491.579260158
vertex 500013.20971764205 2000000 748322.6510722907
vertex 344415.0891285809 2000000 831491.579260158
endloop
endfacet
facet normal 0 1 0
outer loop
vertex -500013.20971764176 2000000 748322.6510722908
vertex -636396.1030678927 2000000 636396.1030678928
vertex -765137.5350036398 2000000 636396.1030678928
endloop
endfacet
facet normal 0 1 0
outer loop
vertex -500013.20971764176 2000000 748322.6510722908
vertex -765137.5350036398 2000000 636396.1030678928
vertex -707106.7811865475 2000000 707106.7811865476
endloop
endfacet
facet normal 0 1 0
outer loop
vertex -500013.20971764176 2000000 748322.6510722908
vertex -707106.7811865475 2000000 707106.7811865476
vertex -656885.098420594 2000000 748322.6510722908
endloop
endfacet
facet normal 0 1 0
outer loop
vertex 656885.0984205941 2000000 748322.6510722908
vertex 707106.7811865476 2000000 707106.7811865475
vertex 765137.5350036398 2000000 636396.1030678928
endloop
endfacet
facet normal 0 1 0
outer loop
vertex 656885.0984205941 2000000 748322.6510722908
vertex 765137.5350036398 2000000 636396.1030678928
vertex 636396.1030678928 2000000 636396.1030678927
endloop
endfacet
facet normal 0 1 0
outer loop
vertex 656885.0984205941 2000000 748322.6510722908
vertex 636396.1030678928 2000000 636396.1030678927
vertex 500013.20971764205 2000000 748322.6510722907
endloop
endfacet
facet normal 0 1 0
outer loop
vertex -636396.1030678927 2000000 636396.1030678928
vertex -748322.6510722908 2000000 500013.20971764193
vertex -861165.4599377208 2000000 500013.20971764193
endloop
endfacet
facet normal 0 1 0
outer loop
vertex -636396.1030678927 2000000 636396.1030678928
vertex -861165.4599377208 2000000 500013.20971764193
vertex -831469.6123025453 2000000 555570.2330196021
endloop
endfacet
facet normal 0 1 0
outer loop
vertex -636396.1030678927 2000000 636396.1030678928
vertex -831469.6123025453 2000000 555570.2330196021
vertex -765137.5350036398 2000000 636396.1030678928
endloop
endfacet
facet normal 0 1 0
outer loop
vertex 765137.5350036398 2000000 636396.1030678928
vertex 831469.6123025452 2000000 555570.2330196021
vertex 861165.4599377206 2000000 500013.20971764193
endloop
endfacet
facet normal 0 1 0
outer loop
vertex 765137.5350036398 2000000 636396.1030678928
vertex 861165.4599377206 2000000 500013.20971764193
vertex 748322.6510722907 2000000 500013.20971764193
endloop
endfacet
facet normal 0 1 0
outer loop
vertex 765137.5350036398 2000000 636396.1030678928
vertex 748322.6510722907 2000000 500013.20971764193
vertex 636396.1030678928 2000000 636396.1030678927
endloop
endfacet
facet normal 0 1 0
outer loop
vertex -748322.6510722908 2000000 500013.20971764193
vertex -831491.579260158 2000000 344415.08912858093
vertex -935488.1075192293 2000000 344415.08912858093
endloop
endfacet
facet normal 0 1 0
outer loop
vertex -748322.6510722908 2000000 500013.20971764193
vertex -935488.1075192293 2000000 344415.08912858093
vertex -923879.5325112868 2000000 382683.4323650899
endloop
endfacet
facet normal 0 1 0
outer loop
vertex -748322.6510722908 2000000 500013.20971764193
vertex -923879.5325112868 2000000 382683.4323650899
vertex -861165.4599377208 2000000 500013.20971764193
endloop
endfacet
facet normal 0 1 0
outer loop
vertex 861165.4599377206 2000000 500013.20971764193
vertex 923879.5325112868 2000000 382683.4323650898
vertex 935488.1075192292 2000000 344415.08912858093
endloop
endfacet
facet normal 0 1 0
outer loop
vertex 861165.4599377206 2000000 500013.20971764193
vertex 935488.1075192292 2000000 344415.08912858093
vertex 831491.579260158 2000000 344415.0891285808
endloop
endfacet
facet normal 0 1 0
outer loop
vertex 861165.4599377206 2000000 500013.20971764193
vertex 831491.579260158 2000000 344415.0891285808
vertex 748322.6510722907 2000000 500013.20971764193
endloop
endfacet
facet normal 0 1 0
outer loop
vertex -831491.579260158 2000000 344415.08912858093
vertex -882706.7523629074 2000000 175581.28981451577
vertex -982706.7523629074 2000000 175581.28981451577
endloop
endfacet
facet normal 0 1 0
outer loop
vertex -831491.579260158 2000000 344415.08912858093
vertex -982706.7523629074 2000000 175581.28981451577
vertex -980785.2804032305 2000000 195090.3220161286
endloop
endfacet
facet normal 0 1 0
outer loop
vertex -831491.579260158 2000000 344415.08912858093
vertex -980785.2804032305 2000000 195090.3220161286
vertex -935488.1075192293 2000000 344415.08912858093
endloop
endfacet
facet normal 0 1 0
outer loop
vertex 935488.1075192292 2000000 344415.08912858093
vertex 980785.2804032305 2000000 195090.32201612825
vertex 982706.7523629074 2000000 175581.28981451577
endloop
endfacet
facet normal 0 1 0
outer loop
vertex 935488.1075192292 2000000 344415.08912858093
vertex 982706.7523629074 2000000 175581.28981451577
vertex 882706.7523629074 2000000 175581.28981451542
endloop
endfacet
facet normal 0 1 0
outer loop
vertex 935488.1075192292 2000000 344415.08912858093
vertex 882706.7523629074 2000000 175581.28981451542
vertex 831491.579260158 2000000 344415.0891285808
endloop
endfacet
facet normal 0 1 0
outer loop
vertex -882706.7523629074 2000000 175581.28981451577
vertex -900000 2000000 1.1021821192326179e-10
vertex -1000000 2000000 1.2246467991473533e-10
endloop
endfacet
facet normal 0 1 0
outer loop
vertex -882706.7523629074 2000000 175581.28981451577
vertex -1000000 2000000 1.2246467991473533e-10
vertex -982706.7523629074 2000000 175581.28981451577
endloop
endfacet
facet normal 0 1 0
outer loop
vertex 982706.7523629074 2000000 175581.28981451577
vertex 1000000 2000000 1.1021821192326179e-10
vertex 900000 2000000 0
endloop
endfacet
facet normal 0 1 0
outer loop
vertex 982706.7523629074 2000000 175581.28981451577
vertex 900000 2000000 0
vertex 882706.7523629074 2000000 175581.28981451542
endloop
endfacet
facet normal 0 1 0
outer loop
vertex -900000 2000000 1.1021821192326179e-10
vertex -882706.7523629073 2000000 -175581.28981451594
vertex -982706.7523629073 2000000 -175581.28981451594
endloop
endfacet
facet normal 0 1 0
outer loop
vertex -900000 2000000 1.1021821192326179e-10
vertex -982706.7523629073 2000000 -175581.28981451594
vertex -1000000 2000000 1.2246467991473533e-10
endloop
endfacet
facet normal 0 1 0
outer loop
vertex 1000000 2000000 1.1021821192326179e-10
vertex 982706.7523629073 2000000 -175581.28981451594
vertex 882706.7523629073 2000000 -175581.28981451585
endloop
endfacet
facet normal 0 1 0
outer loop
vertex 1000000 2000000 1.1021821192326179e-10
vertex 882706.7523629073 2000000 -175581.28981451585
vertex 900000 2000000 0
endloop
endfacet
facet normal 0 1 0
outer loop
vertex -882706.7523629073 2000000 -175581.28981451594
vertex -831491.5792601582 2000000 -344415.0891285803
vertex -935488.1075192294 2000000 -344415.0891285803
endloop
endfacet
facet normal 0 1 0
outer loop
vertex -882706.7523629073 2000000 -175581.28981451594
vertex -935488.1075192294 2000000 -344415.0891285803
vertex -980785.2804032303 2000000 -195090.3220161288
endloop
endfacet
facet normal 0 1 0
outer loop
vertex -882706.7523629073 2000000 -175581.28981451594
vertex -980785.2804032303 2000000 -195090.3220161288
vertex -982706.7523629073 2000000 -175581.28981451594
endloop
endfacet
facet normal 0 1 0
outer loop
vertex 982706.7523629073 2000000 -175581.28981451594
vertex 980785.2804032303 2000000 -195090.32201612872
vertex 935488.1075192294 2000000 -344415.0891285803
endloop
endfacet
facet normal 0 1 0
outer loop
vertex 982706.7523629073 2000000 -175581.28981451594
vertex 935488.1075192294 2000000 -344415.0891285803
vertex 831491.5792601579 2000000 -344415.0891285814
endloop
endfacet
facet normal 0 1 0
outer loop
vertex 982706.7523629073 2000000 -175581.28981451594
vertex 831491.5792601579 2000000 -344415.0891285814
vertex 882706.7523629073 2000000 -175581.28981451585
endloop
endfacet
facet normal 0 1 0
outer loop
vertex -831491.5792601582 2000000 -344415.0891285803
vertex -748322.6510722911 2000000 -500013.2097176414
vertex -861165.4599377209 2000000 -500013.2097176414
endloop
endfacet
facet normal 0 1 0
outer loop
vertex -831491.5792601582 2000000 -344415.0891285803
vertex -861165.4599377209 2000000 -500013.2097176414
vertex -923879.5325112869 2000000 -382683.43236508925
endloop
endfacet
facet normal 0 1 0
outer loop
vertex -831491.5792601582 2000000 -344415.0891285803
vertex -923879.5325112869 2000000 -382683.43236508925
vertex -935488.1075192294 2000000 -344415.0891285803
endloop
endfacet
facet normal 0 1 0
outer loop
vertex 935488.1075192294 2000000 -344415.0891285803
vertex 923879.5325112866 2000000 -382683.4323650904
vertex 861165.4599377208 2000000 -500013.2097176414
endloop
endfacet
facet normal 0 1 0
outer loop
vertex 935488.1075192294 2000000 -344415.0891285803
vertex 861165.4599377208 2000000 -500013.2097176414
vertex 748322.6510722907 2000000 -500013.20971764193
endloop
endfacet
facet normal 0 1 0
outer loop
vertex 935488.1075192294 2000000 -344415.0891285803
vertex 748322.6510722907 2000000 -500013.20971764193
vertex 831491.5792601579 2000000 -344415.0891285814
endloop
endfacet
facet normal 0 1 0
outer loop
vertex -748322.6510722911 2000000 -500013.2097176414
vertex -636396.103067893 2000000 -636396.1030678927
vertex -765137.5350036399 2000000 -636396.1030678927
endloop
endfacet
facet normal 0 1 0
outer loop
vertex -748322.6510722911 2000000 -500013.2097176414
vertex -765137.5350036399 2000000 -636396.1030678927
vertex -831469.6123025457 2000000 -555570.2330196016
endloop
endfacet
facet normal 0 1 0
outer loop
vertex -748322.6510722911 2000000 -500013.2097176414
vertex -831469.6123025457 2000000 -555570.2330196016
vertex -861165.4599377209 2000000 -500013.2097176414
endloop
endfacet
facet normal 0 1 0
outer loop
vertex 861165.4599377208 2000000 -500013.2097176414
vertex 831469.6123025452 2000000 -555570.2330196021
vertex 765137.5350036398 2000000 -636396.1030678927
endloop
endfacet
facet normal 0 1 0
outer loop
vertex 861165.4599377208 2000000 -500013.2097176414
vertex 765137.5350036398 2000000 -636396.1030678927
vertex 636396.1030678926 2000000 -636396.103067893
endloop
endfacet
facet normal 0 1 0
outer loop
vertex 861165.4599377208 2000000 -500013.2097176414
vertex 636396.1030678926 2000000 -636396.103067893
vertex 748322.6510722907 2000000 -500013.20971764193
endloop
endfacet
facet normal 0 1 0
outer loop
vertex -636396.103067893 2000000 -636396.1030678927
vertex -500013.20971764193 2000000 -748322.6510722907
vertex -656885.098420594 2000000 -748322.6510722907
endloop
endfacet
facet normal 0 1 0
outer loop
vertex -636396.103067893 2000000 -636396.1030678927
vertex -656885.098420594 2000000 -748322.6510722907
vertex -707106.7811865477 2000000 -707106.7811865475
endloop
endfacet
facet normal 0 1 0
outer loop
vertex -636396.103067893 2000000 -636396.1030678927
vertex -707106.7811865477 2000000 -707106.7811865475
vertex -765137.5350036399 2000000 -636396.1030678927
endloop
endfacet
facet normal 0 1 0
outer loop
vertex 765137.5350036398 2000000 -636396.1030678927
vertex 707106.7811865474 2000000 -707106.7811865477
vertex 656885.098420594 2000000 -748322.6510722907
endloop
endfacet
facet normal 0 1 0
outer loop
vertex 765137.5350036398 2000000 -636396.1030678927
vertex 656885.098420594 2000000 -748322.6510722907
vertex 500013.20971764164 2000000 -748322.651072291
endloop
endfacet
facet normal 0 1 0
outer loop
vertex 765137.5350036398 2000000 -636396.1030678927
vertex 500013.20971764164 2000000 -748322.651072291
vertex 636396.1030678926 2000000 -636396.103067893
endloop
endfacet
facet normal 0 1 0
outer loop
vertex -500013.20971764193 2000000 -748322.6510722907
vertex -344415.08912858134 2000000 -831491.5792601579
vertex -555529.1357325019 2000000 -831491.5792601579
endloop
endfacet
facet normal 0 1 0
outer loop
vertex -500013.20971764193 2000000 -748322.6510722907
vertex -555529.1357325019 2000000 -831491.5792601579
vertex -555570.2330196021 2000000 -831469.6123025452
endloop
endfacet
facet normal 0 1 0
outer loop
vertex -500013.20971764193 2000000 -748322.6510722907
vertex -555570.2330196021 2000000 -831469.6123025452
vertex -656885.098420594 2000000 -748322.6510722907
endloop
endfacet
facet normal 0 1 0
outer loop
vertex 656885.098420594 2000000 -748322.6510722907
vertex 555570.2330196018 2000000 -831469.6123025455
vertex 555529.1357325015 2000000 -831491.5792601579
endloop
endfacet
facet normal 0 1 0
outer loop
vertex 656885.098420594 2000000 -748322.6510722907
vertex 555529.1357325015 2000000 -831491.5792601579
vertex 344415.089128581 2000000 -831491.5792601579
endloop
endfacet
facet normal 0 1 0
outer loop
vertex 656885.098420594 2000000 -748322.6510722907
vertex 344415.089128581 2000000 -831491.5792601579
vertex 500013.20971764164 2000000 -748322.651072291
endloop
endfacet
facet normal 0 1 0
outer loop
vertex -344415.08912858134 2000000 -831491.5792601579
vertex -175581.2898145158 2000000 -882706.7523629073
vertex -459712.286170242 2000000 -882706.7523629073
endloop
endfacet
facet normal 0 1 0
outer loop
vertex -344415.08912858134 2000000 -831491.5792601579
vertex -459712.286170242 2000000 -882706.7523629073
vertex -555529.1357325019 2000000 -831491.5792601579
endloop
endfacet
facet normal 0 1 0
outer loop
vertex 555529.1357325015 2000000 -831491.5792601579
vertex 459712.28617024183 2000000 -882706.7523629073
vertex 175581.28981451548 2000000 -882706.7523629074
endloop
endfacet
facet normal 0 1 0
outer loop
vertex 555529.1357325015 2000000 -831491.5792601579
vertex 175581.28981451548 2000000 -882706.7523629074
vertex 344415.089128581 2000000 -831491.5792601579
endloop
endfacet
facet normal 0 1 0
outer loop
vertex -175581.2898145158 2000000 -882706.7523629073
vertex -1.6532731788489268e-10 2000000 -900000
vertex -427358.8954287538 2000000 -900000
endloop
endfacet
facet normal 0 1 0
outer loop
vertex -175581.2898145158 2000000 -882706.7523629073
vertex -427358.8954287538 2000000 -900000
vertex -459712.286170242 2000000 -882706.7523629073
endloop
endfacet
facet normal 0 1 0
outer loop
vertex 459712.28617024183 2000000 -882706.7523629073
vertex 427358.8954287535 2000000 -900000
vertex -1.6532731788489268e-10 2000000 -900000
endloop
endfacet
facet normal 0 1 0
outer loop
vertex 459712.28617024183 2000000 -882706.7523629073
vertex -1.6532731788489268e-10 2000000 -900000
vertex 175581.28981451548 2000000 -882706.7523629074
endloop
endfacet
facet normal 0 1 0
outer loop
vertex 427358.8954287535 2000000 -900000
vertex 382683.43236509 2000000 -923879.5325112867
vertex 195090.3220161283 2000000 -980785.2804032305
endloop
endfacet
facet normal 0 1 0
outer loop
vertex 427358.8954287535 2000000 -900000
vertex 195090.3220161283 2000000 -980785.2804032305
vertex -1.8369701987210297e-10 2000000 -1000000
endloop
endfacet
facet normal 0 1 0
outer loop
vertex 427358.8954287535 2000000 -900000
vertex -1.8369701987210297e-10 2000000 -1000000
vertex -195090.32201612866 2000000 -980785.2804032303
endloop
endfacet
facet normal 0 1 0
outer loop
vertex 427358.8954287535 2000000 -900000
vertex -195090.32201612866 2000000 -980785.2804032303
vertex -382683.43236509035 2000000 -923879.5325112866
endloop
endfacet
facet normal 0 1 0
outer loop
vertex 427358.8954287535 2000000 -900000
vertex -382683.43236509035 2000000 -923879.5325112866
vertex -427358.8954287538 2000000 -900000
endloop
endfacet
facet normal 0.9951847266721969 0 0.09801714032956074
outer loop
vertex 990150.8596642837 970.0556535263976 100000
vertex 990150.8596642837 0 100000
vertex 1000000 0 0
endloop
endfacet
facet normal 0.9951847266721969 0 0.09801714032956074
outer loop
vertex 1000000.0000000002 1900000.0000000012 0
vertex 990150.8596642837 1899029.944346475 100000
vertex 990150.8596642837 100970.05565352629 100000
endloop
endfacet
facet normal 0.9951847266721969 0 0.09801714032956074
outer loop
vertex 1000000.0000000002 1900000.0000000012 0
vertex 990150.8596642837 100970.05565352629 100000
vertex 1000000.0000000002 99999.99999999994 0
endloop
endfacet
facet normal 0.9951847266721969 0 0.09801714032956074
outer loop
vertex 990150.8596642837 2000000.000000001 100000
vertex 990150.8596642837 1999029.9443464745 100000
vertex 1000000 2000000 1.1021821192326179e-10
endloop
endfacet
facet normal 0.9951847266721969 0 0.09801714032956074
outer loop
vertex 990150.8596642837 2000000.000000001 100000
vertex 980785.2804032305 2000000 195090.32201612825
vertex 980785.2804032305 0 195090.32201612825
endloop
endfacet
facet normal 0.9951847266721969 0 0.09801714032956074
outer loop
vertex 990150.8596642837 2000000.000000001 100000
vertex 980785.2804032305 0 195090.32201612825
vertex 990150.8596642837 0 100000
endloop
endfacet
facet normal 0.9951847266721968 0 -0.09801714032956131
outer loop
vertex 980785.2804032303 2000000 -195090.32201612872
vertex 990150.8596642835 2000000 -100000
vertex 990150.8596642835 0 -100000
endloop
endfacet
facet normal 0.9951847266721968 0 -0.09801714032956131
outer loop
vertex 980785.2804032303 2000000 -195090.32201612872
vertex 990150.8596642835 0 -100000
vertex 980785.2804032303 0 -195090.3220161288
endloop
endfacet
facet normal 0.9951847266721968 0 -0.09801714032956131
outer loop
vertex 990150.8596642835 970.0556535263919 -100000
vertex 1000000 0 0
vertex 990150.8596642835 0 -100000
endloop
endfacet
facet normal 0.9951847266721968 0 -0.09801714032956131
outer loop
vertex 990150.8596642835 1899029.9443464736 -100000
vertex 1000000.0000000002 1900000.0000000012 0
vertex 1000000.0000000002 99999.99999999994 0
endloop
endfacet
facet normal 0.9951847266721968 0 -0.09801714032956131
outer loop
vertex 990150.8596642835 1899029.9443464736 -100000
vertex 1000000.0000000002 99999.99999999994 0
vertex 990150.8596642835 100970.05565352629 -100000
endloop
endfacet
facet normal 0.9951847266721968 0 -0.09801714032956131
outer loop
vertex 990150.8596642835 2000000 -100000
vertex 1000000 2000000 1.1021821192326179e-10
vertex 990150.8596642835 1999029.9443464736 -100000
endloop
endfacet
facet normal 0.9951847266721969 0.09801714032956073 0
outer loop
vertex 1980785.2804032303 1195090.322016128 100000
vertex 2000000 1000000 100000
vertex 2000000 1000000 -100000
endloop
endfacet
facet normal 0.9951847266721969 0.09801714032956073 0
outer loop
vertex 1980785.2804032303 1195090.322016128 100000
vertex 2000000 1000000 -100000
vertex 1980785.2804032303 1195090.322016128 -100000
endloop
endfacet
facet normal 0.9569403357322088 0.29028467725446216 0
outer loop
vertex 1923879.5325112867 1382683.43236509 100000
vertex 1980785.2804032303 1195090.322016128 100000
vertex 1980785.2804032303 1195090.322016128 -100000
endloop
endfacet
facet normal 0.9569403357322088 0.29028467725446216 0
outer loop
vertex 1923879.5325112867 1382683.43236509 100000
vertex 1980785.2804032303 1195090.322016128 -100000
vertex 1923879.5325112867 1382683.43236509 -100000
endloop
endfacet
facet normal 0.8819212643483552 0.47139673682599736 0
outer loop
vertex 1831469.6123025455 1555570.2330196023 100000
vertex 1923879.5325112867 1382683.43236509 100000
vertex 1923879.5325112867 1382683.43236509 -100000
endloop
endfacet
facet normal 0.8819212643483552 0.47139673682599736 0
outer loop
vertex 1831469.6123025455 1555570.2330196023 100000
vertex 1923879.5325112867 1382683.43236509 -100000
vertex 1831469.6123025455 1555570.2330196023 -100000
endloop
endfacet
facet normal 0.7730104533627372 0.6343932841636452 0
outer loop
vertex 1707106.7811865474 1707106.7811865474 100000
vertex 1831469.6123025455 1555570.2330196023 100000
vertex 1831469.6123025455 1555570.2330196023 -100000
endloop
endfacet
facet normal 0.7730104533627372 0.6343932841636452 0
outer loop
vertex 1707106.7811865474 1707106.7811865474 100000
vertex 1831469.6123025455 1555570.2330196023 -100000
vertex 1707106.7811865474 1707106.7811865474 -100000
endloop
endfacet
facet normal 0.6343932841636457 0.7730104533627368 0
outer loop
vertex 1555570.2330196023 1831469.6123025455 100000
vertex 1707106.7811865474 1707106.7811865474 100000
vertex 1707106.7811865474 1707106.7811865474 -100000
endloop
endfacet
facet normal 0.6343932841636457 0.7730104533627368 0
outer loop
vertex 1555570.2330196023 1831469.6123025455 100000
vertex 1707106.7811865474 1707106.7811865474 -100000
vertex 1555570.2330196023 1831469.6123025455 -100000
endloop
endfacet
facet normal 0.47139673682599775 0.881921264348355 0
outer loop
vertex 1382683.43236509 1923879.5325112867 100000
vertex 1555570.2330196023 1831469.6123025455 100000
vertex 1555570.2330196023 1831469.6123025455 -100000
endloop
endfacet
facet normal 0.47139673682599775 0.881921264348355 0
outer loop
vertex 1382683.43236509 1923879.5325112867 100000
vertex 1555570.2330196023 1831469.6123025455 -100000
vertex 1382683.43236509 1923879.5325112867 -100000
endloop
endfacet
facet normal 0.29028467725446233 0.9569403357322089 0
outer loop
vertex 1195090.3220161283 1980785.2804032303 100000
vertex 1382683.43236509 1923879.5325112867 100000
vertex 1382683.43236509 1923879.5325112867 -100000
endloop
endfacet
facet normal 0.29028467725446233 0.9569403357322089 0
outer loop
vertex 1195090.3220161283 1980785.2804032303 100000
vertex 1382683.43236509 1923879.5325112867 -100000
vertex 1195090.3220161283 1980785.2804032303 -100000
endloop
endfacet
facet normal 0.09801714032956049 0.9951847266721969 0
outer loop
vertex 1000000 2000000 100000
vertex 1195090.3220161283 1980785.2804032303 100000
vertex 1195090.3220161283 1980785.2804032303 -100000
endloop
endfacet
facet normal 0.09801714032956049 0.9951847266721969 0
outer loop
vertex 1000000 2000000 100000
vertex 1195090.3220161283 1980785.2804032303 -100000
vertex 1000000 2000000 -100000
endloop
endfacet
facet normal 0.09801714032956052 -0.9951847266721969 0
outer loop
vertex 1195090.3220161283 19214.71959676957 100000
vertex 999999.9999999998 0 100000
vertex 999999.9999999998 0 -100000
endloop
endfacet
facet normal 0.09801714032956052 -0.9951847266721969 0
outer loop
vertex 1195090.3220161283 19214.71959676957 100000
vertex 999999.9999999998 0 -100000
vertex 1195090.3220161283 19214.71959676957 -100000
endloop
endfacet
facet normal 0.29028467725446266 -0.9569403357322087 0
outer loop
vertex 1382683.4323650901 76120.46748871337 100000
vertex 1195090.3220161283 19214.71959676957 100000
vertex 1195090.3220161283 19214.71959676957 -100000
endloop
endfacet
facet normal 0.29028467725446266 -0.9569403357322087 0
outer loop
vertex 1382683.4323650901 76120.46748871337 100000
vertex 1195090.3220161283 19214.71959676957 -100000
vertex 1382683.4323650901 76120.46748871337 -100000
endloop
endfacet
facet normal 0.4713967368259975 -0.881921264348355 0
outer loop
vertex 1555570.2330196018 168530.38769745454 100000
vertex 1382683.4323650901 76120.46748871337 100000
vertex 1382683.4323650901 76120.46748871337 -100000
endloop
endfacet
facet normal 0.4713967368259975 -0.881921264348355 0
outer loop
vertex 1555570.2330196018 168530.38769745454 100000
vertex 1382683.4323650901 76120.46748871337 -100000
vertex 1555570.2330196018 168530.38769745454 -100000
endloop
endfacet
facet normal 0.6343932841636452 -0.7730104533627372 0
outer loop
vertex 1707106.7811865474 292893.2188134523 100000
vertex 1555570.2330196018 168530.38769745454 100000
vertex 1555570.2330196018 168530.38769745454 -100000
endloop
endfacet
facet normal 0.6343932841636452 -0.7730104533627372 0
outer loop
vertex 1707106.7811865474 292893.2188134523 100000
vertex 1555570.2330196018 168530.38769745454 -100000
vertex 1707106.7811865474 292893.2188134523 -100000
endloop
endfacet
facet normal 0.7730104533627367 -0.6343932841636457 0
outer loop
vertex 1831469.6123025455 444429.7669803978 100000
vertex 1707106.7811865474 292893.2188134523 100000
vertex 1707106.7811865474 292893.2188134523 -100000
endloop
endfacet
facet normal 0.7730104533627367 -0.6343932841636457 0
outer loop
vertex 1831469.6123025455 444429.7669803978 100000
vertex 1707106.7811865474 292893.2188134523 -100000
vertex 1831469.6123025455 444429.7669803978 -100000
endloop
endfacet
facet normal 0.8819212643483549 -0.471396736825998 0
outer loop
vertex 1923879.5325112864 617316.5676349096 100000
vertex 1831469.6123025455 444429.7669803978 100000
vertex 1831469.6123025455 444429.7669803978 -100000
endloop
endfacet
facet normal 0.8819212643483549 -0.471396736825998 0
outer loop
vertex 1923879.5325112864 617316.5676349096 100000
vertex 1831469.6123025455 444429.7669803978 -100000
vertex 1923879.5325112864 617316.5676349096 -100000
endloop
endfacet
facet normal 0.9569403357322088 -0.2902846772544626 0
outer loop
vertex 1980785.2804032303 804909.6779838712 100000
vertex 1923879.5325112864 617316.5676349096 100000
vertex 1923879.5325112864 617316.5676349096 -100000
endloop
endfacet
facet normal 0.9569403357322088 -0.2902846772544626 0
outer loop
vertex 1980785.2804032303 804909.6779838712 100000
vertex 1923879.5325112864 617316.5676349096 -100000
vertex 1980785.2804032303 804909.6779838712 -100000
endloop
endfacet
facet normal 0.9951847266721968 -0.09801714032956119 0
outer loop
vertex 2000000 1000000 100000
vertex 1980785.2804032303 804909.6779838712 100000
vertex 1980785.2804032303 804909.6779838712 -100000
endloop
endfacet
facet normal 0.9951847266721968 -0.09801714032956119 0
outer loop
vertex 2000000 1000000 100000
vertex 1980785.2804032303 804909.6779838712 -100000
vertex 2000000 1000000 -100000
endloop
endfacet
facet normal -0.9951847266721969 -0.09801714032956073 0
outer loop
vertex 1882706.7523629074 1175581.2898145155 -100000
vertex 1900000 1000000 -100000
vertex 1900000 1000000 100000
endloop
endfacet
facet normal -0.9951847266721969 -0.09801714032956073 0
outer loop
vertex 1882706.7523629074 1175581.2898145155 -100000
vertex 1900000 1000000 100000
vertex 1882706.7523629074 1175581.2898145155 100000
endloop
endfacet
facet normal -0.9569403357322088 -0.29028467725446233 0
outer loop
vertex 1831491.5792601581 1344415.0891285809 -100000
vertex 1882706.7523629074 1175581.2898145155 -100000
vertex 1882706.7523629074 1175581.2898145155 100000
endloop
endfacet
facet normal -0.9569403357322088 -0.29028467725446233 0
outer loop
vertex 1831491.5792601581 1344415.0891285809 -100000
vertex 1882706.7523629074 1175581.2898145155 100000
vertex 1831491.5792601581 1344415.0891285809 100000
endloop
endfacet
facet normal -0.881921264348355 -0.47139673682599764 0
outer loop
vertex 1748322.6510722907 1500013.209717642 -100000
vertex 1831491.5792601581 1344415.0891285809 -100000
vertex 1831491.5792601581 1344415.0891285809 100000
endloop
endfacet
facet normal -0.881921264348355 -0.47139673682599764 0
outer loop
vertex 1748322.6510722907 1500013.209717642 -100000
vertex 1831491.5792601581 1344415.0891285809 100000
vertex 1748322.6510722907 1500013.209717642 100000
endloop
endfacet
facet normal -0.7730104533627371 -0.6343932841636453 0
outer loop
vertex 1636396.1030678928 1636396.1030678928 -100000
vertex 1748322.6510722907 1500013.209717642 -100000
vertex 1748322.6510722907 1500013.209717642 100000
endloop
endfacet
facet normal -0.7730104533627371 -0.6343932841636453 0
outer loop
vertex 1636396.1030678928 1636396.1030678928 -100000
vertex 1748322.6510722907 1500013.209717642 100000
vertex 1636396.1030678928 1636396.1030678928 100000
endloop
endfacet
facet normal -0.6343932841636457 -0.7730104533627368 0
outer loop
vertex 1500013.209717642 1748322.6510722907 -100000
vertex 1636396.1030678928 1636396.1030678928 -100000
vertex 1636396.1030678928 1636396.1030678928 100000
endloop
endfacet
facet normal -0.6343932841636457 -0.7730104533627368 0
outer loop
vertex 1500013.209717642 1748322.6510722907 -100000
vertex 1636396.1030678928 1636396.1030678928 100000
vertex 1500013.209717642 1748322.6510722907 100000
endloop
endfacet
facet normal -0.4713967368259976 -0.881921264348355 0
outer loop
vertex 1344415.0891285809 1831491.5792601581 -100000
vertex 1500013.209717642 1748322.6510722907 -100000
vertex 1500013.209717642 1748322.6510722907 100000
endloop
endfacet
facet normal -0.4713967368259976 -0.881921264348355 0
outer loop
vertex 1344415.0891285809 1831491.5792601581 -100000
vertex 1500013.209717642 1748322.6510722907 100000
vertex 1344415.0891285809 1831491.5792601581 100000
endloop
endfacet
facet normal -0.29028467725446194 -0.9569403357322089 0
outer loop
vertex 1175581.2898145155 1882706.7523629074 -100000
vertex 1344415.0891285809 1831491.5792601581 -100000
vertex 1344415.0891285809 1831491.5792601581 100000
endloop
endfacet
facet normal -0.29028467725446194 -0.9569403357322089 0
outer loop
vertex 1175581.2898145155 1882706.7523629074 -100000
vertex 1344415.0891285809 1831491.5792601581 100000
vertex 1175581.2898145155 1882706.7523629074 100000
endloop
endfacet
facet normal -0.09801714032956048 -0.9951847266721969 0
outer loop
vertex 1000000 1900000 -100000
vertex 1175581.2898145155 1882706.7523629074 -100000
vertex 1175581.2898145155 1882706.7523629074 100000
endloop
endfacet
facet normal -0.09801714032956048 -0.9951847266721969 0
outer loop
vertex 1000000 1900000 -100000
vertex 1175581.2898145155 1882706.7523629074 100000
vertex 1000000 1900000 100000
endloop
endfacet
facet normal -0.09801714032956052 0.9951847266721968 0
outer loop
vertex 1175581.2898145155 117293.24763709259 -100000
vertex 999999.9999999999 99999.99999999997 -100000
vertex 999999.9999999999 99999.99999999997 100000
endloop
endfacet
facet normal -0.09801714032956052 0.9951847266721968 0
outer loop
vertex 1175581.2898145155 117293.24763709259 -100000
vertex 999999.9999999999 99999.99999999997 100000
vertex 1175581.2898145155 117293.24763709259 100000
endloop
endfacet
facet normal -0.2902846772544626 0.9569403357322088 0
outer loop
vertex 1344415.089128581 168508.42073984205 -100000
vertex 1175581.2898145155 117293.24763709259 -100000
vertex 1175581.2898145155 117293.24763709259 100000
endloop
endfacet
facet normal -0.2902846772544626 0.9569403357322088 0
outer loop
vertex 1344415.089128581 168508.42073984205 -100000
vertex 1175581.2898145155 117293.24763709259 100000
vertex 1344415.089128581 168508.42073984205 100000
endloop
endfacet
facet normal -0.4713967368259976 0.881921264348355 0
outer loop
vertex 1500013.2097176416 251677.3489277091 -100000
vertex 1344415.089128581 168508.42073984205 -100000
vertex 1344415.089128581 168508.42073984205 100000
endloop
endfacet
facet normal -0.4713967368259976 0.881921264348355 0
outer loop
vertex 1500013.2097176416 251677.3489277091 -100000
vertex 1344415.089128581 168508.42073984205 100000
vertex 1500013.2097176416 251677.3489277091 100000
endloop
endfacet
facet normal -0.634393284163645 0.7730104533627373 0
outer loop
vertex 1636396.1030678926 363603.89693210705 -100000
vertex 1500013.2097176416 251677.3489277091 -100000
vertex 1500013.2097176416 251677.3489277091 100000
endloop
endfacet
facet normal -0.634393284163645 0.7730104533627373 0
outer loop
vertex 1636396.1030678926 363603.89693210705 -100000
vertex 1500013.2097176416 251677.3489277091 100000
vertex 1636396.1030678926 363603.89693210705 100000
endloop
endfacet
facet normal -0.773010453362737 0.6343932841636455 0
outer loop
vertex 1748322.6510722907 499986.79028235807 -100000
vertex 1636396.1030678926 363603.89693210705 -100000
vertex 1636396.1030678926 363603.89693210705 100000
endloop
endfacet
facet normal -0.773010453362737 0.6343932841636455 0
outer loop
vertex 1748322.6510722907 499986.79028235807 -100000
vertex 1636396.1030678926 363603.89693210705 100000
vertex 1748322.6510722907 499986.79028235807 100000
endloop
endfacet
facet normal -0.8819212643483549 0.4713967368259979 0
outer loop
vertex 1831491.579260158 655584.9108714187 -100000
vertex 1748322.6510722907 499986.79028235807 -100000
vertex 1748322.6510722907 499986.79028235807 100000
endloop
endfacet
facet normal -0.8819212643483549 0.4713967368259979 0
outer loop
vertex 1831491.579260158 655584.9108714187 -100000
vertex 1748322.6510722907 499986.79028235807 100000
vertex 1831491.579260158 655584.9108714187 100000
endloop
endfacet
facet normal -0.9569403357322087 0.29028467725446283 0
outer loop
vertex 1882706.7523629074 824418.7101854841 -100000
vertex 1831491.579260158 655584.9108714187 -100000
vertex 1831491.579260158 655584.9108714187 100000
endloop
endfacet
facet normal -0.9569403357322087 0.29028467725446283 0
outer loop
vertex 1882706.7523629074 824418.7101854841 -100000
vertex 1831491.579260158 655584.9108714187 100000
vertex 1882706.7523629074 824418.7101854841 100000
endloop
endfacet
facet normal -0.9951847266721968 0.0980171403295612 0
outer loop
vertex 1900000 1000000 -100000
vertex 1882706.7523629074 824418.7101854841 -100000
vertex 1882706.7523629074 824418.7101854841 100000
endloop
endfacet
facet normal -0.9951847266721968 0.0980171403295612 0
outer loop
vertex 1900000 1000000 -100000
vertex 1882706.7523629074 824418.7101854841 100000
vertex 1900000 1000000 100000
endloop
endfacet
facet normal 0 0 1
outer loop
vertex 1195090.3220161283 19214.71959676957 100000
vertex 1382683.4323650901 76120.46748871337 100000
vertex 1427358.8954287535 99999.99999999987 100000
endloop
endfacet
facet normal 0 0 1
outer loop
vertex 1195090.3220161283 19214.71959676957 100000
vertex 1427358.8954287535 99999.99999999987 100000
vertex 990150.8596642835 99999.99999999987 100000
endloop
endfacet
facet normal 0 0 1
outer loop
vertex 1195090.3220161283 19214.71959676957 100000
vertex 990150.8596642835 99999.99999999987 100000
vertex 990150.8596642837 970.0556535263976 100000
endloop
endfacet
facet normal 0 0 1
outer loop
vertex 1195090.3220161283 19214.71959676957 100000
vertex 990150.8596642837 970.0556535263976 100000
vertex 999999.9999999998 0 100000
endloop
endfacet
facet normal 0 0 1
outer loop
vertex 999999.9999999999 99999.99999999997 100000
vertex 990150.8596642837 100970.05565352629 100000
vertex 990150.8596642835 99999.99999999987 100000
endloop
endfacet
facet normal 0 0 1
outer loop
vertex 1427358.8954287535 99999.99999999987 100000
vertex 1459712.2861702421 117293.2476370927 100000
vertex 1175581.2898145155 117293.24763709259 100000
endloop
endfacet
facet normal 0 0 1
outer loop
vertex 1427358.8954287535 99999.99999999987 100000
vertex 1175581.2898145155 117293.24763709259 100000
vertex 999999.9999999999 99999.99999999997 100000
endloop
endfacet
facet normal 0 0 1
outer loop
vertex 1459712.2861702421 117293.2476370927 100000
vertex 1555529.135732501 168508.42073984197 100000
vertex 1344415.089128581 168508.42073984205 100000
endloop
endfacet
facet normal 0 0 1
outer loop
vertex 1459712.2861702421 117293.2476370927 100000
vertex 1344415.089128581 168508.42073984205 100000
vertex 1175581.2898145155 117293.24763709259 100000
endloop
endfacet
facet normal 0 0 1
outer loop
vertex 1555529.135732501 168508.42073984197 100000
vertex 1555570.2330196018 168530.38769745454 100000
vertex 1656885.098420594 251677.3489277091 100000
endloop
endfacet
facet normal 0 0 1
outer loop
vertex 1555529.135732501 168508.42073984197 100000
vertex 1656885.098420594 251677.3489277091 100000
vertex 1500013.2097176416 251677.3489277091 100000
endloop
endfacet
facet normal 0 0 1
outer loop
vertex 1555529.135732501 168508.42073984197 100000
vertex 1500013.2097176416 251677.3489277091 100000
vertex 1344415.089128581 168508.42073984205 100000
endloop
endfacet
facet normal 0 0 1
outer loop
vertex 1656885.098420594 251677.3489277091 100000
vertex 1707106.7811865474 292893.2188134523 100000
vertex 1765137.5350036393 363603.89693210705 100000
endloop
endfacet
facet normal 0 0 1
outer loop
vertex 1656885.098420594 251677.3489277091 100000
vertex 1765137.5350036393 363603.89693210705 100000
vertex 1636396.1030678926 363603.89693210705 100000
endloop
endfacet
facet normal 0 0 1
outer loop
vertex 1656885.098420594 251677.3489277091 100000
vertex 1636396.1030678926 363603.89693210705 100000
vertex 1500013.2097176416 251677.3489277091 100000
endloop
endfacet
facet normal 0 0 1
outer loop
vertex 1765137.5350036393 363603.89693210705 100000
vertex 1831469.6123025455 444429.7669803978 100000
vertex 1861165.4599377206 499986.7902823585 100000
endloop
endfacet
facet normal 0 0 1
outer loop
vertex 1765137.5350036393 363603.89693210705 100000
vertex 1861165.4599377206 499986.7902823585 100000
vertex 1748322.6510722907 499986.79028235807 100000
endloop
endfacet
facet normal 0 0 1
outer loop
vertex 1765137.5350036393 363603.89693210705 100000
vertex 1748322.6510722907 499986.79028235807 100000
vertex 1636396.1030678926 363603.89693210705 100000
endloop
endfacet
facet normal 0 0 1
outer loop
vertex 1861165.4599377206 499986.7902823585 100000
vertex 1923879.5325112864 617316.5676349096 100000
vertex 1935488.1075192294 655584.9108714197 100000
endloop
endfacet
facet normal 0 0 1
outer loop
vertex 1861165.4599377206 499986.7902823585 100000
vertex 1935488.1075192294 655584.9108714197 100000
vertex 1831491.579260158 655584.9108714187 100000
endloop
endfacet
facet normal 0 0 1
outer loop
vertex 1861165.4599377206 499986.7902823585 100000
vertex 1831491.579260158 655584.9108714187 100000
vertex 1748322.6510722907 499986.79028235807 100000
endloop
endfacet
facet normal 0 0 1
outer loop
vertex 1935488.1075192294 655584.9108714197 100000
vertex 1980785.2804032303 804909.6779838712 100000
vertex 1982706.7523629074 824418.710185484 100000
endloop
endfacet
facet normal 0 0 1
outer loop
vertex 1935488.1075192294 655584.9108714197 100000
vertex 1982706.7523629074 824418.710185484 100000
vertex 1882706.7523629074 824418.7101854841 100000
endloop
endfacet
facet normal 0 0 1
outer loop
vertex 1935488.1075192294 655584.9108714197 100000
vertex 1882706.7523629074 824418.7101854841 100000
vertex 1831491.579260158 655584.9108714187 100000
endloop
endfacet
facet normal 0 0 1
outer loop
vertex 1982706.7523629074 824418.710185484 100000
vertex 2000000 1000000 100000
vertex 1900000 1000000 100000
endloop
endfacet
facet normal 0 0 1
outer loop
vertex 1982706.7523629074 824418.710185484 100000
vertex 1900000 1000000 100000
vertex 1882706.7523629074 824418.7101854841 100000
endloop
endfacet
facet normal 0 0 1
outer loop
vertex 2000000 1000000 100000
vertex 1982706.7523629074 1175581.2898145155 100000
vertex 1882706.7523629074 1175581.2898145155 100000
endloop
endfacet
facet normal 0 0 1
outer loop
vertex 2000000 1000000 100000
vertex 1882706.7523629074 1175581.2898145155 100000
vertex 1900000 1000000 100000
endloop
endfacet
facet normal 0 0 1
outer loop
vertex 1982706.7523629074 1175581.2898145155 100000
vertex 1980785.2804032303 1195090.322016128 100000
vertex 1935488.1075192292 1344415.0891285809 100000
endloop
endfacet
facet normal 0 0 1
outer loop
vertex 1982706.7523629074 1175581.2898145155 100000
vertex 1935488.1075192292 1344415.0891285809 100000
vertex 1831491.5792601581 1344415.0891285809 100000
endloop
endfacet
facet normal 0 0 1
outer loop
vertex 1982706.7523629074 1175581.2898145155 100000
vertex 1831491.5792601581 1344415.0891285809 100000
vertex 1882706.7523629074 1175581.2898145155 100000
endloop
endfacet
facet normal 0 0 1
outer loop
vertex 1935488.1075192292 1344415.0891285809 100000
vertex 1923879.5325112867 1382683.43236509 100000
vertex 1861165.4599377206 1500013.209717642 100000
endloop
endfacet
facet normal 0 0 1
outer loop
vertex 1935488.1075192292 1344415.0891285809 100000
vertex 1861165.4599377206 1500013.209717642 100000
vertex 1748322.6510722907 1500013.209717642 100000
endloop
endfacet
facet normal 0 0 1
outer loop
vertex 1935488.1075192292 1344415.0891285809 100000
vertex 1748322.6510722907 1500013.209717642 100000
vertex 1831491.5792601581 1344415.0891285809 100000
endloop
endfacet
facet normal 0 0 1
outer loop
vertex 1861165.4599377206 1500013.209717642 100000
vertex 1831469.6123025455 1555570.2330196023 100000
vertex 1765137.5350036398 1636396.1030678928 100000
endloop
endfacet
facet normal 0 0 1
outer loop
vertex 1861165.4599377206 1500013.209717642 100000
vertex 1765137.5350036398 1636396.1030678928 100000
vertex 1636396.1030678928 1636396.1030678928 100000
endloop
endfacet
facet normal 0 0 1
outer loop
vertex 1861165.4599377206 1500013.209717642 100000
vertex 1636396.1030678928 1636396.1030678928 100000
vertex 1748322.6510722907 1500013.209717642 100000
endloop
endfacet
facet normal 0 0 1
outer loop
vertex 1765137.5350036398 1636396.1030678928 100000
vertex 1707106.7811865474 1707106.7811865474 100000
vertex 1656885.0984205941 1748322.6510722907 100000
endloop
endfacet
facet normal 0 0 1
outer loop
vertex 1765137.5350036398 1636396.1030678928 100000
vertex 1656885.0984205941 1748322.6510722907 100000
vertex 1500013.209717642 1748322.6510722907 100000
endloop
endfacet
facet normal 0 0 1
outer loop
vertex 1765137.5350036398 1636396.1030678928 100000
vertex 1500013.209717642 1748322.6510722907 100000
vertex 1636396.1030678928 1636396.1030678928 100000
endloop
endfacet
facet normal 0 0 1
outer loop
vertex 1656885.0984205941 1748322.6510722907 100000
vertex 1555570.2330196023 1831469.6123025455 100000
vertex 1555529.1357325015 1831491.579260158 100000
endloop
endfacet
facet normal 0 0 1
outer loop
vertex 1656885.0984205941 1748322.6510722907 100000
vertex 1555529.1357325015 1831491.579260158 100000
vertex 1344415.0891285809 1831491.5792601581 100000
endloop
endfacet
facet normal 0 0 1
outer loop
vertex 1656885.0984205941 1748322.6510722907 100000
vertex 1344415.0891285809 1831491.5792601581 100000
vertex 1500013.209717642 1748322.6510722907 100000
endloop
endfacet
facet normal 0 0 1
outer loop
vertex 1555529.1357325015 1831491.579260158 100000
vertex 1459712.2861702421 1882706.7523629074 100000
vertex 1175581.2898145155 1882706.7523629074 100000
endloop
endfacet
facet normal 0 0 1
outer loop
vertex 1555529.1357325015 1831491.579260158 100000
vertex 1175581.2898145155 1882706.7523629074 100000
vertex 1344415.0891285809 1831491.5792601581 100000
endloop
endfacet
facet normal 0 0 1
outer loop
vertex 1000000 1900000 100000
vertex 990150.8596642836 1900000 100000
vertex 990150.8596642837 1899029.944346475 100000
endloop
endfacet
facet normal 0 0 1
outer loop
vertex 1459712.2861702421 1882706.7523629074 100000
vertex 1427358.8954287537 1900000 100000
vertex 1000000 1900000 100000
endloop
endfacet
facet normal 0 0 1
outer loop
vertex 1459712.2861702421 1882706.7523629074 100000
vertex 1000000 1900000 100000
vertex 1175581.2898145155 1882706.7523629074 100000
endloop
endfacet
facet normal 0 0 1
outer loop
vertex 1427358.8954287537 1900000 100000
vertex 1382683.43236509 1923879.5325112867 100000
vertex 1195090.3220161283 1980785.2804032303 100000
endloop
endfacet
facet normal 0 0 1
outer loop
vertex 1427358.8954287537 1900000 100000
vertex 1195090.3220161283 1980785.2804032303 100000
vertex 1000000 2000000 100000
endloop
endfacet
facet normal 0 0 1
outer loop
vertex 1427358.8954287537 1900000 100000
vertex 1000000 2000000 100000
vertex 990150.8596642837 1999029.9443464745 100000
endloop
endfacet
facet normal 0 0 1
outer loop
vertex 1427358.8954287537 1900000 100000
vertex 990150.8596642837 1999029.9443464745 100000
vertex 990150.8596642836 1900000 100000
endloop
endfacet
facet normal 0 0 -1
outer loop
vertex 1195090.3220161283 1980785.2804032303 -100000
vertex 1382683.43236509 1923879.5325112867 -100000
vertex 1427358.8954287537 1900000.0000000002 -100000
endloop
endfacet
facet normal 0 0 -1
outer loop
vertex 1195090.3220161283 1980785.2804032303 -100000
vertex 1427358.8954287537 1900000.0000000002 -100000
vertex 990150.8596642836 1900000.0000000002 -100000
endloop
endfacet
facet normal 0 0 -1
outer loop
vertex 1195090.3220161283 1980785.2804032303 -100000
vertex 990150.8596642836 1900000.0000000002 -100000
vertex 990150.8596642835 1999029.9443464736 -100000
endloop
endfacet
facet normal 0 0 -1
outer loop
vertex 1195090.3220161283 1980785.2804032303 -100000
vertex 990150.8596642835 1999029.9443464736 -100000
vertex 1000000 2000000 -100000
endloop
endfacet
facet normal 0 0 -1
outer loop
vertex 1000000 1900000 -100000
vertex 990150.8596642835 1899029.9443464736 -100000
vertex 990150.8596642836 1900000.0000000002 -100000
endloop
endfacet
facet normal 0 0 -1
outer loop
vertex 1427358.8954287537 1900000.0000000002 -100000
vertex 1459712.286170242 1882706.7523629076 -100000
vertex 1175581.2898145155 1882706.7523629074 -100000
endloop
endfacet
facet normal 0 0 -1
outer loop
vertex 1427358.8954287537 1900000.0000000002 -100000
vertex 1175581.2898145155 1882706.7523629074 -100000
vertex 1000000 1900000 -100000
endloop
endfacet
facet normal 0 0 -1
outer loop
vertex 1459712.286170242 1882706.7523629076 -100000
vertex 1555529.1357325015 1831491.5792601581 -100000
vertex 1344415.0891285809 1831491.5792601581 -100000
endloop
endfacet
facet normal 0 0 -1
outer loop
vertex 1459712.286170242 1882706.7523629076 -100000
vertex 1344415.0891285809 1831491.5792601581 -100000
vertex 1175581.2898145155 1882706.7523629074 -100000
endloop
endfacet
facet normal 0 0 -1
outer loop
vertex 1555529.1357325015 1831491.5792601581 -100000
vertex 1555570.2330196023 1831469.6123025455 -100000
vertex 1656885.0984205941 1748322.6510722907 -100000
endloop
endfacet
facet normal 0 0 -1
outer loop
vertex 1555529.1357325015 1831491.5792601581 -100000
vertex 1656885.0984205941 1748322.6510722907 -100000
vertex 1500013.209717642 1748322.6510722907 -100000
endloop
endfacet
facet normal 0 0 -1
outer loop
vertex 1555529.1357325015 1831491.5792601581 -100000
vertex 1500013.209717642 1748322.6510722907 -100000
vertex 1344415.0891285809 1831491.5792601581 -100000
endloop
endfacet
facet normal 0 0 -1
outer loop
vertex 1656885.0984205941 1748322.6510722907 -100000
vertex 1707106.7811865474 1707106.7811865474 -100000
vertex 1765137.5350036398 1636396.1030678928 -100000
endloop
endfacet
facet normal 0 0 -1
outer loop
vertex 1656885.0984205941 1748322.6510722907 -100000
vertex 1765137.5350036398 1636396.1030678928 -100000
vertex 1636396.1030678928 1636396.1030678928 -100000
endloop
endfacet
facet normal 0 0 -1
outer loop
vertex 1656885.0984205941 1748322.6510722907 -100000
vertex 1636396.1030678928 1636396.1030678928 -100000
vertex 1500013.209717642 1748322.6510722907 -100000
endloop
endfacet
facet normal 0 0 -1
outer loop
vertex 1765137.5350036398 1636396.1030678928 -100000
vertex 1831469.6123025455 1555570.2330196023 -100000
vertex 1861165.4599377206 1500013.209717642 -100000
endloop
endfacet
facet normal 0 0 -1
outer loop
vertex 1765137.5350036398 1636396.1030678928 -100000
vertex 1861165.4599377206 1500013.209717642 -100000
vertex 1748322.6510722907 1500013.209717642 -100000
endloop
endfacet
facet normal 0 0 -1
outer loop
vertex 1765137.5350036398 1636396.1030678928 -100000
vertex 1748322.6510722907 1500013.209717642 -100000
vertex 1636396.1030678928 1636396.1030678928 -100000
endloop
endfacet
facet normal 0 0 -1
outer loop
vertex 1861165.4599377206 1500013.209717642 -100000
vertex 1923879.5325112867 1382683.43236509 -100000
vertex 1935488.1075192292 1344415.0891285809 -100000
endloop
endfacet
facet normal 0 0 -1
outer loop
vertex 1861165.4599377206 1500013.209717642 -100000
vertex 1935488.1075192292 1344415.0891285809 -100000
vertex 1831491.5792601581 1344415.0891285809 -100000
endloop
endfacet
facet normal 0 0 -1
outer loop
vertex 1861165.4599377206 1500013.209717642 -100000
vertex 1831491.5792601581 1344415.0891285809 -100000
vertex 1748322.6510722907 1500013.209717642 -100000
endloop
endfacet
facet normal 0 0 -1
outer loop
vertex 1935488.1075192292 1344415.0891285809 -100000
vertex 1980785.2804032303 1195090.322016128 -100000
vertex 1982706.7523629074 1175581.2898145155 -100000
endloop
endfacet
facet normal 0 0 -1
outer loop
vertex 1935488.1075192292 1344415.0891285809 -100000
vertex 1982706.7523629074 1175581.2898145155 -100000
vertex 1882706.7523629074 1175581.2898145155 -100000
endloop
endfacet
facet normal 0 0 -1
outer loop
vertex 1935488.1075192292 1344415.0891285809 -100000
vertex 1882706.7523629074 1175581.2898145155 -100000
vertex 1831491.5792601581 1344415.0891285809 -100000
endloop
endfacet
facet normal 0 0 -1
outer loop
vertex 1982706.7523629074 1175581.2898145155 -100000
vertex 2000000 1000000 -100000
vertex 1900000 1000000 -100000
endloop
endfacet
facet normal 0 0 -1
outer loop
vertex 1982706.7523629074 1175581.2898145155 -100000
vertex 1900000 1000000 -100000
vertex 1882706.7523629074 1175581.2898145155 -100000
endloop
endfacet
facet normal 0 0 -1
outer loop
vertex 2000000 1000000 -100000
vertex 1982706.7523629074 824418.710185484 -100000
vertex 1882706.7523629074 824418.7101854841 -100000
endloop
endfacet
facet normal 0 0 -1
outer loop
vertex 2000000 1000000 -100000
vertex 1882706.7523629074 824418.7101854841 -100000
vertex 1900000 1000000 -100000
endloop
endfacet
facet normal 0 0 -1
outer loop
vertex 1982706.7523629074 824418.710185484 -100000
vertex 1980785.2804032303 804909.6779838712 -100000
vertex 1935488.1075192294 655584.9108714196 -100000
endloop
endfacet
facet normal 0 0 -1
outer loop
vertex 1982706.7523629074 824418.710185484 -100000
vertex 1935488.1075192294 655584.9108714196 -100000
vertex 1831491.579260158 655584.9108714187 -100000
endloop
endfacet
facet normal 0 0 -1
outer loop
vertex 1982706.7523629074 824418.710185484 -100000
vertex 1831491.579260158 655584.9108714187 -100000
vertex 1882706.7523629074 824418.7101854841 -100000
endloop
endfacet
facet normal 0 0 -1
outer loop
vertex 1935488.1075192294 655584.9108714196 -100000
vertex 1923879.5325112864 617316.5676349096 -100000
vertex 1861165.4599377206 499986.7902823585 -100000
endloop
endfacet
facet normal 0 0 -1
outer loop
vertex 1935488.1075192294 655584.9108714196 -100000
vertex 1861165.4599377206 499986.7902823585 -100000
vertex 1748322.6510722907 499986.79028235807 -100000
endloop
endfacet
facet normal 0 0 -1
outer loop
vertex 1935488.1075192294 655584.9108714196 -100000
vertex 1748322.6510722907 499986.79028235807 -100000
vertex 1831491.579260158 655584.9108714187 -100000
endloop
endfacet
facet normal 0 0 -1
outer loop
vertex 1861165.4599377206 499986.7902823585 -100000
vertex 1831469.6123025455 444429.7669803978 -100000
vertex 1765137.5350036393 363603.89693210705 -100000
endloop
endfacet
facet normal 0 0 -1
outer loop
vertex 1861165.4599377206 499986.7902823585 -100000
vertex 1765137.5350036393 363603.89693210705 -100000
vertex 1636396.1030678926 363603.89693210705 -100000
endloop
endfacet
facet normal 0 0 -1
outer loop
vertex 1861165.4599377206 499986.7902823585 -100000
vertex 1636396.1030678926 363603.89693210705 -100000
vertex 1748322.6510722907 499986.79028235807 -100000
endloop
endfacet
facet normal 0 0 -1
outer loop
vertex 1765137.5350036393 363603.89693210705 -100000
vertex 1707106.7811865474 292893.2188134523 -100000
vertex 1656885.098420594 251677.3489277091 -100000
endloop
endfacet
facet normal 0 0 -1
outer loop
vertex 1765137.5350036393 363603.89693210705 -100000
vertex 1656885.098420594 251677.3489277091 -100000
vertex 1500013.2097176416 251677.3489277091 -100000
endloop
endfacet
facet normal 0 0 -1
outer loop
vertex 1765137.5350036393 363603.89693210705 -100000
vertex 1500013.2097176416 251677.3489277091 -100000
vertex 1636396.1030678926 363603.89693210705 -100000
endloop
endfacet
facet normal 0 0 -1
outer loop
vertex 1656885.098420594 251677.3489277091 -100000
vertex 1555570.2330196018 168530.38769745454 -100000
vertex 1555529.1357325008 168508.42073984185 -100000
endloop
endfacet
facet normal 0 0 -1
outer loop
vertex 1656885.098420594 251677.3489277091 -100000
vertex 1555529.1357325008 168508.42073984185 -100000
vertex 1344415.089128581 168508.42073984205 -100000
endloop
endfacet
facet normal 0 0 -1
outer loop
vertex 1656885.098420594 251677.3489277091 -100000
vertex 1344415.089128581 168508.42073984205 -100000
vertex 1500013.2097176416 251677.3489277091 -100000
endloop
endfacet
facet normal 0 0 -1
outer loop
vertex 1555529.1357325008 168508.42073984185 -100000
vertex 1459712.2861702421 117293.2476370927 -100000
vertex 1175581.2898145155 117293.24763709259 -100000
endloop
endfacet
facet normal 0 0 -1
outer loop
vertex 1555529.1357325008 168508.42073984185 -100000
vertex 1175581.2898145155 117293.24763709259 -100000
vertex 1344415.089128581 168508.42073984205 -100000
endloop
endfacet
facet normal 0 0 -1
outer loop
vertex 999999.9999999999 99999.99999999997 -100000
vertex 990150.8596642833 99999.99999999997 -100000
vertex 990150.8596642835 100970.05565352629 -100000
endloop
endfacet
facet normal 0 0 -1
outer loop
vertex 1459712.2861702421 117293.2476370927 -100000
vertex 1427358.8954287535 99999.99999999997 -100000
vertex 999999.9999999999 99999.99999999997 -100000
endloop
endfacet
facet normal 0 0 -1
outer loop
vertex 1459712.2861702421 117293.2476370927 -100000
vertex 999999.9999999999 99999.99999999997 -100000
vertex 1175581.2898145155 117293.24763709259 -100000
endloop
endfacet
facet normal 0 0 -1
outer loop
vertex 1427358.8954287535 99999.99999999997 -100000
vertex 1382683.4323650901 76120.46748871337 -100000
vertex 1195090.3220161283 19214.71959676957 -100000
endloop
endfacet
facet normal 0 0 -1
outer loop
vertex 1427358.8954287535 99999.99999999997 -100000
vertex 1195090.3220161283 19214.71959676957 -100000
vertex 999999.9999999998 0 -100000
endloop
endfacet
facet normal 0 0 -1
outer loop
vertex 1427358.8954287535 99999.99999999997 -100000
vertex 999999.9999999998 0 -100000
vertex 990150.8596642835 970.0556535263919 -100000
endloop
endfacet
facet normal 0 0 -1
outer loop
vertex 1427358.8954287535 99999.99999999997 -100000
vertex 990150.8596642835 970.0556535263919 -100000
vertex 990150.8596642833 99999.99999999997 -100000
endloop
endfacet
facet normal -0.09801714032956049 0.9951847266721969 0
outer loop
vertex 1000000 2000000 1.1021821192326179e-10
vertex 1000000 2000000 -100000
vertex 990150.8596642835 1999029.9443464736 -100000
endloop
endfacet
facet normal -0.09801714032956049 0.9951847266721969 0
outer loop
vertex 1000000 2000000 100000
vertex 1000000 2000000 1.1021821192326179e-10
vertex 990150.8596642837 1999029.9443464745 100000
endloop
endfacet
facet normal -0.09801714032956119 -0.9951847266721968 0
outer loop
vertex 1000000 0 0
vertex 990150.8596642835 970.0556535263919 -100000
vertex 999999.9999999998 0 -100000
endloop
endfacet
facet normal -0.09801714032956119 -0.9951847266721968 0
outer loop
vertex 999999.9999999998 0 100000
vertex 990150.8596642837 970.0556535263976 100000
vertex 1000000 0 0
endloop
endfacet
facet normal 0.09801714032956002 -0.9951847266721969 0
outer loop
vertex 1000000.0000000002 1900000.0000000012 0
vertex 990150.8596642835 1899029.9443464736 -100000
vertex 1000000 1900000 -100000
endloop
endfacet
facet normal 0.09801714032956002 -0.9951847266721969 0
outer loop
vertex 1000000 1900000 100000
vertex 990150.8596642837 1899029.944346475 100000
vertex 1000000.0000000002 1900000.0000000012 0
endloop
endfacet
facet normal 0.09801714032956121 0.9951847266721968 0
outer loop
vertex 1000000.0000000002 99999.99999999994 0
vertex 999999.9999999999 99999.99999999997 -100000
vertex 990150.8596642835 100970.05565352629 -100000
endloop
endfacet
facet normal 0.09801714032956121 0.9951847266721968 0
outer loop
vertex 999999.9999999999 99999.99999999997 100000
vertex 1000000.0000000002 99999.99999999994 0
vertex 990150.8596642837 100970.05565352629 100000
endloop
endfacet
endsolid csg.js
